<?xml version="1.0" encoding="UTF-8" standalone="no"?>
<svg
   xmlns:dc="http://purl.org/dc/elements/1.1/"
   xmlns:cc="http://creativecommons.org/ns#"
   xmlns:rdf="http://www.w3.org/1999/02/22-rdf-syntax-ns#"
   xmlns:svg="http://www.w3.org/2000/svg"
   xmlns="http://www.w3.org/2000/svg"
   xmlns:sodipodi="http://sodipodi.sourceforge.net/DTD/sodipodi-0.dtd"
   xmlns:inkscape="http://www.inkscape.org/namespaces/inkscape"
   width="1174.2147pt"
   height="1022.5648pt"
   version="1.1"
   viewBox="0 0 1174.2147 1022.5648"
   xml:space="preserve"
   style="clip-rule:evenodd;fill-rule:evenodd;stroke-linecap:round;stroke-linejoin:round;stroke-miterlimit:1.5"
   id="svg14"
   sodipodi:docname="box.svg"
   inkscape:version="0.92.5 (2060ec1f9f, 2020-04-08)"><metadata
   id="metadata20"><rdf:RDF><cc:Work
       rdf:about=""><dc:format>image/svg+xml</dc:format><dc:type
         rdf:resource="http://purl.org/dc/dcmitype/StillImage" /><dc:title></dc:title></cc:Work></rdf:RDF></metadata><defs
   id="defs18" /><sodipodi:namedview
   pagecolor="#ffffff"
   bordercolor="#666666"
   borderopacity="1"
   objecttolerance="10"
   gridtolerance="10"
   guidetolerance="10"
   inkscape:pageopacity="0"
   inkscape:pageshadow="2"
   inkscape:window-width="1366"
   inkscape:window-height="704"
   id="namedview16"
   showgrid="false"
   inkscape:zoom="0.43795621"
   inkscape:cx="929.1333"
   inkscape:cy="888.68766"
   inkscape:window-x="0"
   inkscape:window-y="27"
   inkscape:window-maximized="1"
   inkscape:current-layer="svg14"
   inkscape:snap-global="false"
   fit-margin-top="0"
   fit-margin-left="0"
   fit-margin-right="0"
   fit-margin-bottom="0" />
        <path
   d="m 877.26238,216.76238 v -43.2 h 15.84 v -43.2 h -15.84 V 87.162375 h 15.84 v -43.2 h -15.84 V 0.76237506 h -24.96 V 16.602375 h -40.8 V 0.76237506 h -40.8 V 16.602375 h -40.8 V 0.76237506 h -40.8 V 16.602375 h -40.8 V 0.76237506 h -40.8 V 16.602375 h -40.8 V 0.76237506 h -40.8 V 16.602375 h -40.8 V 0.76237506 h -40.8 V 16.602375 h -40.8 V 0.76237506 h -40.8 V 16.602375 h -40.8 V 0.76237506 h -40.8 V 43.962375 h 15.84 v 43.2 h -15.84 v 43.200005 h 15.84 v 43.2 h -15.84 v 43.2 h 40.8 v -15.84 h 40.8 v 15.84 h 40.8 v -15.84 h 40.8 v 15.84 h 40.8 v -15.84 h 40.8 v 15.84 h 40.8 v -15.84 h 40.8 v 15.84 h 40.8 v -15.84 h 40.8 v 15.84 h 40.8 v -15.84 h 40.8 v 15.84 h 40.8 v -15.84 h 40.8 v 15.84 z"
   style="fill:none;stroke:#000000;stroke-width:1.52475011;stroke-miterlimit:1.5;stroke-dasharray:none;stroke-opacity:1"
   id="path2"
   inkscape:connector-curvature="0" />
        <path
   d="m 236.92238,461.10238 v -43.2 h 15.84 v -43.2 h -15.84 v -43.2 h 15.84 v -43.2 h -15.84 v -43.2 h -34.56 v 15.84 h -50.4 v -15.84 h -50.4 v 15.84 H 51.162375 v -15.84 H 0.76237506 v 43.2 H 16.602375 v 43.2 H 0.76237506 v 43.2 H 16.602375 v 43.2 H 0.76237506 v 43.2 H 51.162375 v -15.84 h 50.400005 v 15.84 h 50.4 v -15.84 h 50.4 v 15.84 z"
   style="fill:none;stroke:#000000;stroke-width:1.52475011;stroke-miterlimit:1.5;stroke-dasharray:none;stroke-opacity:1"
   id="path4"
   inkscape:connector-curvature="0" />
        <path
   d="m 877.26238,481.26238 v -34.56 h 15.84 v -50.4 h -15.84 v -50.4 h 15.84 v -50.4 h -15.84 v -34.56 h -24.96 v -15.84 h -40.8 v 15.84 h -40.8 v -15.84 h -40.8 v 15.84 h -40.8 v -15.84 h -40.8 v 15.84 h -40.8 v -15.84 h -40.8 v 15.84 h -40.8 v -15.84 h -40.8 v 15.84 h -40.8 v -15.84 h -40.8 v 15.84 h -40.8 v -15.84 h -40.8 v 15.84 h -24.96 v 34.56 h -15.84 v 50.4 h 15.84 v 50.4 h -15.84 v 50.4 h 15.84 v 34.56 h 24.96 v 15.84 h 40.8 v -15.84 h 40.8 v 15.84 h 40.8 v -15.84 h 40.8 v 15.84 h 40.8 v -15.84 h 40.8 v 15.84 h 40.8 v -15.84 h 40.8 v 15.84 h 40.8 v -15.84 h 40.8 v 15.84 h 40.8 v -15.84 h 40.8 v 15.84 h 40.8 v -15.84 z"
   style="fill:none;stroke:#000000;stroke-width:1.52475011;stroke-miterlimit:1.5;stroke-dasharray:none;stroke-opacity:1"
   id="path6"
   inkscape:connector-curvature="0" />
        <path
   d="m 1157.6124,461.10238 v -43.2 h 15.84 v -43.2 h -15.84 v -43.2 h 15.84 v -43.2 h -15.84 v -43.2 h -34.56 v 15.84 h -50.4 v -15.84 h -50.4 v 15.84 h -50.40002 v -15.84 h -50.4 v 43.2 h 15.84 v 43.2 h -15.84 v 43.2 h 15.84 v 43.2 h -15.84 v 43.2 h 50.4 v -15.84 h 50.40002 v 15.84 h 50.4 v -15.84 h 50.4 v 15.84 z"
   style="fill:none;stroke:#000000;stroke-width:1.52475011;stroke-miterlimit:1.5;stroke-dasharray:none;stroke-opacity:1"
   id="path8"
   inkscape:connector-curvature="0" />
        <path
   d="m 877.26238,741.45238 v -43.2 h 15.84 v -43.2 h -15.84 v -43.2 h 15.84 v -43.2 h -15.84 v -43.2 h -24.96 v 15.84 h -40.8 v -15.84 h -40.8 v 15.84 h -40.8 v -15.84 h -40.8 v 15.84 h -40.8 v -15.84 h -40.8 v 15.84 h -40.8 v -15.84 h -40.8 v 15.84 h -40.8 v -15.84 h -40.8 v 15.84 h -40.8 v -15.84 h -40.8 v 15.84 h -40.8 v -15.84 h -40.8 v 43.2 h 15.84 v 43.2 h -15.84 v 43.2 h 15.84 v 43.2 h -15.84 v 43.2 h 40.8 v -15.84 h 40.8 v 15.84 h 40.8 v -15.84 h 40.8 v 15.84 h 40.8 v -15.84 h 40.8 v 15.84 h 40.8 v -15.84 h 40.8 v 15.84 h 40.8 v -15.84 h 40.8 v 15.84 h 40.8 v -15.84 h 40.8 v 15.84 h 40.8 v -15.84 h 40.8 v 15.84 z"
   style="fill:none;stroke:#000000;stroke-width:1.52475011;stroke-miterlimit:1.5;stroke-dasharray:none;stroke-opacity:1"
   id="path10"
   inkscape:connector-curvature="0" />
        <path
   d="m 877.26238,1005.9624 v -34.56002 h 15.84 v -50.4 h -15.84 v -50.4 h 15.84 v -50.4 h -15.84 v -34.56 h -24.96 v -15.84 h -40.8 v 15.84 h -40.8 v -15.84 h -40.8 v 15.84 h -40.8 v -15.84 h -40.8 v 15.84 h -40.8 v -15.84 h -40.8 v 15.84 h -40.8 v -15.84 h -40.8 v 15.84 h -40.8 v -15.84 h -40.8 v 15.84 h -40.8 v -15.84 h -40.8 v 15.84 h -24.96 v 34.56 h -15.84 v 50.4 h 15.84 v 50.4 h -15.84 v 50.4 h 15.84 v 34.56002 h 24.96 v 15.84 h 40.8 v -15.84 h 40.8 v 15.84 h 40.8 v -15.84 h 40.8 v 15.84 h 40.8 v -15.84 h 40.8 v 15.84 h 40.8 v -15.84 h 40.8 v 15.84 h 40.8 v -15.84 h 40.8 v 15.84 h 40.8 v -15.84 h 40.8 v 15.84 h 40.8 v -15.84 z"
   style="fill:none;stroke:#000000;stroke-width:1.52475011;stroke-miterlimit:1.5;stroke-dasharray:none;stroke-opacity:1"
   id="path12"
   inkscape:connector-curvature="0" />

<g
   style="fill:#000000;fill-opacity:1;stroke:#000000;stroke-width:104.16666412;stroke-linecap:round;stroke-linejoin:round;stroke-miterlimit:4;stroke-dasharray:none;stroke-opacity:1"
   id="g16442"
   transform="matrix(0.0072,0,0,0.0072,303.56998,264.73534)" /><g
   style="fill:#000000;fill-opacity:0;stroke:#000000;stroke-width:104.16666412;stroke-linecap:round;stroke-linejoin:round;stroke-miterlimit:4;stroke-dasharray:none;stroke-opacity:1"
   id="g16444"
   transform="matrix(0.0072,0,0,0.0072,303.56998,264.73534)" /><g
   style="fill:#008484;fill-opacity:0;stroke:#000000;stroke-width:104.16666412;stroke-linecap:round;stroke-linejoin:round;stroke-miterlimit:4;stroke-dasharray:none;stroke-opacity:1"
   id="g16446"
   transform="matrix(0.0072,0,0,0.0072,303.56998,264.73534)" /><circle
   style="fill:#008484;fill-opacity:0;stroke:#000000;stroke-width:0.75;stroke-linecap:round;stroke-linejoin:round;stroke-miterlimit:4;stroke-dasharray:none;stroke-opacity:1"
   id="circle16884"
   r="8.2080002"
   cy="315.82986"
   cx="677.81372" /><circle
   style="fill:#008484;fill-opacity:0;stroke:#000000;stroke-width:0.75;stroke-linecap:round;stroke-linejoin:round;stroke-miterlimit:4;stroke-dasharray:none;stroke-opacity:1"
   id="circle16894"
   r="8.2080002"
   cy="315.82986"
   cx="496.39676" /><circle
   style="fill:#008484;fill-opacity:0;stroke:#000000;stroke-width:0.75;stroke-linecap:round;stroke-linejoin:round;stroke-miterlimit:4;stroke-dasharray:none;stroke-opacity:1"
   id="circle16896"
   r="25.668577"
   cy="315.82986"
   cx="802.53864" /><circle
   style="fill:#008484;fill-opacity:0;stroke:#000000;stroke-width:0.75;stroke-linecap:round;stroke-linejoin:round;stroke-miterlimit:4;stroke-dasharray:none;stroke-opacity:1"
   id="circle16900"
   r="25.668577"
   cy="315.82986"
   cx="734.5072" /><circle
   style="fill:#008484;fill-opacity:0;stroke:#000000;stroke-width:0.75;stroke-linecap:round;stroke-linejoin:round;stroke-miterlimit:4;stroke-dasharray:none;stroke-opacity:1"
   id="circle16904"
   r="25.668577"
   cy="315.82986"
   cx="621.12091" /><circle
   style="fill:#008484;fill-opacity:0;stroke:#000000;stroke-width:0.75;stroke-linecap:round;stroke-linejoin:round;stroke-miterlimit:4;stroke-dasharray:none;stroke-opacity:1"
   id="circle16908"
   r="25.668577"
   cy="315.82986"
   cx="553.08954" /><circle
   style="fill:#008484;fill-opacity:0;stroke:#000000;stroke-width:0.75;stroke-linecap:round;stroke-linejoin:round;stroke-miterlimit:4;stroke-dasharray:none;stroke-opacity:1"
   id="circle16912"
   r="25.668577"
   cy="315.82986"
   cx="439.70398" /><circle
   style="fill:#008484;fill-opacity:0;stroke:#000000;stroke-width:0.75;stroke-linecap:round;stroke-linejoin:round;stroke-miterlimit:4;stroke-dasharray:none;stroke-opacity:1"
   id="circle16916"
   r="25.668577"
   cy="315.82986"
   cx="371.67233" /><g
   style="fill:#008484;fill-opacity:1;stroke:#000000;stroke-width:104.16666412;stroke-linecap:round;stroke-linejoin:round;stroke-miterlimit:4;stroke-dasharray:none;stroke-opacity:1"
   id="g16928"
   transform="matrix(0.0072,0,0,0.0072,303.56998,264.73534)" /><g
   style="fill:#000000;fill-opacity:0;stroke:#000000;stroke-width:104.16666412;stroke-linecap:round;stroke-linejoin:round;stroke-miterlimit:4;stroke-dasharray:none;stroke-opacity:1"
   id="g17682"
   transform="matrix(0.0072,0,0,0.0072,303.56998,264.73534)" /><g
   style="fill:#c2c200;fill-opacity:0;stroke:#000000;stroke-width:104.16666412;stroke-linecap:round;stroke-linejoin:round;stroke-miterlimit:4;stroke-dasharray:none;stroke-opacity:1"
   id="g17684"
   transform="matrix(0.0072,0,0,0.0072,303.56998,264.73534)" /><circle
   style="fill:#c2c200;fill-opacity:0;stroke:#000000;stroke-width:0.75;stroke-linecap:round;stroke-linejoin:round;stroke-miterlimit:4;stroke-dasharray:none;stroke-opacity:1"
   id="circle17688"
   r="5.6692944"
   cy="276.14484"
   cx="859.23145" /><g
   style="fill:#c2c200;fill-opacity:0;stroke:#000000;stroke-width:104.16666412;stroke-linecap:round;stroke-linejoin:round;stroke-miterlimit:4;stroke-dasharray:none;stroke-opacity:1"
   id="g17696"
   transform="matrix(0.0072,0,0,0.0072,303.56998,264.73534)"><circle
     cx="77175.203"
     cy="27962.6"
     r="787.40198"
     id="circle17694"
     style="stroke:#000000;stroke-width:104.16666412;stroke-miterlimit:4;stroke-dasharray:none;stroke-opacity:1" /></g><circle
   style="fill:#c2c200;fill-opacity:0;stroke:#000000;stroke-width:0.75;stroke-linecap:round;stroke-linejoin:round;stroke-miterlimit:4;stroke-dasharray:none;stroke-opacity:1"
   id="circle17700"
   r="5.6692944"
   cy="466.06607"
   cx="314.97946" /><circle
   style="fill:#c2c200;fill-opacity:0;stroke:#000000;stroke-width:0.75;stroke-linecap:round;stroke-linejoin:round;stroke-miterlimit:4;stroke-dasharray:none;stroke-opacity:1"
   id="circle17704"
   r="5.6692944"
   cy="276.14484"
   cx="314.97946" /><g
   style="fill:#c2c200;fill-opacity:0;stroke:#000000;stroke-width:104.16666412;stroke-linecap:round;stroke-linejoin:round;stroke-miterlimit:4;stroke-dasharray:none;stroke-opacity:1"
   id="g17724"
   transform="matrix(0.0072,0,0,0.0072,303.56998,264.73534)" /><g
   style="fill:#c2c200;fill-opacity:0;stroke:#000000;stroke-width:104.16666412;stroke-linecap:round;stroke-linejoin:round;stroke-miterlimit:4;stroke-dasharray:none;stroke-opacity:1"
   id="g17726"
   transform="matrix(0.0072,0,0,0.0072,303.56998,264.73534)" /><g
   style="fill:#c2c200;fill-opacity:0;stroke:#000000;stroke-width:104.16666412;stroke-linecap:round;stroke-linejoin:round;stroke-miterlimit:4;stroke-dasharray:none;stroke-opacity:1"
   id="g17728"
   transform="matrix(0.0072,0,0,0.0072,303.56998,264.73534)" /><g
   style="fill:#c2c200;fill-opacity:0;stroke:#000000;stroke-width:104.16666412;stroke-linecap:round;stroke-linejoin:round;stroke-miterlimit:4;stroke-dasharray:none;stroke-opacity:1"
   id="g17730"
   transform="matrix(0.0072,0,0,0.0072,303.56998,264.73534)" /><g
   style="fill:#c2c200;fill-opacity:0;stroke:#000000;stroke-width:104.16666412;stroke-linecap:round;stroke-linejoin:round;stroke-miterlimit:4;stroke-dasharray:none;stroke-opacity:1"
   id="g17732"
   transform="matrix(0.0072,0,0,0.0072,303.56998,264.73534)" /><g
   style="fill:#c2c200;fill-opacity:0;stroke:#000000;stroke-width:104.16666412;stroke-linecap:round;stroke-linejoin:round;stroke-miterlimit:4;stroke-dasharray:none;stroke-opacity:1"
   id="g17734"
   transform="matrix(0.0072,0,0,0.0072,303.56998,264.73534)" /><g
   style="fill:#c2c200;fill-opacity:0;stroke:#000000;stroke-width:104.16666412;stroke-linecap:round;stroke-linejoin:round;stroke-miterlimit:4;stroke-dasharray:none;stroke-opacity:1"
   id="g17736"
   transform="matrix(0.0072,0,0,0.0072,303.56998,264.73534)" /><g
   style="fill:#c2c200;fill-opacity:0;stroke:#000000;stroke-width:104.16666412;stroke-linecap:round;stroke-linejoin:round;stroke-miterlimit:4;stroke-dasharray:none;stroke-opacity:1"
   id="g17738"
   transform="matrix(0.0072,0,0,0.0072,303.56998,264.73534)" /><g
   style="fill:#c2c200;fill-opacity:0;stroke:#000000;stroke-width:104.16666412;stroke-linecap:round;stroke-linejoin:round;stroke-miterlimit:4;stroke-dasharray:none;stroke-opacity:1"
   id="g17740"
   transform="matrix(0.0072,0,0,0.0072,303.56998,264.73534)" /><g
   style="fill:#c2c200;fill-opacity:0;stroke:#000000;stroke-width:104.16666412;stroke-linecap:round;stroke-linejoin:round;stroke-miterlimit:4;stroke-dasharray:none;stroke-opacity:1"
   id="g17742"
   transform="matrix(0.0072,0,0,0.0072,303.56998,264.73534)" /><g
   style="fill:#c2c200;fill-opacity:0;stroke:#000000;stroke-width:104.16666412;stroke-linecap:round;stroke-linejoin:round;stroke-miterlimit:4;stroke-dasharray:none;stroke-opacity:1"
   id="g17744"
   transform="matrix(0.0072,0,0,0.0072,303.56998,264.73534)" /><g
   style="fill:#c2c200;fill-opacity:0;stroke:#000000;stroke-width:104.16666412;stroke-linecap:round;stroke-linejoin:round;stroke-miterlimit:4;stroke-dasharray:none;stroke-opacity:1"
   id="g17746"
   transform="matrix(0.0072,0,0,0.0072,303.56998,264.73534)" /><g
   style="fill:#c2c200;fill-opacity:0;stroke:#000000;stroke-width:104.16666412;stroke-linecap:round;stroke-linejoin:round;stroke-miterlimit:4;stroke-dasharray:none;stroke-opacity:1"
   id="g17748"
   transform="matrix(0.0072,0,0,0.0072,303.56998,264.73534)" /><g
   style="fill:#c2c200;fill-opacity:0;stroke:#000000;stroke-width:104.16666412;stroke-linecap:round;stroke-linejoin:round;stroke-miterlimit:4;stroke-dasharray:none;stroke-opacity:1"
   id="g17750"
   transform="matrix(0.0072,0,0,0.0072,303.56998,264.73534)" /><g
   style="fill:#c2c200;fill-opacity:0;stroke:#000000;stroke-width:104.16666412;stroke-linecap:round;stroke-linejoin:round;stroke-miterlimit:4;stroke-dasharray:none;stroke-opacity:1"
   id="g17752"
   transform="matrix(0.0072,0,0,0.0072,303.56998,264.73534)" /><g
   style="fill:#c2c200;fill-opacity:0;stroke:#000000;stroke-width:104.16666412;stroke-linecap:round;stroke-linejoin:round;stroke-miterlimit:4;stroke-dasharray:none;stroke-opacity:1"
   id="g17754"
   transform="matrix(0.0072,0,0,0.0072,303.56998,264.73534)" /><g
   style="fill:#c2c200;fill-opacity:0;stroke:#000000;stroke-width:104.16666412;stroke-linecap:round;stroke-linejoin:round;stroke-miterlimit:4;stroke-dasharray:none;stroke-opacity:1"
   id="g17756"
   transform="matrix(0.0072,0,0,0.0072,303.56998,264.73534)" /><g
   style="fill:#c2c200;fill-opacity:0;stroke:#000000;stroke-width:104.16666412;stroke-linecap:round;stroke-linejoin:round;stroke-miterlimit:4;stroke-dasharray:none;stroke-opacity:1"
   id="g17758"
   transform="matrix(0.0072,0,0,0.0072,303.56998,264.73534)" /><g
   style="fill:#c2c200;fill-opacity:0;stroke:#000000;stroke-width:104.16666412;stroke-linecap:round;stroke-linejoin:round;stroke-miterlimit:4;stroke-dasharray:none;stroke-opacity:1"
   id="g17760"
   transform="matrix(0.0072,0,0,0.0072,303.56998,264.73534)" /><g
   style="fill:#c2c200;fill-opacity:0;stroke:#000000;stroke-width:104.16666412;stroke-linecap:round;stroke-linejoin:round;stroke-miterlimit:4;stroke-dasharray:none;stroke-opacity:1"
   id="g17762"
   transform="matrix(0.0072,0,0,0.0072,303.56998,264.73534)" /><g
   style="fill:#c2c200;fill-opacity:0;stroke:#000000;stroke-width:104.16666412;stroke-linecap:round;stroke-linejoin:round;stroke-miterlimit:4;stroke-dasharray:none;stroke-opacity:1"
   id="g17764"
   transform="matrix(0.0072,0,0,0.0072,303.56998,264.73534)" /><g
   style="fill:#c2c200;fill-opacity:0;stroke:#000000;stroke-width:104.16666412;stroke-linecap:round;stroke-linejoin:round;stroke-miterlimit:4;stroke-dasharray:none;stroke-opacity:1"
   id="g17766"
   transform="matrix(0.0072,0,0,0.0072,303.56998,264.73534)" /><g
   style="fill:#c2c200;fill-opacity:0;stroke:#000000;stroke-width:104.16666412;stroke-linecap:round;stroke-linejoin:round;stroke-miterlimit:4;stroke-dasharray:none;stroke-opacity:1"
   id="g17768"
   transform="matrix(0.0072,0,0,0.0072,303.56998,264.73534)" /><g
   style="fill:#c2c200;fill-opacity:0;stroke:#000000;stroke-width:104.16666412;stroke-linecap:round;stroke-linejoin:round;stroke-miterlimit:4;stroke-dasharray:none;stroke-opacity:1"
   id="g17770"
   transform="matrix(0.0072,0,0,0.0072,303.56998,264.73534)" /><g
   style="fill:#c2c200;fill-opacity:0;stroke:#000000;stroke-width:104.16666412;stroke-linecap:round;stroke-linejoin:round;stroke-miterlimit:4;stroke-dasharray:none;stroke-opacity:1"
   id="g17772"
   transform="matrix(0.0072,0,0,0.0072,303.56998,264.73534)" /><g
   style="fill:#c2c200;fill-opacity:0;stroke:#000000;stroke-width:104.16666412;stroke-linecap:round;stroke-linejoin:round;stroke-miterlimit:4;stroke-dasharray:none;stroke-opacity:1"
   id="g17774"
   transform="matrix(0.0072,0,0,0.0072,303.56998,264.73534)" /><g
   style="fill:#c2c200;fill-opacity:0;stroke:#000000;stroke-width:104.16666412;stroke-linecap:round;stroke-linejoin:round;stroke-miterlimit:4;stroke-dasharray:none;stroke-opacity:1"
   id="g17776"
   transform="matrix(0.0072,0,0,0.0072,303.56998,264.73534)" /><g
   style="fill:#c2c200;fill-opacity:0;stroke:#000000;stroke-width:104.16666412;stroke-linecap:round;stroke-linejoin:round;stroke-miterlimit:4;stroke-dasharray:none;stroke-opacity:1"
   id="g17778"
   transform="matrix(0.0072,0,0,0.0072,303.56998,264.73534)" /><g
   style="fill:#c2c200;fill-opacity:0;stroke:#000000;stroke-width:104.16666412;stroke-linecap:round;stroke-linejoin:round;stroke-miterlimit:4;stroke-dasharray:none;stroke-opacity:1"
   id="g17780"
   transform="matrix(0.0072,0,0,0.0072,303.56998,264.73534)" /><g
   style="fill:#c2c200;fill-opacity:0;stroke:#000000;stroke-width:104.16666412;stroke-linecap:round;stroke-linejoin:round;stroke-miterlimit:4;stroke-dasharray:none;stroke-opacity:1"
   id="g17782"
   transform="matrix(0.0072,0,0,0.0072,303.56998,264.73534)" /><g
   style="fill:#c2c200;fill-opacity:0;stroke:#000000;stroke-width:104.16666412;stroke-linecap:round;stroke-linejoin:round;stroke-miterlimit:4;stroke-dasharray:none;stroke-opacity:1"
   id="g17784"
   transform="matrix(0.0072,0,0,0.0072,303.56998,264.73534)" /><g
   style="fill:#c2c200;fill-opacity:0;stroke:#000000;stroke-width:104.16666412;stroke-linecap:round;stroke-linejoin:round;stroke-miterlimit:4;stroke-dasharray:none;stroke-opacity:1"
   id="g17786"
   transform="matrix(0.0072,0,0,0.0072,303.56998,264.73534)" /><g
   style="fill:#c2c200;fill-opacity:0;stroke:#000000;stroke-width:104.16666412;stroke-linecap:round;stroke-linejoin:round;stroke-miterlimit:4;stroke-dasharray:none;stroke-opacity:1"
   id="g17788"
   transform="matrix(0.0072,0,0,0.0072,303.56998,264.73534)" /><g
   style="fill:#c2c200;fill-opacity:0;stroke:#000000;stroke-width:104.16666412;stroke-linecap:round;stroke-linejoin:round;stroke-miterlimit:4;stroke-dasharray:none;stroke-opacity:1"
   id="g17790"
   transform="matrix(0.0072,0,0,0.0072,303.56998,264.73534)" /><g
   style="fill:#c2c200;fill-opacity:0;stroke:#000000;stroke-width:104.16666412;stroke-linecap:round;stroke-linejoin:round;stroke-miterlimit:4;stroke-dasharray:none;stroke-opacity:1"
   id="g17792"
   transform="matrix(0.0072,0,0,0.0072,303.56998,264.73534)" /><g
   style="fill:#c2c200;fill-opacity:0;stroke:#000000;stroke-width:104.16666412;stroke-linecap:round;stroke-linejoin:round;stroke-miterlimit:4;stroke-dasharray:none;stroke-opacity:1"
   id="g17794"
   transform="matrix(0.0072,0,0,0.0072,303.56998,264.73534)" /><g
   style="fill:#c2c200;fill-opacity:0;stroke:#000000;stroke-width:104.16666412;stroke-linecap:round;stroke-linejoin:round;stroke-miterlimit:4;stroke-dasharray:none;stroke-opacity:1"
   id="g17796"
   transform="matrix(0.0072,0,0,0.0072,303.56998,264.73534)" /><g
   style="fill:#c2c200;fill-opacity:0;stroke:#000000;stroke-width:104.16666412;stroke-linecap:round;stroke-linejoin:round;stroke-miterlimit:4;stroke-dasharray:none;stroke-opacity:1"
   id="g17798"
   transform="matrix(0.0072,0,0,0.0072,303.56998,264.73534)" /><g
   style="fill:#c2c200;fill-opacity:0;stroke:#000000;stroke-width:104.16666412;stroke-linecap:round;stroke-linejoin:round;stroke-miterlimit:4;stroke-dasharray:none;stroke-opacity:1"
   id="g17800"
   transform="matrix(0.0072,0,0,0.0072,303.56998,264.73534)" /><g
   style="fill:#c2c200;fill-opacity:0;stroke:#000000;stroke-width:104.16666412;stroke-linecap:round;stroke-linejoin:round;stroke-miterlimit:4;stroke-dasharray:none;stroke-opacity:1"
   id="g17802"
   transform="matrix(0.0072,0,0,0.0072,303.56998,264.73534)" /><g
   style="fill:#c2c200;fill-opacity:0;stroke:#000000;stroke-width:104.16666412;stroke-linecap:round;stroke-linejoin:round;stroke-miterlimit:4;stroke-dasharray:none;stroke-opacity:1"
   id="g17804"
   transform="matrix(0.0072,0,0,0.0072,303.56998,264.73534)" /><g
   style="fill:#c2c200;fill-opacity:0;stroke:#000000;stroke-width:104.16666412;stroke-linecap:round;stroke-linejoin:round;stroke-miterlimit:4;stroke-dasharray:none;stroke-opacity:1"
   id="g17806"
   transform="matrix(0.0072,0,0,0.0072,303.56998,264.73534)" /></svg>