G04 #@! TF.GenerationSoftware,KiCad,Pcbnew,5.1.5+dfsg1-2build2*
G04 #@! TF.CreationDate,2020-07-19T22:13:21-05:00*
G04 #@! TF.ProjectId,pi-nixie,70692d6e-6978-4696-952e-6b696361645f,rev?*
G04 #@! TF.SameCoordinates,Original*
G04 #@! TF.FileFunction,Copper,L1,Top*
G04 #@! TF.FilePolarity,Positive*
%FSLAX46Y46*%
G04 Gerber Fmt 4.6, Leading zero omitted, Abs format (unit mm)*
G04 Created by KiCad (PCBNEW 5.1.5+dfsg1-2build2) date 2020-07-19 22:13:21*
%MOMM*%
%LPD*%
G04 APERTURE LIST*
%ADD10O,1.600000X1.600000*%
%ADD11C,1.600000*%
%ADD12R,1.500000X0.520000*%
%ADD13R,0.520000X1.500000*%
%ADD14R,1.600000X1.600000*%
%ADD15C,0.100000*%
%ADD16C,1.500000*%
%ADD17C,2.000000*%
%ADD18O,1.700000X1.700000*%
%ADD19R,1.700000X1.700000*%
%ADD20C,3.500120*%
%ADD21R,3.500120X3.500120*%
%ADD22C,1.000000*%
%ADD23C,6.200000*%
%ADD24R,1.500000X1.000000*%
%ADD25C,0.800000*%
%ADD26C,0.250000*%
%ADD27C,0.600000*%
%ADD28C,0.500000*%
%ADD29C,2.000000*%
%ADD30C,1.000000*%
G04 APERTURE END LIST*
D10*
X93080000Y-5000000D03*
D11*
X82920000Y-5000000D03*
D12*
X136050000Y-30000000D03*
X136050000Y-30800000D03*
X136050000Y-31600000D03*
X136050000Y-32400000D03*
X136050000Y-33200000D03*
X136050000Y-34000000D03*
X136050000Y-34800000D03*
X136050000Y-35600000D03*
X136050000Y-36400000D03*
X136050000Y-37200000D03*
X136050000Y-38000000D03*
D13*
X134000000Y-40050000D03*
X133200000Y-40050000D03*
X132400000Y-40050000D03*
X131600000Y-40050000D03*
X130800000Y-40050000D03*
X130000000Y-40050000D03*
X129200000Y-40050000D03*
X128400000Y-40050000D03*
X127600000Y-40050000D03*
X126800000Y-40050000D03*
X126000000Y-40050000D03*
D12*
X123950000Y-38000000D03*
X123950000Y-37200000D03*
X123950000Y-36400000D03*
X123950000Y-35600000D03*
X123950000Y-34800000D03*
X123950000Y-34000000D03*
X123950000Y-33200000D03*
X123950000Y-32400000D03*
X123950000Y-31600000D03*
X123950000Y-30800000D03*
X123950000Y-30000000D03*
D13*
X126000000Y-27950000D03*
X126800000Y-27950000D03*
X127600000Y-27950000D03*
X128400000Y-27950000D03*
X129200000Y-27950000D03*
X130000000Y-27950000D03*
X130800000Y-27950000D03*
X131600000Y-27950000D03*
X132400000Y-27950000D03*
X133200000Y-27950000D03*
X134000000Y-27950000D03*
D12*
X73050000Y-30000000D03*
X73050000Y-30800000D03*
X73050000Y-31600000D03*
X73050000Y-32400000D03*
X73050000Y-33200000D03*
X73050000Y-34000000D03*
X73050000Y-34800000D03*
X73050000Y-35600000D03*
X73050000Y-36400000D03*
X73050000Y-37200000D03*
X73050000Y-38000000D03*
D13*
X71000000Y-40050000D03*
X70200000Y-40050000D03*
X69400000Y-40050000D03*
X68600000Y-40050000D03*
X67800000Y-40050000D03*
X67000000Y-40050000D03*
X66200000Y-40050000D03*
X65400000Y-40050000D03*
X64600000Y-40050000D03*
X63800000Y-40050000D03*
X63000000Y-40050000D03*
D12*
X60950000Y-38000000D03*
X60950000Y-37200000D03*
X60950000Y-36400000D03*
X60950000Y-35600000D03*
X60950000Y-34800000D03*
X60950000Y-34000000D03*
X60950000Y-33200000D03*
X60950000Y-32400000D03*
X60950000Y-31600000D03*
X60950000Y-30800000D03*
X60950000Y-30000000D03*
D13*
X63000000Y-27950000D03*
X63800000Y-27950000D03*
X64600000Y-27950000D03*
X65400000Y-27950000D03*
X66200000Y-27950000D03*
X67000000Y-27950000D03*
X67800000Y-27950000D03*
X68600000Y-27950000D03*
X69400000Y-27950000D03*
X70200000Y-27950000D03*
X71000000Y-27950000D03*
D11*
X143750000Y-63175000D03*
D14*
X143750000Y-66675000D03*
D11*
X172725000Y-44825000D03*
D14*
X170225000Y-44825000D03*
G04 #@! TA.AperFunction,SMDPad,CuDef*
D15*
G36*
X182299504Y-43576204D02*
G01*
X182323773Y-43579804D01*
X182347571Y-43585765D01*
X182370671Y-43594030D01*
X182392849Y-43604520D01*
X182413893Y-43617133D01*
X182433598Y-43631747D01*
X182451777Y-43648223D01*
X182468253Y-43666402D01*
X182482867Y-43686107D01*
X182495480Y-43707151D01*
X182505970Y-43729329D01*
X182514235Y-43752429D01*
X182520196Y-43776227D01*
X182523796Y-43800496D01*
X182525000Y-43825000D01*
X182525000Y-44750000D01*
X182523796Y-44774504D01*
X182520196Y-44798773D01*
X182514235Y-44822571D01*
X182505970Y-44845671D01*
X182495480Y-44867849D01*
X182482867Y-44888893D01*
X182468253Y-44908598D01*
X182451777Y-44926777D01*
X182433598Y-44943253D01*
X182413893Y-44957867D01*
X182392849Y-44970480D01*
X182370671Y-44980970D01*
X182347571Y-44989235D01*
X182323773Y-44995196D01*
X182299504Y-44998796D01*
X182275000Y-45000000D01*
X181025000Y-45000000D01*
X181000496Y-44998796D01*
X180976227Y-44995196D01*
X180952429Y-44989235D01*
X180929329Y-44980970D01*
X180907151Y-44970480D01*
X180886107Y-44957867D01*
X180866402Y-44943253D01*
X180848223Y-44926777D01*
X180831747Y-44908598D01*
X180817133Y-44888893D01*
X180804520Y-44867849D01*
X180794030Y-44845671D01*
X180785765Y-44822571D01*
X180779804Y-44798773D01*
X180776204Y-44774504D01*
X180775000Y-44750000D01*
X180775000Y-43825000D01*
X180776204Y-43800496D01*
X180779804Y-43776227D01*
X180785765Y-43752429D01*
X180794030Y-43729329D01*
X180804520Y-43707151D01*
X180817133Y-43686107D01*
X180831747Y-43666402D01*
X180848223Y-43648223D01*
X180866402Y-43631747D01*
X180886107Y-43617133D01*
X180907151Y-43604520D01*
X180929329Y-43594030D01*
X180952429Y-43585765D01*
X180976227Y-43579804D01*
X181000496Y-43576204D01*
X181025000Y-43575000D01*
X182275000Y-43575000D01*
X182299504Y-43576204D01*
G37*
G04 #@! TD.AperFunction*
G04 #@! TA.AperFunction,SMDPad,CuDef*
G36*
X182299504Y-46551204D02*
G01*
X182323773Y-46554804D01*
X182347571Y-46560765D01*
X182370671Y-46569030D01*
X182392849Y-46579520D01*
X182413893Y-46592133D01*
X182433598Y-46606747D01*
X182451777Y-46623223D01*
X182468253Y-46641402D01*
X182482867Y-46661107D01*
X182495480Y-46682151D01*
X182505970Y-46704329D01*
X182514235Y-46727429D01*
X182520196Y-46751227D01*
X182523796Y-46775496D01*
X182525000Y-46800000D01*
X182525000Y-47725000D01*
X182523796Y-47749504D01*
X182520196Y-47773773D01*
X182514235Y-47797571D01*
X182505970Y-47820671D01*
X182495480Y-47842849D01*
X182482867Y-47863893D01*
X182468253Y-47883598D01*
X182451777Y-47901777D01*
X182433598Y-47918253D01*
X182413893Y-47932867D01*
X182392849Y-47945480D01*
X182370671Y-47955970D01*
X182347571Y-47964235D01*
X182323773Y-47970196D01*
X182299504Y-47973796D01*
X182275000Y-47975000D01*
X181025000Y-47975000D01*
X181000496Y-47973796D01*
X180976227Y-47970196D01*
X180952429Y-47964235D01*
X180929329Y-47955970D01*
X180907151Y-47945480D01*
X180886107Y-47932867D01*
X180866402Y-47918253D01*
X180848223Y-47901777D01*
X180831747Y-47883598D01*
X180817133Y-47863893D01*
X180804520Y-47842849D01*
X180794030Y-47820671D01*
X180785765Y-47797571D01*
X180779804Y-47773773D01*
X180776204Y-47749504D01*
X180775000Y-47725000D01*
X180775000Y-46800000D01*
X180776204Y-46775496D01*
X180779804Y-46751227D01*
X180785765Y-46727429D01*
X180794030Y-46704329D01*
X180804520Y-46682151D01*
X180817133Y-46661107D01*
X180831747Y-46641402D01*
X180848223Y-46623223D01*
X180866402Y-46606747D01*
X180886107Y-46592133D01*
X180907151Y-46579520D01*
X180929329Y-46569030D01*
X180952429Y-46560765D01*
X180976227Y-46554804D01*
X181000496Y-46551204D01*
X181025000Y-46550000D01*
X182275000Y-46550000D01*
X182299504Y-46551204D01*
G37*
G04 #@! TD.AperFunction*
D16*
X184200000Y-65735000D03*
D17*
X157530000Y-52275000D03*
X160070000Y-52275000D03*
X170230000Y-52275000D03*
X172770000Y-52275000D03*
X175310000Y-52275000D03*
X177850000Y-52275000D03*
X181660000Y-52275000D03*
X184200000Y-52275000D03*
D18*
X9380000Y-22300000D03*
X6840000Y-22300000D03*
D19*
X4300000Y-22300000D03*
D20*
X175305000Y-70675000D03*
D21*
X170225000Y-70675000D03*
D22*
X88700000Y-61350000D03*
X88700000Y-63250000D03*
G04 #@! TA.AperFunction,SMDPad,CuDef*
D15*
G36*
X81614703Y-62230722D02*
G01*
X81629264Y-62232882D01*
X81643543Y-62236459D01*
X81657403Y-62241418D01*
X81670710Y-62247712D01*
X81683336Y-62255280D01*
X81695159Y-62264048D01*
X81706066Y-62273934D01*
X81715952Y-62284841D01*
X81724720Y-62296664D01*
X81732288Y-62309290D01*
X81738582Y-62322597D01*
X81743541Y-62336457D01*
X81747118Y-62350736D01*
X81749278Y-62365297D01*
X81750000Y-62380000D01*
X81750000Y-62680000D01*
X81749278Y-62694703D01*
X81747118Y-62709264D01*
X81743541Y-62723543D01*
X81738582Y-62737403D01*
X81732288Y-62750710D01*
X81724720Y-62763336D01*
X81715952Y-62775159D01*
X81706066Y-62786066D01*
X81695159Y-62795952D01*
X81683336Y-62804720D01*
X81670710Y-62812288D01*
X81657403Y-62818582D01*
X81643543Y-62823541D01*
X81629264Y-62827118D01*
X81614703Y-62829278D01*
X81600000Y-62830000D01*
X80150000Y-62830000D01*
X80135297Y-62829278D01*
X80120736Y-62827118D01*
X80106457Y-62823541D01*
X80092597Y-62818582D01*
X80079290Y-62812288D01*
X80066664Y-62804720D01*
X80054841Y-62795952D01*
X80043934Y-62786066D01*
X80034048Y-62775159D01*
X80025280Y-62763336D01*
X80017712Y-62750710D01*
X80011418Y-62737403D01*
X80006459Y-62723543D01*
X80002882Y-62709264D01*
X80000722Y-62694703D01*
X80000000Y-62680000D01*
X80000000Y-62380000D01*
X80000722Y-62365297D01*
X80002882Y-62350736D01*
X80006459Y-62336457D01*
X80011418Y-62322597D01*
X80017712Y-62309290D01*
X80025280Y-62296664D01*
X80034048Y-62284841D01*
X80043934Y-62273934D01*
X80054841Y-62264048D01*
X80066664Y-62255280D01*
X80079290Y-62247712D01*
X80092597Y-62241418D01*
X80106457Y-62236459D01*
X80120736Y-62232882D01*
X80135297Y-62230722D01*
X80150000Y-62230000D01*
X81600000Y-62230000D01*
X81614703Y-62230722D01*
G37*
G04 #@! TD.AperFunction*
G04 #@! TA.AperFunction,SMDPad,CuDef*
G36*
X81614703Y-60960722D02*
G01*
X81629264Y-60962882D01*
X81643543Y-60966459D01*
X81657403Y-60971418D01*
X81670710Y-60977712D01*
X81683336Y-60985280D01*
X81695159Y-60994048D01*
X81706066Y-61003934D01*
X81715952Y-61014841D01*
X81724720Y-61026664D01*
X81732288Y-61039290D01*
X81738582Y-61052597D01*
X81743541Y-61066457D01*
X81747118Y-61080736D01*
X81749278Y-61095297D01*
X81750000Y-61110000D01*
X81750000Y-61410000D01*
X81749278Y-61424703D01*
X81747118Y-61439264D01*
X81743541Y-61453543D01*
X81738582Y-61467403D01*
X81732288Y-61480710D01*
X81724720Y-61493336D01*
X81715952Y-61505159D01*
X81706066Y-61516066D01*
X81695159Y-61525952D01*
X81683336Y-61534720D01*
X81670710Y-61542288D01*
X81657403Y-61548582D01*
X81643543Y-61553541D01*
X81629264Y-61557118D01*
X81614703Y-61559278D01*
X81600000Y-61560000D01*
X80150000Y-61560000D01*
X80135297Y-61559278D01*
X80120736Y-61557118D01*
X80106457Y-61553541D01*
X80092597Y-61548582D01*
X80079290Y-61542288D01*
X80066664Y-61534720D01*
X80054841Y-61525952D01*
X80043934Y-61516066D01*
X80034048Y-61505159D01*
X80025280Y-61493336D01*
X80017712Y-61480710D01*
X80011418Y-61467403D01*
X80006459Y-61453543D01*
X80002882Y-61439264D01*
X80000722Y-61424703D01*
X80000000Y-61410000D01*
X80000000Y-61110000D01*
X80000722Y-61095297D01*
X80002882Y-61080736D01*
X80006459Y-61066457D01*
X80011418Y-61052597D01*
X80017712Y-61039290D01*
X80025280Y-61026664D01*
X80034048Y-61014841D01*
X80043934Y-61003934D01*
X80054841Y-60994048D01*
X80066664Y-60985280D01*
X80079290Y-60977712D01*
X80092597Y-60971418D01*
X80106457Y-60966459D01*
X80120736Y-60962882D01*
X80135297Y-60960722D01*
X80150000Y-60960000D01*
X81600000Y-60960000D01*
X81614703Y-60960722D01*
G37*
G04 #@! TD.AperFunction*
G04 #@! TA.AperFunction,SMDPad,CuDef*
G36*
X81614703Y-59690722D02*
G01*
X81629264Y-59692882D01*
X81643543Y-59696459D01*
X81657403Y-59701418D01*
X81670710Y-59707712D01*
X81683336Y-59715280D01*
X81695159Y-59724048D01*
X81706066Y-59733934D01*
X81715952Y-59744841D01*
X81724720Y-59756664D01*
X81732288Y-59769290D01*
X81738582Y-59782597D01*
X81743541Y-59796457D01*
X81747118Y-59810736D01*
X81749278Y-59825297D01*
X81750000Y-59840000D01*
X81750000Y-60140000D01*
X81749278Y-60154703D01*
X81747118Y-60169264D01*
X81743541Y-60183543D01*
X81738582Y-60197403D01*
X81732288Y-60210710D01*
X81724720Y-60223336D01*
X81715952Y-60235159D01*
X81706066Y-60246066D01*
X81695159Y-60255952D01*
X81683336Y-60264720D01*
X81670710Y-60272288D01*
X81657403Y-60278582D01*
X81643543Y-60283541D01*
X81629264Y-60287118D01*
X81614703Y-60289278D01*
X81600000Y-60290000D01*
X80150000Y-60290000D01*
X80135297Y-60289278D01*
X80120736Y-60287118D01*
X80106457Y-60283541D01*
X80092597Y-60278582D01*
X80079290Y-60272288D01*
X80066664Y-60264720D01*
X80054841Y-60255952D01*
X80043934Y-60246066D01*
X80034048Y-60235159D01*
X80025280Y-60223336D01*
X80017712Y-60210710D01*
X80011418Y-60197403D01*
X80006459Y-60183543D01*
X80002882Y-60169264D01*
X80000722Y-60154703D01*
X80000000Y-60140000D01*
X80000000Y-59840000D01*
X80000722Y-59825297D01*
X80002882Y-59810736D01*
X80006459Y-59796457D01*
X80011418Y-59782597D01*
X80017712Y-59769290D01*
X80025280Y-59756664D01*
X80034048Y-59744841D01*
X80043934Y-59733934D01*
X80054841Y-59724048D01*
X80066664Y-59715280D01*
X80079290Y-59707712D01*
X80092597Y-59701418D01*
X80106457Y-59696459D01*
X80120736Y-59692882D01*
X80135297Y-59690722D01*
X80150000Y-59690000D01*
X81600000Y-59690000D01*
X81614703Y-59690722D01*
G37*
G04 #@! TD.AperFunction*
G04 #@! TA.AperFunction,SMDPad,CuDef*
G36*
X81614703Y-58420722D02*
G01*
X81629264Y-58422882D01*
X81643543Y-58426459D01*
X81657403Y-58431418D01*
X81670710Y-58437712D01*
X81683336Y-58445280D01*
X81695159Y-58454048D01*
X81706066Y-58463934D01*
X81715952Y-58474841D01*
X81724720Y-58486664D01*
X81732288Y-58499290D01*
X81738582Y-58512597D01*
X81743541Y-58526457D01*
X81747118Y-58540736D01*
X81749278Y-58555297D01*
X81750000Y-58570000D01*
X81750000Y-58870000D01*
X81749278Y-58884703D01*
X81747118Y-58899264D01*
X81743541Y-58913543D01*
X81738582Y-58927403D01*
X81732288Y-58940710D01*
X81724720Y-58953336D01*
X81715952Y-58965159D01*
X81706066Y-58976066D01*
X81695159Y-58985952D01*
X81683336Y-58994720D01*
X81670710Y-59002288D01*
X81657403Y-59008582D01*
X81643543Y-59013541D01*
X81629264Y-59017118D01*
X81614703Y-59019278D01*
X81600000Y-59020000D01*
X80150000Y-59020000D01*
X80135297Y-59019278D01*
X80120736Y-59017118D01*
X80106457Y-59013541D01*
X80092597Y-59008582D01*
X80079290Y-59002288D01*
X80066664Y-58994720D01*
X80054841Y-58985952D01*
X80043934Y-58976066D01*
X80034048Y-58965159D01*
X80025280Y-58953336D01*
X80017712Y-58940710D01*
X80011418Y-58927403D01*
X80006459Y-58913543D01*
X80002882Y-58899264D01*
X80000722Y-58884703D01*
X80000000Y-58870000D01*
X80000000Y-58570000D01*
X80000722Y-58555297D01*
X80002882Y-58540736D01*
X80006459Y-58526457D01*
X80011418Y-58512597D01*
X80017712Y-58499290D01*
X80025280Y-58486664D01*
X80034048Y-58474841D01*
X80043934Y-58463934D01*
X80054841Y-58454048D01*
X80066664Y-58445280D01*
X80079290Y-58437712D01*
X80092597Y-58431418D01*
X80106457Y-58426459D01*
X80120736Y-58422882D01*
X80135297Y-58420722D01*
X80150000Y-58420000D01*
X81600000Y-58420000D01*
X81614703Y-58420722D01*
G37*
G04 #@! TD.AperFunction*
G04 #@! TA.AperFunction,SMDPad,CuDef*
G36*
X86764703Y-58420722D02*
G01*
X86779264Y-58422882D01*
X86793543Y-58426459D01*
X86807403Y-58431418D01*
X86820710Y-58437712D01*
X86833336Y-58445280D01*
X86845159Y-58454048D01*
X86856066Y-58463934D01*
X86865952Y-58474841D01*
X86874720Y-58486664D01*
X86882288Y-58499290D01*
X86888582Y-58512597D01*
X86893541Y-58526457D01*
X86897118Y-58540736D01*
X86899278Y-58555297D01*
X86900000Y-58570000D01*
X86900000Y-58870000D01*
X86899278Y-58884703D01*
X86897118Y-58899264D01*
X86893541Y-58913543D01*
X86888582Y-58927403D01*
X86882288Y-58940710D01*
X86874720Y-58953336D01*
X86865952Y-58965159D01*
X86856066Y-58976066D01*
X86845159Y-58985952D01*
X86833336Y-58994720D01*
X86820710Y-59002288D01*
X86807403Y-59008582D01*
X86793543Y-59013541D01*
X86779264Y-59017118D01*
X86764703Y-59019278D01*
X86750000Y-59020000D01*
X85300000Y-59020000D01*
X85285297Y-59019278D01*
X85270736Y-59017118D01*
X85256457Y-59013541D01*
X85242597Y-59008582D01*
X85229290Y-59002288D01*
X85216664Y-58994720D01*
X85204841Y-58985952D01*
X85193934Y-58976066D01*
X85184048Y-58965159D01*
X85175280Y-58953336D01*
X85167712Y-58940710D01*
X85161418Y-58927403D01*
X85156459Y-58913543D01*
X85152882Y-58899264D01*
X85150722Y-58884703D01*
X85150000Y-58870000D01*
X85150000Y-58570000D01*
X85150722Y-58555297D01*
X85152882Y-58540736D01*
X85156459Y-58526457D01*
X85161418Y-58512597D01*
X85167712Y-58499290D01*
X85175280Y-58486664D01*
X85184048Y-58474841D01*
X85193934Y-58463934D01*
X85204841Y-58454048D01*
X85216664Y-58445280D01*
X85229290Y-58437712D01*
X85242597Y-58431418D01*
X85256457Y-58426459D01*
X85270736Y-58422882D01*
X85285297Y-58420722D01*
X85300000Y-58420000D01*
X86750000Y-58420000D01*
X86764703Y-58420722D01*
G37*
G04 #@! TD.AperFunction*
G04 #@! TA.AperFunction,SMDPad,CuDef*
G36*
X86764703Y-59690722D02*
G01*
X86779264Y-59692882D01*
X86793543Y-59696459D01*
X86807403Y-59701418D01*
X86820710Y-59707712D01*
X86833336Y-59715280D01*
X86845159Y-59724048D01*
X86856066Y-59733934D01*
X86865952Y-59744841D01*
X86874720Y-59756664D01*
X86882288Y-59769290D01*
X86888582Y-59782597D01*
X86893541Y-59796457D01*
X86897118Y-59810736D01*
X86899278Y-59825297D01*
X86900000Y-59840000D01*
X86900000Y-60140000D01*
X86899278Y-60154703D01*
X86897118Y-60169264D01*
X86893541Y-60183543D01*
X86888582Y-60197403D01*
X86882288Y-60210710D01*
X86874720Y-60223336D01*
X86865952Y-60235159D01*
X86856066Y-60246066D01*
X86845159Y-60255952D01*
X86833336Y-60264720D01*
X86820710Y-60272288D01*
X86807403Y-60278582D01*
X86793543Y-60283541D01*
X86779264Y-60287118D01*
X86764703Y-60289278D01*
X86750000Y-60290000D01*
X85300000Y-60290000D01*
X85285297Y-60289278D01*
X85270736Y-60287118D01*
X85256457Y-60283541D01*
X85242597Y-60278582D01*
X85229290Y-60272288D01*
X85216664Y-60264720D01*
X85204841Y-60255952D01*
X85193934Y-60246066D01*
X85184048Y-60235159D01*
X85175280Y-60223336D01*
X85167712Y-60210710D01*
X85161418Y-60197403D01*
X85156459Y-60183543D01*
X85152882Y-60169264D01*
X85150722Y-60154703D01*
X85150000Y-60140000D01*
X85150000Y-59840000D01*
X85150722Y-59825297D01*
X85152882Y-59810736D01*
X85156459Y-59796457D01*
X85161418Y-59782597D01*
X85167712Y-59769290D01*
X85175280Y-59756664D01*
X85184048Y-59744841D01*
X85193934Y-59733934D01*
X85204841Y-59724048D01*
X85216664Y-59715280D01*
X85229290Y-59707712D01*
X85242597Y-59701418D01*
X85256457Y-59696459D01*
X85270736Y-59692882D01*
X85285297Y-59690722D01*
X85300000Y-59690000D01*
X86750000Y-59690000D01*
X86764703Y-59690722D01*
G37*
G04 #@! TD.AperFunction*
G04 #@! TA.AperFunction,SMDPad,CuDef*
G36*
X86764703Y-60960722D02*
G01*
X86779264Y-60962882D01*
X86793543Y-60966459D01*
X86807403Y-60971418D01*
X86820710Y-60977712D01*
X86833336Y-60985280D01*
X86845159Y-60994048D01*
X86856066Y-61003934D01*
X86865952Y-61014841D01*
X86874720Y-61026664D01*
X86882288Y-61039290D01*
X86888582Y-61052597D01*
X86893541Y-61066457D01*
X86897118Y-61080736D01*
X86899278Y-61095297D01*
X86900000Y-61110000D01*
X86900000Y-61410000D01*
X86899278Y-61424703D01*
X86897118Y-61439264D01*
X86893541Y-61453543D01*
X86888582Y-61467403D01*
X86882288Y-61480710D01*
X86874720Y-61493336D01*
X86865952Y-61505159D01*
X86856066Y-61516066D01*
X86845159Y-61525952D01*
X86833336Y-61534720D01*
X86820710Y-61542288D01*
X86807403Y-61548582D01*
X86793543Y-61553541D01*
X86779264Y-61557118D01*
X86764703Y-61559278D01*
X86750000Y-61560000D01*
X85300000Y-61560000D01*
X85285297Y-61559278D01*
X85270736Y-61557118D01*
X85256457Y-61553541D01*
X85242597Y-61548582D01*
X85229290Y-61542288D01*
X85216664Y-61534720D01*
X85204841Y-61525952D01*
X85193934Y-61516066D01*
X85184048Y-61505159D01*
X85175280Y-61493336D01*
X85167712Y-61480710D01*
X85161418Y-61467403D01*
X85156459Y-61453543D01*
X85152882Y-61439264D01*
X85150722Y-61424703D01*
X85150000Y-61410000D01*
X85150000Y-61110000D01*
X85150722Y-61095297D01*
X85152882Y-61080736D01*
X85156459Y-61066457D01*
X85161418Y-61052597D01*
X85167712Y-61039290D01*
X85175280Y-61026664D01*
X85184048Y-61014841D01*
X85193934Y-61003934D01*
X85204841Y-60994048D01*
X85216664Y-60985280D01*
X85229290Y-60977712D01*
X85242597Y-60971418D01*
X85256457Y-60966459D01*
X85270736Y-60962882D01*
X85285297Y-60960722D01*
X85300000Y-60960000D01*
X86750000Y-60960000D01*
X86764703Y-60960722D01*
G37*
G04 #@! TD.AperFunction*
G04 #@! TA.AperFunction,SMDPad,CuDef*
G36*
X86764703Y-62230722D02*
G01*
X86779264Y-62232882D01*
X86793543Y-62236459D01*
X86807403Y-62241418D01*
X86820710Y-62247712D01*
X86833336Y-62255280D01*
X86845159Y-62264048D01*
X86856066Y-62273934D01*
X86865952Y-62284841D01*
X86874720Y-62296664D01*
X86882288Y-62309290D01*
X86888582Y-62322597D01*
X86893541Y-62336457D01*
X86897118Y-62350736D01*
X86899278Y-62365297D01*
X86900000Y-62380000D01*
X86900000Y-62680000D01*
X86899278Y-62694703D01*
X86897118Y-62709264D01*
X86893541Y-62723543D01*
X86888582Y-62737403D01*
X86882288Y-62750710D01*
X86874720Y-62763336D01*
X86865952Y-62775159D01*
X86856066Y-62786066D01*
X86845159Y-62795952D01*
X86833336Y-62804720D01*
X86820710Y-62812288D01*
X86807403Y-62818582D01*
X86793543Y-62823541D01*
X86779264Y-62827118D01*
X86764703Y-62829278D01*
X86750000Y-62830000D01*
X85300000Y-62830000D01*
X85285297Y-62829278D01*
X85270736Y-62827118D01*
X85256457Y-62823541D01*
X85242597Y-62818582D01*
X85229290Y-62812288D01*
X85216664Y-62804720D01*
X85204841Y-62795952D01*
X85193934Y-62786066D01*
X85184048Y-62775159D01*
X85175280Y-62763336D01*
X85167712Y-62750710D01*
X85161418Y-62737403D01*
X85156459Y-62723543D01*
X85152882Y-62709264D01*
X85150722Y-62694703D01*
X85150000Y-62680000D01*
X85150000Y-62380000D01*
X85150722Y-62365297D01*
X85152882Y-62350736D01*
X85156459Y-62336457D01*
X85161418Y-62322597D01*
X85167712Y-62309290D01*
X85175280Y-62296664D01*
X85184048Y-62284841D01*
X85193934Y-62273934D01*
X85204841Y-62264048D01*
X85216664Y-62255280D01*
X85229290Y-62247712D01*
X85242597Y-62241418D01*
X85256457Y-62236459D01*
X85270736Y-62232882D01*
X85285297Y-62230722D01*
X85300000Y-62230000D01*
X86750000Y-62230000D01*
X86764703Y-62230722D01*
G37*
G04 #@! TD.AperFunction*
G04 #@! TA.AperFunction,SMDPad,CuDef*
G36*
X74074504Y-59151204D02*
G01*
X74098773Y-59154804D01*
X74122571Y-59160765D01*
X74145671Y-59169030D01*
X74167849Y-59179520D01*
X74188893Y-59192133D01*
X74208598Y-59206747D01*
X74226777Y-59223223D01*
X74243253Y-59241402D01*
X74257867Y-59261107D01*
X74270480Y-59282151D01*
X74280970Y-59304329D01*
X74289235Y-59327429D01*
X74295196Y-59351227D01*
X74298796Y-59375496D01*
X74300000Y-59400000D01*
X74300000Y-60325000D01*
X74298796Y-60349504D01*
X74295196Y-60373773D01*
X74289235Y-60397571D01*
X74280970Y-60420671D01*
X74270480Y-60442849D01*
X74257867Y-60463893D01*
X74243253Y-60483598D01*
X74226777Y-60501777D01*
X74208598Y-60518253D01*
X74188893Y-60532867D01*
X74167849Y-60545480D01*
X74145671Y-60555970D01*
X74122571Y-60564235D01*
X74098773Y-60570196D01*
X74074504Y-60573796D01*
X74050000Y-60575000D01*
X72800000Y-60575000D01*
X72775496Y-60573796D01*
X72751227Y-60570196D01*
X72727429Y-60564235D01*
X72704329Y-60555970D01*
X72682151Y-60545480D01*
X72661107Y-60532867D01*
X72641402Y-60518253D01*
X72623223Y-60501777D01*
X72606747Y-60483598D01*
X72592133Y-60463893D01*
X72579520Y-60442849D01*
X72569030Y-60420671D01*
X72560765Y-60397571D01*
X72554804Y-60373773D01*
X72551204Y-60349504D01*
X72550000Y-60325000D01*
X72550000Y-59400000D01*
X72551204Y-59375496D01*
X72554804Y-59351227D01*
X72560765Y-59327429D01*
X72569030Y-59304329D01*
X72579520Y-59282151D01*
X72592133Y-59261107D01*
X72606747Y-59241402D01*
X72623223Y-59223223D01*
X72641402Y-59206747D01*
X72661107Y-59192133D01*
X72682151Y-59179520D01*
X72704329Y-59169030D01*
X72727429Y-59160765D01*
X72751227Y-59154804D01*
X72775496Y-59151204D01*
X72800000Y-59150000D01*
X74050000Y-59150000D01*
X74074504Y-59151204D01*
G37*
G04 #@! TD.AperFunction*
G04 #@! TA.AperFunction,SMDPad,CuDef*
G36*
X74074504Y-56176204D02*
G01*
X74098773Y-56179804D01*
X74122571Y-56185765D01*
X74145671Y-56194030D01*
X74167849Y-56204520D01*
X74188893Y-56217133D01*
X74208598Y-56231747D01*
X74226777Y-56248223D01*
X74243253Y-56266402D01*
X74257867Y-56286107D01*
X74270480Y-56307151D01*
X74280970Y-56329329D01*
X74289235Y-56352429D01*
X74295196Y-56376227D01*
X74298796Y-56400496D01*
X74300000Y-56425000D01*
X74300000Y-57350000D01*
X74298796Y-57374504D01*
X74295196Y-57398773D01*
X74289235Y-57422571D01*
X74280970Y-57445671D01*
X74270480Y-57467849D01*
X74257867Y-57488893D01*
X74243253Y-57508598D01*
X74226777Y-57526777D01*
X74208598Y-57543253D01*
X74188893Y-57557867D01*
X74167849Y-57570480D01*
X74145671Y-57580970D01*
X74122571Y-57589235D01*
X74098773Y-57595196D01*
X74074504Y-57598796D01*
X74050000Y-57600000D01*
X72800000Y-57600000D01*
X72775496Y-57598796D01*
X72751227Y-57595196D01*
X72727429Y-57589235D01*
X72704329Y-57580970D01*
X72682151Y-57570480D01*
X72661107Y-57557867D01*
X72641402Y-57543253D01*
X72623223Y-57526777D01*
X72606747Y-57508598D01*
X72592133Y-57488893D01*
X72579520Y-57467849D01*
X72569030Y-57445671D01*
X72560765Y-57422571D01*
X72554804Y-57398773D01*
X72551204Y-57374504D01*
X72550000Y-57350000D01*
X72550000Y-56425000D01*
X72551204Y-56400496D01*
X72554804Y-56376227D01*
X72560765Y-56352429D01*
X72569030Y-56329329D01*
X72579520Y-56307151D01*
X72592133Y-56286107D01*
X72606747Y-56266402D01*
X72623223Y-56248223D01*
X72641402Y-56231747D01*
X72661107Y-56217133D01*
X72682151Y-56204520D01*
X72704329Y-56194030D01*
X72727429Y-56185765D01*
X72751227Y-56179804D01*
X72775496Y-56176204D01*
X72800000Y-56175000D01*
X74050000Y-56175000D01*
X74074504Y-56176204D01*
G37*
G04 #@! TD.AperFunction*
G04 #@! TA.AperFunction,SMDPad,CuDef*
G36*
X77774504Y-59151204D02*
G01*
X77798773Y-59154804D01*
X77822571Y-59160765D01*
X77845671Y-59169030D01*
X77867849Y-59179520D01*
X77888893Y-59192133D01*
X77908598Y-59206747D01*
X77926777Y-59223223D01*
X77943253Y-59241402D01*
X77957867Y-59261107D01*
X77970480Y-59282151D01*
X77980970Y-59304329D01*
X77989235Y-59327429D01*
X77995196Y-59351227D01*
X77998796Y-59375496D01*
X78000000Y-59400000D01*
X78000000Y-60325000D01*
X77998796Y-60349504D01*
X77995196Y-60373773D01*
X77989235Y-60397571D01*
X77980970Y-60420671D01*
X77970480Y-60442849D01*
X77957867Y-60463893D01*
X77943253Y-60483598D01*
X77926777Y-60501777D01*
X77908598Y-60518253D01*
X77888893Y-60532867D01*
X77867849Y-60545480D01*
X77845671Y-60555970D01*
X77822571Y-60564235D01*
X77798773Y-60570196D01*
X77774504Y-60573796D01*
X77750000Y-60575000D01*
X76500000Y-60575000D01*
X76475496Y-60573796D01*
X76451227Y-60570196D01*
X76427429Y-60564235D01*
X76404329Y-60555970D01*
X76382151Y-60545480D01*
X76361107Y-60532867D01*
X76341402Y-60518253D01*
X76323223Y-60501777D01*
X76306747Y-60483598D01*
X76292133Y-60463893D01*
X76279520Y-60442849D01*
X76269030Y-60420671D01*
X76260765Y-60397571D01*
X76254804Y-60373773D01*
X76251204Y-60349504D01*
X76250000Y-60325000D01*
X76250000Y-59400000D01*
X76251204Y-59375496D01*
X76254804Y-59351227D01*
X76260765Y-59327429D01*
X76269030Y-59304329D01*
X76279520Y-59282151D01*
X76292133Y-59261107D01*
X76306747Y-59241402D01*
X76323223Y-59223223D01*
X76341402Y-59206747D01*
X76361107Y-59192133D01*
X76382151Y-59179520D01*
X76404329Y-59169030D01*
X76427429Y-59160765D01*
X76451227Y-59154804D01*
X76475496Y-59151204D01*
X76500000Y-59150000D01*
X77750000Y-59150000D01*
X77774504Y-59151204D01*
G37*
G04 #@! TD.AperFunction*
G04 #@! TA.AperFunction,SMDPad,CuDef*
G36*
X77774504Y-56176204D02*
G01*
X77798773Y-56179804D01*
X77822571Y-56185765D01*
X77845671Y-56194030D01*
X77867849Y-56204520D01*
X77888893Y-56217133D01*
X77908598Y-56231747D01*
X77926777Y-56248223D01*
X77943253Y-56266402D01*
X77957867Y-56286107D01*
X77970480Y-56307151D01*
X77980970Y-56329329D01*
X77989235Y-56352429D01*
X77995196Y-56376227D01*
X77998796Y-56400496D01*
X78000000Y-56425000D01*
X78000000Y-57350000D01*
X77998796Y-57374504D01*
X77995196Y-57398773D01*
X77989235Y-57422571D01*
X77980970Y-57445671D01*
X77970480Y-57467849D01*
X77957867Y-57488893D01*
X77943253Y-57508598D01*
X77926777Y-57526777D01*
X77908598Y-57543253D01*
X77888893Y-57557867D01*
X77867849Y-57570480D01*
X77845671Y-57580970D01*
X77822571Y-57589235D01*
X77798773Y-57595196D01*
X77774504Y-57598796D01*
X77750000Y-57600000D01*
X76500000Y-57600000D01*
X76475496Y-57598796D01*
X76451227Y-57595196D01*
X76427429Y-57589235D01*
X76404329Y-57580970D01*
X76382151Y-57570480D01*
X76361107Y-57557867D01*
X76341402Y-57543253D01*
X76323223Y-57526777D01*
X76306747Y-57508598D01*
X76292133Y-57488893D01*
X76279520Y-57467849D01*
X76269030Y-57445671D01*
X76260765Y-57422571D01*
X76254804Y-57398773D01*
X76251204Y-57374504D01*
X76250000Y-57350000D01*
X76250000Y-56425000D01*
X76251204Y-56400496D01*
X76254804Y-56376227D01*
X76260765Y-56352429D01*
X76269030Y-56329329D01*
X76279520Y-56307151D01*
X76292133Y-56286107D01*
X76306747Y-56266402D01*
X76323223Y-56248223D01*
X76341402Y-56231747D01*
X76361107Y-56217133D01*
X76382151Y-56204520D01*
X76404329Y-56194030D01*
X76427429Y-56185765D01*
X76451227Y-56179804D01*
X76475496Y-56176204D01*
X76500000Y-56175000D01*
X77750000Y-56175000D01*
X77774504Y-56176204D01*
G37*
G04 #@! TD.AperFunction*
G04 #@! TA.AperFunction,SMDPad,CuDef*
G36*
X104595977Y-40450662D02*
G01*
X104609325Y-40452642D01*
X104622414Y-40455921D01*
X104635119Y-40460467D01*
X104647317Y-40466236D01*
X104658891Y-40473173D01*
X104669729Y-40481211D01*
X104679727Y-40490273D01*
X104688789Y-40500271D01*
X104696827Y-40511109D01*
X104703764Y-40522683D01*
X104709533Y-40534881D01*
X104714079Y-40547586D01*
X104717358Y-40560675D01*
X104719338Y-40574023D01*
X104720000Y-40587500D01*
X104720000Y-41912500D01*
X104719338Y-41925977D01*
X104717358Y-41939325D01*
X104714079Y-41952414D01*
X104709533Y-41965119D01*
X104703764Y-41977317D01*
X104696827Y-41988891D01*
X104688789Y-41999729D01*
X104679727Y-42009727D01*
X104669729Y-42018789D01*
X104658891Y-42026827D01*
X104647317Y-42033764D01*
X104635119Y-42039533D01*
X104622414Y-42044079D01*
X104609325Y-42047358D01*
X104595977Y-42049338D01*
X104582500Y-42050000D01*
X104307500Y-42050000D01*
X104294023Y-42049338D01*
X104280675Y-42047358D01*
X104267586Y-42044079D01*
X104254881Y-42039533D01*
X104242683Y-42033764D01*
X104231109Y-42026827D01*
X104220271Y-42018789D01*
X104210273Y-42009727D01*
X104201211Y-41999729D01*
X104193173Y-41988891D01*
X104186236Y-41977317D01*
X104180467Y-41965119D01*
X104175921Y-41952414D01*
X104172642Y-41939325D01*
X104170662Y-41925977D01*
X104170000Y-41912500D01*
X104170000Y-40587500D01*
X104170662Y-40574023D01*
X104172642Y-40560675D01*
X104175921Y-40547586D01*
X104180467Y-40534881D01*
X104186236Y-40522683D01*
X104193173Y-40511109D01*
X104201211Y-40500271D01*
X104210273Y-40490273D01*
X104220271Y-40481211D01*
X104231109Y-40473173D01*
X104242683Y-40466236D01*
X104254881Y-40460467D01*
X104267586Y-40455921D01*
X104280675Y-40452642D01*
X104294023Y-40450662D01*
X104307500Y-40450000D01*
X104582500Y-40450000D01*
X104595977Y-40450662D01*
G37*
G04 #@! TD.AperFunction*
G04 #@! TA.AperFunction,SMDPad,CuDef*
G36*
X103325977Y-40450662D02*
G01*
X103339325Y-40452642D01*
X103352414Y-40455921D01*
X103365119Y-40460467D01*
X103377317Y-40466236D01*
X103388891Y-40473173D01*
X103399729Y-40481211D01*
X103409727Y-40490273D01*
X103418789Y-40500271D01*
X103426827Y-40511109D01*
X103433764Y-40522683D01*
X103439533Y-40534881D01*
X103444079Y-40547586D01*
X103447358Y-40560675D01*
X103449338Y-40574023D01*
X103450000Y-40587500D01*
X103450000Y-41912500D01*
X103449338Y-41925977D01*
X103447358Y-41939325D01*
X103444079Y-41952414D01*
X103439533Y-41965119D01*
X103433764Y-41977317D01*
X103426827Y-41988891D01*
X103418789Y-41999729D01*
X103409727Y-42009727D01*
X103399729Y-42018789D01*
X103388891Y-42026827D01*
X103377317Y-42033764D01*
X103365119Y-42039533D01*
X103352414Y-42044079D01*
X103339325Y-42047358D01*
X103325977Y-42049338D01*
X103312500Y-42050000D01*
X103037500Y-42050000D01*
X103024023Y-42049338D01*
X103010675Y-42047358D01*
X102997586Y-42044079D01*
X102984881Y-42039533D01*
X102972683Y-42033764D01*
X102961109Y-42026827D01*
X102950271Y-42018789D01*
X102940273Y-42009727D01*
X102931211Y-41999729D01*
X102923173Y-41988891D01*
X102916236Y-41977317D01*
X102910467Y-41965119D01*
X102905921Y-41952414D01*
X102902642Y-41939325D01*
X102900662Y-41925977D01*
X102900000Y-41912500D01*
X102900000Y-40587500D01*
X102900662Y-40574023D01*
X102902642Y-40560675D01*
X102905921Y-40547586D01*
X102910467Y-40534881D01*
X102916236Y-40522683D01*
X102923173Y-40511109D01*
X102931211Y-40500271D01*
X102940273Y-40490273D01*
X102950271Y-40481211D01*
X102961109Y-40473173D01*
X102972683Y-40466236D01*
X102984881Y-40460467D01*
X102997586Y-40455921D01*
X103010675Y-40452642D01*
X103024023Y-40450662D01*
X103037500Y-40450000D01*
X103312500Y-40450000D01*
X103325977Y-40450662D01*
G37*
G04 #@! TD.AperFunction*
G04 #@! TA.AperFunction,SMDPad,CuDef*
G36*
X102055977Y-40450662D02*
G01*
X102069325Y-40452642D01*
X102082414Y-40455921D01*
X102095119Y-40460467D01*
X102107317Y-40466236D01*
X102118891Y-40473173D01*
X102129729Y-40481211D01*
X102139727Y-40490273D01*
X102148789Y-40500271D01*
X102156827Y-40511109D01*
X102163764Y-40522683D01*
X102169533Y-40534881D01*
X102174079Y-40547586D01*
X102177358Y-40560675D01*
X102179338Y-40574023D01*
X102180000Y-40587500D01*
X102180000Y-41912500D01*
X102179338Y-41925977D01*
X102177358Y-41939325D01*
X102174079Y-41952414D01*
X102169533Y-41965119D01*
X102163764Y-41977317D01*
X102156827Y-41988891D01*
X102148789Y-41999729D01*
X102139727Y-42009727D01*
X102129729Y-42018789D01*
X102118891Y-42026827D01*
X102107317Y-42033764D01*
X102095119Y-42039533D01*
X102082414Y-42044079D01*
X102069325Y-42047358D01*
X102055977Y-42049338D01*
X102042500Y-42050000D01*
X101767500Y-42050000D01*
X101754023Y-42049338D01*
X101740675Y-42047358D01*
X101727586Y-42044079D01*
X101714881Y-42039533D01*
X101702683Y-42033764D01*
X101691109Y-42026827D01*
X101680271Y-42018789D01*
X101670273Y-42009727D01*
X101661211Y-41999729D01*
X101653173Y-41988891D01*
X101646236Y-41977317D01*
X101640467Y-41965119D01*
X101635921Y-41952414D01*
X101632642Y-41939325D01*
X101630662Y-41925977D01*
X101630000Y-41912500D01*
X101630000Y-40587500D01*
X101630662Y-40574023D01*
X101632642Y-40560675D01*
X101635921Y-40547586D01*
X101640467Y-40534881D01*
X101646236Y-40522683D01*
X101653173Y-40511109D01*
X101661211Y-40500271D01*
X101670273Y-40490273D01*
X101680271Y-40481211D01*
X101691109Y-40473173D01*
X101702683Y-40466236D01*
X101714881Y-40460467D01*
X101727586Y-40455921D01*
X101740675Y-40452642D01*
X101754023Y-40450662D01*
X101767500Y-40450000D01*
X102042500Y-40450000D01*
X102055977Y-40450662D01*
G37*
G04 #@! TD.AperFunction*
G04 #@! TA.AperFunction,SMDPad,CuDef*
G36*
X100785977Y-40450662D02*
G01*
X100799325Y-40452642D01*
X100812414Y-40455921D01*
X100825119Y-40460467D01*
X100837317Y-40466236D01*
X100848891Y-40473173D01*
X100859729Y-40481211D01*
X100869727Y-40490273D01*
X100878789Y-40500271D01*
X100886827Y-40511109D01*
X100893764Y-40522683D01*
X100899533Y-40534881D01*
X100904079Y-40547586D01*
X100907358Y-40560675D01*
X100909338Y-40574023D01*
X100910000Y-40587500D01*
X100910000Y-41912500D01*
X100909338Y-41925977D01*
X100907358Y-41939325D01*
X100904079Y-41952414D01*
X100899533Y-41965119D01*
X100893764Y-41977317D01*
X100886827Y-41988891D01*
X100878789Y-41999729D01*
X100869727Y-42009727D01*
X100859729Y-42018789D01*
X100848891Y-42026827D01*
X100837317Y-42033764D01*
X100825119Y-42039533D01*
X100812414Y-42044079D01*
X100799325Y-42047358D01*
X100785977Y-42049338D01*
X100772500Y-42050000D01*
X100497500Y-42050000D01*
X100484023Y-42049338D01*
X100470675Y-42047358D01*
X100457586Y-42044079D01*
X100444881Y-42039533D01*
X100432683Y-42033764D01*
X100421109Y-42026827D01*
X100410271Y-42018789D01*
X100400273Y-42009727D01*
X100391211Y-41999729D01*
X100383173Y-41988891D01*
X100376236Y-41977317D01*
X100370467Y-41965119D01*
X100365921Y-41952414D01*
X100362642Y-41939325D01*
X100360662Y-41925977D01*
X100360000Y-41912500D01*
X100360000Y-40587500D01*
X100360662Y-40574023D01*
X100362642Y-40560675D01*
X100365921Y-40547586D01*
X100370467Y-40534881D01*
X100376236Y-40522683D01*
X100383173Y-40511109D01*
X100391211Y-40500271D01*
X100400273Y-40490273D01*
X100410271Y-40481211D01*
X100421109Y-40473173D01*
X100432683Y-40466236D01*
X100444881Y-40460467D01*
X100457586Y-40455921D01*
X100470675Y-40452642D01*
X100484023Y-40450662D01*
X100497500Y-40450000D01*
X100772500Y-40450000D01*
X100785977Y-40450662D01*
G37*
G04 #@! TD.AperFunction*
G04 #@! TA.AperFunction,SMDPad,CuDef*
G36*
X99515977Y-40450662D02*
G01*
X99529325Y-40452642D01*
X99542414Y-40455921D01*
X99555119Y-40460467D01*
X99567317Y-40466236D01*
X99578891Y-40473173D01*
X99589729Y-40481211D01*
X99599727Y-40490273D01*
X99608789Y-40500271D01*
X99616827Y-40511109D01*
X99623764Y-40522683D01*
X99629533Y-40534881D01*
X99634079Y-40547586D01*
X99637358Y-40560675D01*
X99639338Y-40574023D01*
X99640000Y-40587500D01*
X99640000Y-41912500D01*
X99639338Y-41925977D01*
X99637358Y-41939325D01*
X99634079Y-41952414D01*
X99629533Y-41965119D01*
X99623764Y-41977317D01*
X99616827Y-41988891D01*
X99608789Y-41999729D01*
X99599727Y-42009727D01*
X99589729Y-42018789D01*
X99578891Y-42026827D01*
X99567317Y-42033764D01*
X99555119Y-42039533D01*
X99542414Y-42044079D01*
X99529325Y-42047358D01*
X99515977Y-42049338D01*
X99502500Y-42050000D01*
X99227500Y-42050000D01*
X99214023Y-42049338D01*
X99200675Y-42047358D01*
X99187586Y-42044079D01*
X99174881Y-42039533D01*
X99162683Y-42033764D01*
X99151109Y-42026827D01*
X99140271Y-42018789D01*
X99130273Y-42009727D01*
X99121211Y-41999729D01*
X99113173Y-41988891D01*
X99106236Y-41977317D01*
X99100467Y-41965119D01*
X99095921Y-41952414D01*
X99092642Y-41939325D01*
X99090662Y-41925977D01*
X99090000Y-41912500D01*
X99090000Y-40587500D01*
X99090662Y-40574023D01*
X99092642Y-40560675D01*
X99095921Y-40547586D01*
X99100467Y-40534881D01*
X99106236Y-40522683D01*
X99113173Y-40511109D01*
X99121211Y-40500271D01*
X99130273Y-40490273D01*
X99140271Y-40481211D01*
X99151109Y-40473173D01*
X99162683Y-40466236D01*
X99174881Y-40460467D01*
X99187586Y-40455921D01*
X99200675Y-40452642D01*
X99214023Y-40450662D01*
X99227500Y-40450000D01*
X99502500Y-40450000D01*
X99515977Y-40450662D01*
G37*
G04 #@! TD.AperFunction*
G04 #@! TA.AperFunction,SMDPad,CuDef*
G36*
X98245977Y-40450662D02*
G01*
X98259325Y-40452642D01*
X98272414Y-40455921D01*
X98285119Y-40460467D01*
X98297317Y-40466236D01*
X98308891Y-40473173D01*
X98319729Y-40481211D01*
X98329727Y-40490273D01*
X98338789Y-40500271D01*
X98346827Y-40511109D01*
X98353764Y-40522683D01*
X98359533Y-40534881D01*
X98364079Y-40547586D01*
X98367358Y-40560675D01*
X98369338Y-40574023D01*
X98370000Y-40587500D01*
X98370000Y-41912500D01*
X98369338Y-41925977D01*
X98367358Y-41939325D01*
X98364079Y-41952414D01*
X98359533Y-41965119D01*
X98353764Y-41977317D01*
X98346827Y-41988891D01*
X98338789Y-41999729D01*
X98329727Y-42009727D01*
X98319729Y-42018789D01*
X98308891Y-42026827D01*
X98297317Y-42033764D01*
X98285119Y-42039533D01*
X98272414Y-42044079D01*
X98259325Y-42047358D01*
X98245977Y-42049338D01*
X98232500Y-42050000D01*
X97957500Y-42050000D01*
X97944023Y-42049338D01*
X97930675Y-42047358D01*
X97917586Y-42044079D01*
X97904881Y-42039533D01*
X97892683Y-42033764D01*
X97881109Y-42026827D01*
X97870271Y-42018789D01*
X97860273Y-42009727D01*
X97851211Y-41999729D01*
X97843173Y-41988891D01*
X97836236Y-41977317D01*
X97830467Y-41965119D01*
X97825921Y-41952414D01*
X97822642Y-41939325D01*
X97820662Y-41925977D01*
X97820000Y-41912500D01*
X97820000Y-40587500D01*
X97820662Y-40574023D01*
X97822642Y-40560675D01*
X97825921Y-40547586D01*
X97830467Y-40534881D01*
X97836236Y-40522683D01*
X97843173Y-40511109D01*
X97851211Y-40500271D01*
X97860273Y-40490273D01*
X97870271Y-40481211D01*
X97881109Y-40473173D01*
X97892683Y-40466236D01*
X97904881Y-40460467D01*
X97917586Y-40455921D01*
X97930675Y-40452642D01*
X97944023Y-40450662D01*
X97957500Y-40450000D01*
X98232500Y-40450000D01*
X98245977Y-40450662D01*
G37*
G04 #@! TD.AperFunction*
G04 #@! TA.AperFunction,SMDPad,CuDef*
G36*
X96975977Y-40450662D02*
G01*
X96989325Y-40452642D01*
X97002414Y-40455921D01*
X97015119Y-40460467D01*
X97027317Y-40466236D01*
X97038891Y-40473173D01*
X97049729Y-40481211D01*
X97059727Y-40490273D01*
X97068789Y-40500271D01*
X97076827Y-40511109D01*
X97083764Y-40522683D01*
X97089533Y-40534881D01*
X97094079Y-40547586D01*
X97097358Y-40560675D01*
X97099338Y-40574023D01*
X97100000Y-40587500D01*
X97100000Y-41912500D01*
X97099338Y-41925977D01*
X97097358Y-41939325D01*
X97094079Y-41952414D01*
X97089533Y-41965119D01*
X97083764Y-41977317D01*
X97076827Y-41988891D01*
X97068789Y-41999729D01*
X97059727Y-42009727D01*
X97049729Y-42018789D01*
X97038891Y-42026827D01*
X97027317Y-42033764D01*
X97015119Y-42039533D01*
X97002414Y-42044079D01*
X96989325Y-42047358D01*
X96975977Y-42049338D01*
X96962500Y-42050000D01*
X96687500Y-42050000D01*
X96674023Y-42049338D01*
X96660675Y-42047358D01*
X96647586Y-42044079D01*
X96634881Y-42039533D01*
X96622683Y-42033764D01*
X96611109Y-42026827D01*
X96600271Y-42018789D01*
X96590273Y-42009727D01*
X96581211Y-41999729D01*
X96573173Y-41988891D01*
X96566236Y-41977317D01*
X96560467Y-41965119D01*
X96555921Y-41952414D01*
X96552642Y-41939325D01*
X96550662Y-41925977D01*
X96550000Y-41912500D01*
X96550000Y-40587500D01*
X96550662Y-40574023D01*
X96552642Y-40560675D01*
X96555921Y-40547586D01*
X96560467Y-40534881D01*
X96566236Y-40522683D01*
X96573173Y-40511109D01*
X96581211Y-40500271D01*
X96590273Y-40490273D01*
X96600271Y-40481211D01*
X96611109Y-40473173D01*
X96622683Y-40466236D01*
X96634881Y-40460467D01*
X96647586Y-40455921D01*
X96660675Y-40452642D01*
X96674023Y-40450662D01*
X96687500Y-40450000D01*
X96962500Y-40450000D01*
X96975977Y-40450662D01*
G37*
G04 #@! TD.AperFunction*
G04 #@! TA.AperFunction,SMDPad,CuDef*
G36*
X95705977Y-40450662D02*
G01*
X95719325Y-40452642D01*
X95732414Y-40455921D01*
X95745119Y-40460467D01*
X95757317Y-40466236D01*
X95768891Y-40473173D01*
X95779729Y-40481211D01*
X95789727Y-40490273D01*
X95798789Y-40500271D01*
X95806827Y-40511109D01*
X95813764Y-40522683D01*
X95819533Y-40534881D01*
X95824079Y-40547586D01*
X95827358Y-40560675D01*
X95829338Y-40574023D01*
X95830000Y-40587500D01*
X95830000Y-41912500D01*
X95829338Y-41925977D01*
X95827358Y-41939325D01*
X95824079Y-41952414D01*
X95819533Y-41965119D01*
X95813764Y-41977317D01*
X95806827Y-41988891D01*
X95798789Y-41999729D01*
X95789727Y-42009727D01*
X95779729Y-42018789D01*
X95768891Y-42026827D01*
X95757317Y-42033764D01*
X95745119Y-42039533D01*
X95732414Y-42044079D01*
X95719325Y-42047358D01*
X95705977Y-42049338D01*
X95692500Y-42050000D01*
X95417500Y-42050000D01*
X95404023Y-42049338D01*
X95390675Y-42047358D01*
X95377586Y-42044079D01*
X95364881Y-42039533D01*
X95352683Y-42033764D01*
X95341109Y-42026827D01*
X95330271Y-42018789D01*
X95320273Y-42009727D01*
X95311211Y-41999729D01*
X95303173Y-41988891D01*
X95296236Y-41977317D01*
X95290467Y-41965119D01*
X95285921Y-41952414D01*
X95282642Y-41939325D01*
X95280662Y-41925977D01*
X95280000Y-41912500D01*
X95280000Y-40587500D01*
X95280662Y-40574023D01*
X95282642Y-40560675D01*
X95285921Y-40547586D01*
X95290467Y-40534881D01*
X95296236Y-40522683D01*
X95303173Y-40511109D01*
X95311211Y-40500271D01*
X95320273Y-40490273D01*
X95330271Y-40481211D01*
X95341109Y-40473173D01*
X95352683Y-40466236D01*
X95364881Y-40460467D01*
X95377586Y-40455921D01*
X95390675Y-40452642D01*
X95404023Y-40450662D01*
X95417500Y-40450000D01*
X95692500Y-40450000D01*
X95705977Y-40450662D01*
G37*
G04 #@! TD.AperFunction*
G04 #@! TA.AperFunction,SMDPad,CuDef*
G36*
X95705977Y-33950662D02*
G01*
X95719325Y-33952642D01*
X95732414Y-33955921D01*
X95745119Y-33960467D01*
X95757317Y-33966236D01*
X95768891Y-33973173D01*
X95779729Y-33981211D01*
X95789727Y-33990273D01*
X95798789Y-34000271D01*
X95806827Y-34011109D01*
X95813764Y-34022683D01*
X95819533Y-34034881D01*
X95824079Y-34047586D01*
X95827358Y-34060675D01*
X95829338Y-34074023D01*
X95830000Y-34087500D01*
X95830000Y-35412500D01*
X95829338Y-35425977D01*
X95827358Y-35439325D01*
X95824079Y-35452414D01*
X95819533Y-35465119D01*
X95813764Y-35477317D01*
X95806827Y-35488891D01*
X95798789Y-35499729D01*
X95789727Y-35509727D01*
X95779729Y-35518789D01*
X95768891Y-35526827D01*
X95757317Y-35533764D01*
X95745119Y-35539533D01*
X95732414Y-35544079D01*
X95719325Y-35547358D01*
X95705977Y-35549338D01*
X95692500Y-35550000D01*
X95417500Y-35550000D01*
X95404023Y-35549338D01*
X95390675Y-35547358D01*
X95377586Y-35544079D01*
X95364881Y-35539533D01*
X95352683Y-35533764D01*
X95341109Y-35526827D01*
X95330271Y-35518789D01*
X95320273Y-35509727D01*
X95311211Y-35499729D01*
X95303173Y-35488891D01*
X95296236Y-35477317D01*
X95290467Y-35465119D01*
X95285921Y-35452414D01*
X95282642Y-35439325D01*
X95280662Y-35425977D01*
X95280000Y-35412500D01*
X95280000Y-34087500D01*
X95280662Y-34074023D01*
X95282642Y-34060675D01*
X95285921Y-34047586D01*
X95290467Y-34034881D01*
X95296236Y-34022683D01*
X95303173Y-34011109D01*
X95311211Y-34000271D01*
X95320273Y-33990273D01*
X95330271Y-33981211D01*
X95341109Y-33973173D01*
X95352683Y-33966236D01*
X95364881Y-33960467D01*
X95377586Y-33955921D01*
X95390675Y-33952642D01*
X95404023Y-33950662D01*
X95417500Y-33950000D01*
X95692500Y-33950000D01*
X95705977Y-33950662D01*
G37*
G04 #@! TD.AperFunction*
G04 #@! TA.AperFunction,SMDPad,CuDef*
G36*
X96975977Y-33950662D02*
G01*
X96989325Y-33952642D01*
X97002414Y-33955921D01*
X97015119Y-33960467D01*
X97027317Y-33966236D01*
X97038891Y-33973173D01*
X97049729Y-33981211D01*
X97059727Y-33990273D01*
X97068789Y-34000271D01*
X97076827Y-34011109D01*
X97083764Y-34022683D01*
X97089533Y-34034881D01*
X97094079Y-34047586D01*
X97097358Y-34060675D01*
X97099338Y-34074023D01*
X97100000Y-34087500D01*
X97100000Y-35412500D01*
X97099338Y-35425977D01*
X97097358Y-35439325D01*
X97094079Y-35452414D01*
X97089533Y-35465119D01*
X97083764Y-35477317D01*
X97076827Y-35488891D01*
X97068789Y-35499729D01*
X97059727Y-35509727D01*
X97049729Y-35518789D01*
X97038891Y-35526827D01*
X97027317Y-35533764D01*
X97015119Y-35539533D01*
X97002414Y-35544079D01*
X96989325Y-35547358D01*
X96975977Y-35549338D01*
X96962500Y-35550000D01*
X96687500Y-35550000D01*
X96674023Y-35549338D01*
X96660675Y-35547358D01*
X96647586Y-35544079D01*
X96634881Y-35539533D01*
X96622683Y-35533764D01*
X96611109Y-35526827D01*
X96600271Y-35518789D01*
X96590273Y-35509727D01*
X96581211Y-35499729D01*
X96573173Y-35488891D01*
X96566236Y-35477317D01*
X96560467Y-35465119D01*
X96555921Y-35452414D01*
X96552642Y-35439325D01*
X96550662Y-35425977D01*
X96550000Y-35412500D01*
X96550000Y-34087500D01*
X96550662Y-34074023D01*
X96552642Y-34060675D01*
X96555921Y-34047586D01*
X96560467Y-34034881D01*
X96566236Y-34022683D01*
X96573173Y-34011109D01*
X96581211Y-34000271D01*
X96590273Y-33990273D01*
X96600271Y-33981211D01*
X96611109Y-33973173D01*
X96622683Y-33966236D01*
X96634881Y-33960467D01*
X96647586Y-33955921D01*
X96660675Y-33952642D01*
X96674023Y-33950662D01*
X96687500Y-33950000D01*
X96962500Y-33950000D01*
X96975977Y-33950662D01*
G37*
G04 #@! TD.AperFunction*
G04 #@! TA.AperFunction,SMDPad,CuDef*
G36*
X98245977Y-33950662D02*
G01*
X98259325Y-33952642D01*
X98272414Y-33955921D01*
X98285119Y-33960467D01*
X98297317Y-33966236D01*
X98308891Y-33973173D01*
X98319729Y-33981211D01*
X98329727Y-33990273D01*
X98338789Y-34000271D01*
X98346827Y-34011109D01*
X98353764Y-34022683D01*
X98359533Y-34034881D01*
X98364079Y-34047586D01*
X98367358Y-34060675D01*
X98369338Y-34074023D01*
X98370000Y-34087500D01*
X98370000Y-35412500D01*
X98369338Y-35425977D01*
X98367358Y-35439325D01*
X98364079Y-35452414D01*
X98359533Y-35465119D01*
X98353764Y-35477317D01*
X98346827Y-35488891D01*
X98338789Y-35499729D01*
X98329727Y-35509727D01*
X98319729Y-35518789D01*
X98308891Y-35526827D01*
X98297317Y-35533764D01*
X98285119Y-35539533D01*
X98272414Y-35544079D01*
X98259325Y-35547358D01*
X98245977Y-35549338D01*
X98232500Y-35550000D01*
X97957500Y-35550000D01*
X97944023Y-35549338D01*
X97930675Y-35547358D01*
X97917586Y-35544079D01*
X97904881Y-35539533D01*
X97892683Y-35533764D01*
X97881109Y-35526827D01*
X97870271Y-35518789D01*
X97860273Y-35509727D01*
X97851211Y-35499729D01*
X97843173Y-35488891D01*
X97836236Y-35477317D01*
X97830467Y-35465119D01*
X97825921Y-35452414D01*
X97822642Y-35439325D01*
X97820662Y-35425977D01*
X97820000Y-35412500D01*
X97820000Y-34087500D01*
X97820662Y-34074023D01*
X97822642Y-34060675D01*
X97825921Y-34047586D01*
X97830467Y-34034881D01*
X97836236Y-34022683D01*
X97843173Y-34011109D01*
X97851211Y-34000271D01*
X97860273Y-33990273D01*
X97870271Y-33981211D01*
X97881109Y-33973173D01*
X97892683Y-33966236D01*
X97904881Y-33960467D01*
X97917586Y-33955921D01*
X97930675Y-33952642D01*
X97944023Y-33950662D01*
X97957500Y-33950000D01*
X98232500Y-33950000D01*
X98245977Y-33950662D01*
G37*
G04 #@! TD.AperFunction*
G04 #@! TA.AperFunction,SMDPad,CuDef*
G36*
X99515977Y-33950662D02*
G01*
X99529325Y-33952642D01*
X99542414Y-33955921D01*
X99555119Y-33960467D01*
X99567317Y-33966236D01*
X99578891Y-33973173D01*
X99589729Y-33981211D01*
X99599727Y-33990273D01*
X99608789Y-34000271D01*
X99616827Y-34011109D01*
X99623764Y-34022683D01*
X99629533Y-34034881D01*
X99634079Y-34047586D01*
X99637358Y-34060675D01*
X99639338Y-34074023D01*
X99640000Y-34087500D01*
X99640000Y-35412500D01*
X99639338Y-35425977D01*
X99637358Y-35439325D01*
X99634079Y-35452414D01*
X99629533Y-35465119D01*
X99623764Y-35477317D01*
X99616827Y-35488891D01*
X99608789Y-35499729D01*
X99599727Y-35509727D01*
X99589729Y-35518789D01*
X99578891Y-35526827D01*
X99567317Y-35533764D01*
X99555119Y-35539533D01*
X99542414Y-35544079D01*
X99529325Y-35547358D01*
X99515977Y-35549338D01*
X99502500Y-35550000D01*
X99227500Y-35550000D01*
X99214023Y-35549338D01*
X99200675Y-35547358D01*
X99187586Y-35544079D01*
X99174881Y-35539533D01*
X99162683Y-35533764D01*
X99151109Y-35526827D01*
X99140271Y-35518789D01*
X99130273Y-35509727D01*
X99121211Y-35499729D01*
X99113173Y-35488891D01*
X99106236Y-35477317D01*
X99100467Y-35465119D01*
X99095921Y-35452414D01*
X99092642Y-35439325D01*
X99090662Y-35425977D01*
X99090000Y-35412500D01*
X99090000Y-34087500D01*
X99090662Y-34074023D01*
X99092642Y-34060675D01*
X99095921Y-34047586D01*
X99100467Y-34034881D01*
X99106236Y-34022683D01*
X99113173Y-34011109D01*
X99121211Y-34000271D01*
X99130273Y-33990273D01*
X99140271Y-33981211D01*
X99151109Y-33973173D01*
X99162683Y-33966236D01*
X99174881Y-33960467D01*
X99187586Y-33955921D01*
X99200675Y-33952642D01*
X99214023Y-33950662D01*
X99227500Y-33950000D01*
X99502500Y-33950000D01*
X99515977Y-33950662D01*
G37*
G04 #@! TD.AperFunction*
G04 #@! TA.AperFunction,SMDPad,CuDef*
G36*
X100785977Y-33950662D02*
G01*
X100799325Y-33952642D01*
X100812414Y-33955921D01*
X100825119Y-33960467D01*
X100837317Y-33966236D01*
X100848891Y-33973173D01*
X100859729Y-33981211D01*
X100869727Y-33990273D01*
X100878789Y-34000271D01*
X100886827Y-34011109D01*
X100893764Y-34022683D01*
X100899533Y-34034881D01*
X100904079Y-34047586D01*
X100907358Y-34060675D01*
X100909338Y-34074023D01*
X100910000Y-34087500D01*
X100910000Y-35412500D01*
X100909338Y-35425977D01*
X100907358Y-35439325D01*
X100904079Y-35452414D01*
X100899533Y-35465119D01*
X100893764Y-35477317D01*
X100886827Y-35488891D01*
X100878789Y-35499729D01*
X100869727Y-35509727D01*
X100859729Y-35518789D01*
X100848891Y-35526827D01*
X100837317Y-35533764D01*
X100825119Y-35539533D01*
X100812414Y-35544079D01*
X100799325Y-35547358D01*
X100785977Y-35549338D01*
X100772500Y-35550000D01*
X100497500Y-35550000D01*
X100484023Y-35549338D01*
X100470675Y-35547358D01*
X100457586Y-35544079D01*
X100444881Y-35539533D01*
X100432683Y-35533764D01*
X100421109Y-35526827D01*
X100410271Y-35518789D01*
X100400273Y-35509727D01*
X100391211Y-35499729D01*
X100383173Y-35488891D01*
X100376236Y-35477317D01*
X100370467Y-35465119D01*
X100365921Y-35452414D01*
X100362642Y-35439325D01*
X100360662Y-35425977D01*
X100360000Y-35412500D01*
X100360000Y-34087500D01*
X100360662Y-34074023D01*
X100362642Y-34060675D01*
X100365921Y-34047586D01*
X100370467Y-34034881D01*
X100376236Y-34022683D01*
X100383173Y-34011109D01*
X100391211Y-34000271D01*
X100400273Y-33990273D01*
X100410271Y-33981211D01*
X100421109Y-33973173D01*
X100432683Y-33966236D01*
X100444881Y-33960467D01*
X100457586Y-33955921D01*
X100470675Y-33952642D01*
X100484023Y-33950662D01*
X100497500Y-33950000D01*
X100772500Y-33950000D01*
X100785977Y-33950662D01*
G37*
G04 #@! TD.AperFunction*
G04 #@! TA.AperFunction,SMDPad,CuDef*
G36*
X102055977Y-33950662D02*
G01*
X102069325Y-33952642D01*
X102082414Y-33955921D01*
X102095119Y-33960467D01*
X102107317Y-33966236D01*
X102118891Y-33973173D01*
X102129729Y-33981211D01*
X102139727Y-33990273D01*
X102148789Y-34000271D01*
X102156827Y-34011109D01*
X102163764Y-34022683D01*
X102169533Y-34034881D01*
X102174079Y-34047586D01*
X102177358Y-34060675D01*
X102179338Y-34074023D01*
X102180000Y-34087500D01*
X102180000Y-35412500D01*
X102179338Y-35425977D01*
X102177358Y-35439325D01*
X102174079Y-35452414D01*
X102169533Y-35465119D01*
X102163764Y-35477317D01*
X102156827Y-35488891D01*
X102148789Y-35499729D01*
X102139727Y-35509727D01*
X102129729Y-35518789D01*
X102118891Y-35526827D01*
X102107317Y-35533764D01*
X102095119Y-35539533D01*
X102082414Y-35544079D01*
X102069325Y-35547358D01*
X102055977Y-35549338D01*
X102042500Y-35550000D01*
X101767500Y-35550000D01*
X101754023Y-35549338D01*
X101740675Y-35547358D01*
X101727586Y-35544079D01*
X101714881Y-35539533D01*
X101702683Y-35533764D01*
X101691109Y-35526827D01*
X101680271Y-35518789D01*
X101670273Y-35509727D01*
X101661211Y-35499729D01*
X101653173Y-35488891D01*
X101646236Y-35477317D01*
X101640467Y-35465119D01*
X101635921Y-35452414D01*
X101632642Y-35439325D01*
X101630662Y-35425977D01*
X101630000Y-35412500D01*
X101630000Y-34087500D01*
X101630662Y-34074023D01*
X101632642Y-34060675D01*
X101635921Y-34047586D01*
X101640467Y-34034881D01*
X101646236Y-34022683D01*
X101653173Y-34011109D01*
X101661211Y-34000271D01*
X101670273Y-33990273D01*
X101680271Y-33981211D01*
X101691109Y-33973173D01*
X101702683Y-33966236D01*
X101714881Y-33960467D01*
X101727586Y-33955921D01*
X101740675Y-33952642D01*
X101754023Y-33950662D01*
X101767500Y-33950000D01*
X102042500Y-33950000D01*
X102055977Y-33950662D01*
G37*
G04 #@! TD.AperFunction*
G04 #@! TA.AperFunction,SMDPad,CuDef*
G36*
X103325977Y-33950662D02*
G01*
X103339325Y-33952642D01*
X103352414Y-33955921D01*
X103365119Y-33960467D01*
X103377317Y-33966236D01*
X103388891Y-33973173D01*
X103399729Y-33981211D01*
X103409727Y-33990273D01*
X103418789Y-34000271D01*
X103426827Y-34011109D01*
X103433764Y-34022683D01*
X103439533Y-34034881D01*
X103444079Y-34047586D01*
X103447358Y-34060675D01*
X103449338Y-34074023D01*
X103450000Y-34087500D01*
X103450000Y-35412500D01*
X103449338Y-35425977D01*
X103447358Y-35439325D01*
X103444079Y-35452414D01*
X103439533Y-35465119D01*
X103433764Y-35477317D01*
X103426827Y-35488891D01*
X103418789Y-35499729D01*
X103409727Y-35509727D01*
X103399729Y-35518789D01*
X103388891Y-35526827D01*
X103377317Y-35533764D01*
X103365119Y-35539533D01*
X103352414Y-35544079D01*
X103339325Y-35547358D01*
X103325977Y-35549338D01*
X103312500Y-35550000D01*
X103037500Y-35550000D01*
X103024023Y-35549338D01*
X103010675Y-35547358D01*
X102997586Y-35544079D01*
X102984881Y-35539533D01*
X102972683Y-35533764D01*
X102961109Y-35526827D01*
X102950271Y-35518789D01*
X102940273Y-35509727D01*
X102931211Y-35499729D01*
X102923173Y-35488891D01*
X102916236Y-35477317D01*
X102910467Y-35465119D01*
X102905921Y-35452414D01*
X102902642Y-35439325D01*
X102900662Y-35425977D01*
X102900000Y-35412500D01*
X102900000Y-34087500D01*
X102900662Y-34074023D01*
X102902642Y-34060675D01*
X102905921Y-34047586D01*
X102910467Y-34034881D01*
X102916236Y-34022683D01*
X102923173Y-34011109D01*
X102931211Y-34000271D01*
X102940273Y-33990273D01*
X102950271Y-33981211D01*
X102961109Y-33973173D01*
X102972683Y-33966236D01*
X102984881Y-33960467D01*
X102997586Y-33955921D01*
X103010675Y-33952642D01*
X103024023Y-33950662D01*
X103037500Y-33950000D01*
X103312500Y-33950000D01*
X103325977Y-33950662D01*
G37*
G04 #@! TD.AperFunction*
G04 #@! TA.AperFunction,SMDPad,CuDef*
G36*
X104595977Y-33950662D02*
G01*
X104609325Y-33952642D01*
X104622414Y-33955921D01*
X104635119Y-33960467D01*
X104647317Y-33966236D01*
X104658891Y-33973173D01*
X104669729Y-33981211D01*
X104679727Y-33990273D01*
X104688789Y-34000271D01*
X104696827Y-34011109D01*
X104703764Y-34022683D01*
X104709533Y-34034881D01*
X104714079Y-34047586D01*
X104717358Y-34060675D01*
X104719338Y-34074023D01*
X104720000Y-34087500D01*
X104720000Y-35412500D01*
X104719338Y-35425977D01*
X104717358Y-35439325D01*
X104714079Y-35452414D01*
X104709533Y-35465119D01*
X104703764Y-35477317D01*
X104696827Y-35488891D01*
X104688789Y-35499729D01*
X104679727Y-35509727D01*
X104669729Y-35518789D01*
X104658891Y-35526827D01*
X104647317Y-35533764D01*
X104635119Y-35539533D01*
X104622414Y-35544079D01*
X104609325Y-35547358D01*
X104595977Y-35549338D01*
X104582500Y-35550000D01*
X104307500Y-35550000D01*
X104294023Y-35549338D01*
X104280675Y-35547358D01*
X104267586Y-35544079D01*
X104254881Y-35539533D01*
X104242683Y-35533764D01*
X104231109Y-35526827D01*
X104220271Y-35518789D01*
X104210273Y-35509727D01*
X104201211Y-35499729D01*
X104193173Y-35488891D01*
X104186236Y-35477317D01*
X104180467Y-35465119D01*
X104175921Y-35452414D01*
X104172642Y-35439325D01*
X104170662Y-35425977D01*
X104170000Y-35412500D01*
X104170000Y-34087500D01*
X104170662Y-34074023D01*
X104172642Y-34060675D01*
X104175921Y-34047586D01*
X104180467Y-34034881D01*
X104186236Y-34022683D01*
X104193173Y-34011109D01*
X104201211Y-34000271D01*
X104210273Y-33990273D01*
X104220271Y-33981211D01*
X104231109Y-33973173D01*
X104242683Y-33966236D01*
X104254881Y-33960467D01*
X104267586Y-33955921D01*
X104280675Y-33952642D01*
X104294023Y-33950662D01*
X104307500Y-33950000D01*
X104582500Y-33950000D01*
X104595977Y-33950662D01*
G37*
G04 #@! TD.AperFunction*
G04 #@! TA.AperFunction,SMDPad,CuDef*
G36*
X143049504Y-38601204D02*
G01*
X143073773Y-38604804D01*
X143097571Y-38610765D01*
X143120671Y-38619030D01*
X143142849Y-38629520D01*
X143163893Y-38642133D01*
X143183598Y-38656747D01*
X143201777Y-38673223D01*
X143218253Y-38691402D01*
X143232867Y-38711107D01*
X143245480Y-38732151D01*
X143255970Y-38754329D01*
X143264235Y-38777429D01*
X143270196Y-38801227D01*
X143273796Y-38825496D01*
X143275000Y-38850000D01*
X143275000Y-39775000D01*
X143273796Y-39799504D01*
X143270196Y-39823773D01*
X143264235Y-39847571D01*
X143255970Y-39870671D01*
X143245480Y-39892849D01*
X143232867Y-39913893D01*
X143218253Y-39933598D01*
X143201777Y-39951777D01*
X143183598Y-39968253D01*
X143163893Y-39982867D01*
X143142849Y-39995480D01*
X143120671Y-40005970D01*
X143097571Y-40014235D01*
X143073773Y-40020196D01*
X143049504Y-40023796D01*
X143025000Y-40025000D01*
X141775000Y-40025000D01*
X141750496Y-40023796D01*
X141726227Y-40020196D01*
X141702429Y-40014235D01*
X141679329Y-40005970D01*
X141657151Y-39995480D01*
X141636107Y-39982867D01*
X141616402Y-39968253D01*
X141598223Y-39951777D01*
X141581747Y-39933598D01*
X141567133Y-39913893D01*
X141554520Y-39892849D01*
X141544030Y-39870671D01*
X141535765Y-39847571D01*
X141529804Y-39823773D01*
X141526204Y-39799504D01*
X141525000Y-39775000D01*
X141525000Y-38850000D01*
X141526204Y-38825496D01*
X141529804Y-38801227D01*
X141535765Y-38777429D01*
X141544030Y-38754329D01*
X141554520Y-38732151D01*
X141567133Y-38711107D01*
X141581747Y-38691402D01*
X141598223Y-38673223D01*
X141616402Y-38656747D01*
X141636107Y-38642133D01*
X141657151Y-38629520D01*
X141679329Y-38619030D01*
X141702429Y-38610765D01*
X141726227Y-38604804D01*
X141750496Y-38601204D01*
X141775000Y-38600000D01*
X143025000Y-38600000D01*
X143049504Y-38601204D01*
G37*
G04 #@! TD.AperFunction*
G04 #@! TA.AperFunction,SMDPad,CuDef*
G36*
X143049504Y-41576204D02*
G01*
X143073773Y-41579804D01*
X143097571Y-41585765D01*
X143120671Y-41594030D01*
X143142849Y-41604520D01*
X143163893Y-41617133D01*
X143183598Y-41631747D01*
X143201777Y-41648223D01*
X143218253Y-41666402D01*
X143232867Y-41686107D01*
X143245480Y-41707151D01*
X143255970Y-41729329D01*
X143264235Y-41752429D01*
X143270196Y-41776227D01*
X143273796Y-41800496D01*
X143275000Y-41825000D01*
X143275000Y-42750000D01*
X143273796Y-42774504D01*
X143270196Y-42798773D01*
X143264235Y-42822571D01*
X143255970Y-42845671D01*
X143245480Y-42867849D01*
X143232867Y-42888893D01*
X143218253Y-42908598D01*
X143201777Y-42926777D01*
X143183598Y-42943253D01*
X143163893Y-42957867D01*
X143142849Y-42970480D01*
X143120671Y-42980970D01*
X143097571Y-42989235D01*
X143073773Y-42995196D01*
X143049504Y-42998796D01*
X143025000Y-43000000D01*
X141775000Y-43000000D01*
X141750496Y-42998796D01*
X141726227Y-42995196D01*
X141702429Y-42989235D01*
X141679329Y-42980970D01*
X141657151Y-42970480D01*
X141636107Y-42957867D01*
X141616402Y-42943253D01*
X141598223Y-42926777D01*
X141581747Y-42908598D01*
X141567133Y-42888893D01*
X141554520Y-42867849D01*
X141544030Y-42845671D01*
X141535765Y-42822571D01*
X141529804Y-42798773D01*
X141526204Y-42774504D01*
X141525000Y-42750000D01*
X141525000Y-41825000D01*
X141526204Y-41800496D01*
X141529804Y-41776227D01*
X141535765Y-41752429D01*
X141544030Y-41729329D01*
X141554520Y-41707151D01*
X141567133Y-41686107D01*
X141581747Y-41666402D01*
X141598223Y-41648223D01*
X141616402Y-41631747D01*
X141636107Y-41617133D01*
X141657151Y-41604520D01*
X141679329Y-41594030D01*
X141702429Y-41585765D01*
X141726227Y-41579804D01*
X141750496Y-41576204D01*
X141775000Y-41575000D01*
X143025000Y-41575000D01*
X143049504Y-41576204D01*
G37*
G04 #@! TD.AperFunction*
G04 #@! TA.AperFunction,SMDPad,CuDef*
G36*
X63925977Y-61080662D02*
G01*
X63939325Y-61082642D01*
X63952414Y-61085921D01*
X63965119Y-61090467D01*
X63977317Y-61096236D01*
X63988891Y-61103173D01*
X63999729Y-61111211D01*
X64009727Y-61120273D01*
X64018789Y-61130271D01*
X64026827Y-61141109D01*
X64033764Y-61152683D01*
X64039533Y-61164881D01*
X64044079Y-61177586D01*
X64047358Y-61190675D01*
X64049338Y-61204023D01*
X64050000Y-61217500D01*
X64050000Y-61492500D01*
X64049338Y-61505977D01*
X64047358Y-61519325D01*
X64044079Y-61532414D01*
X64039533Y-61545119D01*
X64033764Y-61557317D01*
X64026827Y-61568891D01*
X64018789Y-61579729D01*
X64009727Y-61589727D01*
X63999729Y-61598789D01*
X63988891Y-61606827D01*
X63977317Y-61613764D01*
X63965119Y-61619533D01*
X63952414Y-61624079D01*
X63939325Y-61627358D01*
X63925977Y-61629338D01*
X63912500Y-61630000D01*
X62587500Y-61630000D01*
X62574023Y-61629338D01*
X62560675Y-61627358D01*
X62547586Y-61624079D01*
X62534881Y-61619533D01*
X62522683Y-61613764D01*
X62511109Y-61606827D01*
X62500271Y-61598789D01*
X62490273Y-61589727D01*
X62481211Y-61579729D01*
X62473173Y-61568891D01*
X62466236Y-61557317D01*
X62460467Y-61545119D01*
X62455921Y-61532414D01*
X62452642Y-61519325D01*
X62450662Y-61505977D01*
X62450000Y-61492500D01*
X62450000Y-61217500D01*
X62450662Y-61204023D01*
X62452642Y-61190675D01*
X62455921Y-61177586D01*
X62460467Y-61164881D01*
X62466236Y-61152683D01*
X62473173Y-61141109D01*
X62481211Y-61130271D01*
X62490273Y-61120273D01*
X62500271Y-61111211D01*
X62511109Y-61103173D01*
X62522683Y-61096236D01*
X62534881Y-61090467D01*
X62547586Y-61085921D01*
X62560675Y-61082642D01*
X62574023Y-61080662D01*
X62587500Y-61080000D01*
X63912500Y-61080000D01*
X63925977Y-61080662D01*
G37*
G04 #@! TD.AperFunction*
G04 #@! TA.AperFunction,SMDPad,CuDef*
G36*
X63925977Y-62350662D02*
G01*
X63939325Y-62352642D01*
X63952414Y-62355921D01*
X63965119Y-62360467D01*
X63977317Y-62366236D01*
X63988891Y-62373173D01*
X63999729Y-62381211D01*
X64009727Y-62390273D01*
X64018789Y-62400271D01*
X64026827Y-62411109D01*
X64033764Y-62422683D01*
X64039533Y-62434881D01*
X64044079Y-62447586D01*
X64047358Y-62460675D01*
X64049338Y-62474023D01*
X64050000Y-62487500D01*
X64050000Y-62762500D01*
X64049338Y-62775977D01*
X64047358Y-62789325D01*
X64044079Y-62802414D01*
X64039533Y-62815119D01*
X64033764Y-62827317D01*
X64026827Y-62838891D01*
X64018789Y-62849729D01*
X64009727Y-62859727D01*
X63999729Y-62868789D01*
X63988891Y-62876827D01*
X63977317Y-62883764D01*
X63965119Y-62889533D01*
X63952414Y-62894079D01*
X63939325Y-62897358D01*
X63925977Y-62899338D01*
X63912500Y-62900000D01*
X62587500Y-62900000D01*
X62574023Y-62899338D01*
X62560675Y-62897358D01*
X62547586Y-62894079D01*
X62534881Y-62889533D01*
X62522683Y-62883764D01*
X62511109Y-62876827D01*
X62500271Y-62868789D01*
X62490273Y-62859727D01*
X62481211Y-62849729D01*
X62473173Y-62838891D01*
X62466236Y-62827317D01*
X62460467Y-62815119D01*
X62455921Y-62802414D01*
X62452642Y-62789325D01*
X62450662Y-62775977D01*
X62450000Y-62762500D01*
X62450000Y-62487500D01*
X62450662Y-62474023D01*
X62452642Y-62460675D01*
X62455921Y-62447586D01*
X62460467Y-62434881D01*
X62466236Y-62422683D01*
X62473173Y-62411109D01*
X62481211Y-62400271D01*
X62490273Y-62390273D01*
X62500271Y-62381211D01*
X62511109Y-62373173D01*
X62522683Y-62366236D01*
X62534881Y-62360467D01*
X62547586Y-62355921D01*
X62560675Y-62352642D01*
X62574023Y-62350662D01*
X62587500Y-62350000D01*
X63912500Y-62350000D01*
X63925977Y-62350662D01*
G37*
G04 #@! TD.AperFunction*
G04 #@! TA.AperFunction,SMDPad,CuDef*
G36*
X63925977Y-63620662D02*
G01*
X63939325Y-63622642D01*
X63952414Y-63625921D01*
X63965119Y-63630467D01*
X63977317Y-63636236D01*
X63988891Y-63643173D01*
X63999729Y-63651211D01*
X64009727Y-63660273D01*
X64018789Y-63670271D01*
X64026827Y-63681109D01*
X64033764Y-63692683D01*
X64039533Y-63704881D01*
X64044079Y-63717586D01*
X64047358Y-63730675D01*
X64049338Y-63744023D01*
X64050000Y-63757500D01*
X64050000Y-64032500D01*
X64049338Y-64045977D01*
X64047358Y-64059325D01*
X64044079Y-64072414D01*
X64039533Y-64085119D01*
X64033764Y-64097317D01*
X64026827Y-64108891D01*
X64018789Y-64119729D01*
X64009727Y-64129727D01*
X63999729Y-64138789D01*
X63988891Y-64146827D01*
X63977317Y-64153764D01*
X63965119Y-64159533D01*
X63952414Y-64164079D01*
X63939325Y-64167358D01*
X63925977Y-64169338D01*
X63912500Y-64170000D01*
X62587500Y-64170000D01*
X62574023Y-64169338D01*
X62560675Y-64167358D01*
X62547586Y-64164079D01*
X62534881Y-64159533D01*
X62522683Y-64153764D01*
X62511109Y-64146827D01*
X62500271Y-64138789D01*
X62490273Y-64129727D01*
X62481211Y-64119729D01*
X62473173Y-64108891D01*
X62466236Y-64097317D01*
X62460467Y-64085119D01*
X62455921Y-64072414D01*
X62452642Y-64059325D01*
X62450662Y-64045977D01*
X62450000Y-64032500D01*
X62450000Y-63757500D01*
X62450662Y-63744023D01*
X62452642Y-63730675D01*
X62455921Y-63717586D01*
X62460467Y-63704881D01*
X62466236Y-63692683D01*
X62473173Y-63681109D01*
X62481211Y-63670271D01*
X62490273Y-63660273D01*
X62500271Y-63651211D01*
X62511109Y-63643173D01*
X62522683Y-63636236D01*
X62534881Y-63630467D01*
X62547586Y-63625921D01*
X62560675Y-63622642D01*
X62574023Y-63620662D01*
X62587500Y-63620000D01*
X63912500Y-63620000D01*
X63925977Y-63620662D01*
G37*
G04 #@! TD.AperFunction*
G04 #@! TA.AperFunction,SMDPad,CuDef*
G36*
X63925977Y-64890662D02*
G01*
X63939325Y-64892642D01*
X63952414Y-64895921D01*
X63965119Y-64900467D01*
X63977317Y-64906236D01*
X63988891Y-64913173D01*
X63999729Y-64921211D01*
X64009727Y-64930273D01*
X64018789Y-64940271D01*
X64026827Y-64951109D01*
X64033764Y-64962683D01*
X64039533Y-64974881D01*
X64044079Y-64987586D01*
X64047358Y-65000675D01*
X64049338Y-65014023D01*
X64050000Y-65027500D01*
X64050000Y-65302500D01*
X64049338Y-65315977D01*
X64047358Y-65329325D01*
X64044079Y-65342414D01*
X64039533Y-65355119D01*
X64033764Y-65367317D01*
X64026827Y-65378891D01*
X64018789Y-65389729D01*
X64009727Y-65399727D01*
X63999729Y-65408789D01*
X63988891Y-65416827D01*
X63977317Y-65423764D01*
X63965119Y-65429533D01*
X63952414Y-65434079D01*
X63939325Y-65437358D01*
X63925977Y-65439338D01*
X63912500Y-65440000D01*
X62587500Y-65440000D01*
X62574023Y-65439338D01*
X62560675Y-65437358D01*
X62547586Y-65434079D01*
X62534881Y-65429533D01*
X62522683Y-65423764D01*
X62511109Y-65416827D01*
X62500271Y-65408789D01*
X62490273Y-65399727D01*
X62481211Y-65389729D01*
X62473173Y-65378891D01*
X62466236Y-65367317D01*
X62460467Y-65355119D01*
X62455921Y-65342414D01*
X62452642Y-65329325D01*
X62450662Y-65315977D01*
X62450000Y-65302500D01*
X62450000Y-65027500D01*
X62450662Y-65014023D01*
X62452642Y-65000675D01*
X62455921Y-64987586D01*
X62460467Y-64974881D01*
X62466236Y-64962683D01*
X62473173Y-64951109D01*
X62481211Y-64940271D01*
X62490273Y-64930273D01*
X62500271Y-64921211D01*
X62511109Y-64913173D01*
X62522683Y-64906236D01*
X62534881Y-64900467D01*
X62547586Y-64895921D01*
X62560675Y-64892642D01*
X62574023Y-64890662D01*
X62587500Y-64890000D01*
X63912500Y-64890000D01*
X63925977Y-64890662D01*
G37*
G04 #@! TD.AperFunction*
G04 #@! TA.AperFunction,SMDPad,CuDef*
G36*
X63925977Y-66160662D02*
G01*
X63939325Y-66162642D01*
X63952414Y-66165921D01*
X63965119Y-66170467D01*
X63977317Y-66176236D01*
X63988891Y-66183173D01*
X63999729Y-66191211D01*
X64009727Y-66200273D01*
X64018789Y-66210271D01*
X64026827Y-66221109D01*
X64033764Y-66232683D01*
X64039533Y-66244881D01*
X64044079Y-66257586D01*
X64047358Y-66270675D01*
X64049338Y-66284023D01*
X64050000Y-66297500D01*
X64050000Y-66572500D01*
X64049338Y-66585977D01*
X64047358Y-66599325D01*
X64044079Y-66612414D01*
X64039533Y-66625119D01*
X64033764Y-66637317D01*
X64026827Y-66648891D01*
X64018789Y-66659729D01*
X64009727Y-66669727D01*
X63999729Y-66678789D01*
X63988891Y-66686827D01*
X63977317Y-66693764D01*
X63965119Y-66699533D01*
X63952414Y-66704079D01*
X63939325Y-66707358D01*
X63925977Y-66709338D01*
X63912500Y-66710000D01*
X62587500Y-66710000D01*
X62574023Y-66709338D01*
X62560675Y-66707358D01*
X62547586Y-66704079D01*
X62534881Y-66699533D01*
X62522683Y-66693764D01*
X62511109Y-66686827D01*
X62500271Y-66678789D01*
X62490273Y-66669727D01*
X62481211Y-66659729D01*
X62473173Y-66648891D01*
X62466236Y-66637317D01*
X62460467Y-66625119D01*
X62455921Y-66612414D01*
X62452642Y-66599325D01*
X62450662Y-66585977D01*
X62450000Y-66572500D01*
X62450000Y-66297500D01*
X62450662Y-66284023D01*
X62452642Y-66270675D01*
X62455921Y-66257586D01*
X62460467Y-66244881D01*
X62466236Y-66232683D01*
X62473173Y-66221109D01*
X62481211Y-66210271D01*
X62490273Y-66200273D01*
X62500271Y-66191211D01*
X62511109Y-66183173D01*
X62522683Y-66176236D01*
X62534881Y-66170467D01*
X62547586Y-66165921D01*
X62560675Y-66162642D01*
X62574023Y-66160662D01*
X62587500Y-66160000D01*
X63912500Y-66160000D01*
X63925977Y-66160662D01*
G37*
G04 #@! TD.AperFunction*
G04 #@! TA.AperFunction,SMDPad,CuDef*
G36*
X63925977Y-67430662D02*
G01*
X63939325Y-67432642D01*
X63952414Y-67435921D01*
X63965119Y-67440467D01*
X63977317Y-67446236D01*
X63988891Y-67453173D01*
X63999729Y-67461211D01*
X64009727Y-67470273D01*
X64018789Y-67480271D01*
X64026827Y-67491109D01*
X64033764Y-67502683D01*
X64039533Y-67514881D01*
X64044079Y-67527586D01*
X64047358Y-67540675D01*
X64049338Y-67554023D01*
X64050000Y-67567500D01*
X64050000Y-67842500D01*
X64049338Y-67855977D01*
X64047358Y-67869325D01*
X64044079Y-67882414D01*
X64039533Y-67895119D01*
X64033764Y-67907317D01*
X64026827Y-67918891D01*
X64018789Y-67929729D01*
X64009727Y-67939727D01*
X63999729Y-67948789D01*
X63988891Y-67956827D01*
X63977317Y-67963764D01*
X63965119Y-67969533D01*
X63952414Y-67974079D01*
X63939325Y-67977358D01*
X63925977Y-67979338D01*
X63912500Y-67980000D01*
X62587500Y-67980000D01*
X62574023Y-67979338D01*
X62560675Y-67977358D01*
X62547586Y-67974079D01*
X62534881Y-67969533D01*
X62522683Y-67963764D01*
X62511109Y-67956827D01*
X62500271Y-67948789D01*
X62490273Y-67939727D01*
X62481211Y-67929729D01*
X62473173Y-67918891D01*
X62466236Y-67907317D01*
X62460467Y-67895119D01*
X62455921Y-67882414D01*
X62452642Y-67869325D01*
X62450662Y-67855977D01*
X62450000Y-67842500D01*
X62450000Y-67567500D01*
X62450662Y-67554023D01*
X62452642Y-67540675D01*
X62455921Y-67527586D01*
X62460467Y-67514881D01*
X62466236Y-67502683D01*
X62473173Y-67491109D01*
X62481211Y-67480271D01*
X62490273Y-67470273D01*
X62500271Y-67461211D01*
X62511109Y-67453173D01*
X62522683Y-67446236D01*
X62534881Y-67440467D01*
X62547586Y-67435921D01*
X62560675Y-67432642D01*
X62574023Y-67430662D01*
X62587500Y-67430000D01*
X63912500Y-67430000D01*
X63925977Y-67430662D01*
G37*
G04 #@! TD.AperFunction*
G04 #@! TA.AperFunction,SMDPad,CuDef*
G36*
X63925977Y-68700662D02*
G01*
X63939325Y-68702642D01*
X63952414Y-68705921D01*
X63965119Y-68710467D01*
X63977317Y-68716236D01*
X63988891Y-68723173D01*
X63999729Y-68731211D01*
X64009727Y-68740273D01*
X64018789Y-68750271D01*
X64026827Y-68761109D01*
X64033764Y-68772683D01*
X64039533Y-68784881D01*
X64044079Y-68797586D01*
X64047358Y-68810675D01*
X64049338Y-68824023D01*
X64050000Y-68837500D01*
X64050000Y-69112500D01*
X64049338Y-69125977D01*
X64047358Y-69139325D01*
X64044079Y-69152414D01*
X64039533Y-69165119D01*
X64033764Y-69177317D01*
X64026827Y-69188891D01*
X64018789Y-69199729D01*
X64009727Y-69209727D01*
X63999729Y-69218789D01*
X63988891Y-69226827D01*
X63977317Y-69233764D01*
X63965119Y-69239533D01*
X63952414Y-69244079D01*
X63939325Y-69247358D01*
X63925977Y-69249338D01*
X63912500Y-69250000D01*
X62587500Y-69250000D01*
X62574023Y-69249338D01*
X62560675Y-69247358D01*
X62547586Y-69244079D01*
X62534881Y-69239533D01*
X62522683Y-69233764D01*
X62511109Y-69226827D01*
X62500271Y-69218789D01*
X62490273Y-69209727D01*
X62481211Y-69199729D01*
X62473173Y-69188891D01*
X62466236Y-69177317D01*
X62460467Y-69165119D01*
X62455921Y-69152414D01*
X62452642Y-69139325D01*
X62450662Y-69125977D01*
X62450000Y-69112500D01*
X62450000Y-68837500D01*
X62450662Y-68824023D01*
X62452642Y-68810675D01*
X62455921Y-68797586D01*
X62460467Y-68784881D01*
X62466236Y-68772683D01*
X62473173Y-68761109D01*
X62481211Y-68750271D01*
X62490273Y-68740273D01*
X62500271Y-68731211D01*
X62511109Y-68723173D01*
X62522683Y-68716236D01*
X62534881Y-68710467D01*
X62547586Y-68705921D01*
X62560675Y-68702642D01*
X62574023Y-68700662D01*
X62587500Y-68700000D01*
X63912500Y-68700000D01*
X63925977Y-68700662D01*
G37*
G04 #@! TD.AperFunction*
G04 #@! TA.AperFunction,SMDPad,CuDef*
G36*
X63925977Y-69970662D02*
G01*
X63939325Y-69972642D01*
X63952414Y-69975921D01*
X63965119Y-69980467D01*
X63977317Y-69986236D01*
X63988891Y-69993173D01*
X63999729Y-70001211D01*
X64009727Y-70010273D01*
X64018789Y-70020271D01*
X64026827Y-70031109D01*
X64033764Y-70042683D01*
X64039533Y-70054881D01*
X64044079Y-70067586D01*
X64047358Y-70080675D01*
X64049338Y-70094023D01*
X64050000Y-70107500D01*
X64050000Y-70382500D01*
X64049338Y-70395977D01*
X64047358Y-70409325D01*
X64044079Y-70422414D01*
X64039533Y-70435119D01*
X64033764Y-70447317D01*
X64026827Y-70458891D01*
X64018789Y-70469729D01*
X64009727Y-70479727D01*
X63999729Y-70488789D01*
X63988891Y-70496827D01*
X63977317Y-70503764D01*
X63965119Y-70509533D01*
X63952414Y-70514079D01*
X63939325Y-70517358D01*
X63925977Y-70519338D01*
X63912500Y-70520000D01*
X62587500Y-70520000D01*
X62574023Y-70519338D01*
X62560675Y-70517358D01*
X62547586Y-70514079D01*
X62534881Y-70509533D01*
X62522683Y-70503764D01*
X62511109Y-70496827D01*
X62500271Y-70488789D01*
X62490273Y-70479727D01*
X62481211Y-70469729D01*
X62473173Y-70458891D01*
X62466236Y-70447317D01*
X62460467Y-70435119D01*
X62455921Y-70422414D01*
X62452642Y-70409325D01*
X62450662Y-70395977D01*
X62450000Y-70382500D01*
X62450000Y-70107500D01*
X62450662Y-70094023D01*
X62452642Y-70080675D01*
X62455921Y-70067586D01*
X62460467Y-70054881D01*
X62466236Y-70042683D01*
X62473173Y-70031109D01*
X62481211Y-70020271D01*
X62490273Y-70010273D01*
X62500271Y-70001211D01*
X62511109Y-69993173D01*
X62522683Y-69986236D01*
X62534881Y-69980467D01*
X62547586Y-69975921D01*
X62560675Y-69972642D01*
X62574023Y-69970662D01*
X62587500Y-69970000D01*
X63912500Y-69970000D01*
X63925977Y-69970662D01*
G37*
G04 #@! TD.AperFunction*
G04 #@! TA.AperFunction,SMDPad,CuDef*
G36*
X57425977Y-69970662D02*
G01*
X57439325Y-69972642D01*
X57452414Y-69975921D01*
X57465119Y-69980467D01*
X57477317Y-69986236D01*
X57488891Y-69993173D01*
X57499729Y-70001211D01*
X57509727Y-70010273D01*
X57518789Y-70020271D01*
X57526827Y-70031109D01*
X57533764Y-70042683D01*
X57539533Y-70054881D01*
X57544079Y-70067586D01*
X57547358Y-70080675D01*
X57549338Y-70094023D01*
X57550000Y-70107500D01*
X57550000Y-70382500D01*
X57549338Y-70395977D01*
X57547358Y-70409325D01*
X57544079Y-70422414D01*
X57539533Y-70435119D01*
X57533764Y-70447317D01*
X57526827Y-70458891D01*
X57518789Y-70469729D01*
X57509727Y-70479727D01*
X57499729Y-70488789D01*
X57488891Y-70496827D01*
X57477317Y-70503764D01*
X57465119Y-70509533D01*
X57452414Y-70514079D01*
X57439325Y-70517358D01*
X57425977Y-70519338D01*
X57412500Y-70520000D01*
X56087500Y-70520000D01*
X56074023Y-70519338D01*
X56060675Y-70517358D01*
X56047586Y-70514079D01*
X56034881Y-70509533D01*
X56022683Y-70503764D01*
X56011109Y-70496827D01*
X56000271Y-70488789D01*
X55990273Y-70479727D01*
X55981211Y-70469729D01*
X55973173Y-70458891D01*
X55966236Y-70447317D01*
X55960467Y-70435119D01*
X55955921Y-70422414D01*
X55952642Y-70409325D01*
X55950662Y-70395977D01*
X55950000Y-70382500D01*
X55950000Y-70107500D01*
X55950662Y-70094023D01*
X55952642Y-70080675D01*
X55955921Y-70067586D01*
X55960467Y-70054881D01*
X55966236Y-70042683D01*
X55973173Y-70031109D01*
X55981211Y-70020271D01*
X55990273Y-70010273D01*
X56000271Y-70001211D01*
X56011109Y-69993173D01*
X56022683Y-69986236D01*
X56034881Y-69980467D01*
X56047586Y-69975921D01*
X56060675Y-69972642D01*
X56074023Y-69970662D01*
X56087500Y-69970000D01*
X57412500Y-69970000D01*
X57425977Y-69970662D01*
G37*
G04 #@! TD.AperFunction*
G04 #@! TA.AperFunction,SMDPad,CuDef*
G36*
X57425977Y-68700662D02*
G01*
X57439325Y-68702642D01*
X57452414Y-68705921D01*
X57465119Y-68710467D01*
X57477317Y-68716236D01*
X57488891Y-68723173D01*
X57499729Y-68731211D01*
X57509727Y-68740273D01*
X57518789Y-68750271D01*
X57526827Y-68761109D01*
X57533764Y-68772683D01*
X57539533Y-68784881D01*
X57544079Y-68797586D01*
X57547358Y-68810675D01*
X57549338Y-68824023D01*
X57550000Y-68837500D01*
X57550000Y-69112500D01*
X57549338Y-69125977D01*
X57547358Y-69139325D01*
X57544079Y-69152414D01*
X57539533Y-69165119D01*
X57533764Y-69177317D01*
X57526827Y-69188891D01*
X57518789Y-69199729D01*
X57509727Y-69209727D01*
X57499729Y-69218789D01*
X57488891Y-69226827D01*
X57477317Y-69233764D01*
X57465119Y-69239533D01*
X57452414Y-69244079D01*
X57439325Y-69247358D01*
X57425977Y-69249338D01*
X57412500Y-69250000D01*
X56087500Y-69250000D01*
X56074023Y-69249338D01*
X56060675Y-69247358D01*
X56047586Y-69244079D01*
X56034881Y-69239533D01*
X56022683Y-69233764D01*
X56011109Y-69226827D01*
X56000271Y-69218789D01*
X55990273Y-69209727D01*
X55981211Y-69199729D01*
X55973173Y-69188891D01*
X55966236Y-69177317D01*
X55960467Y-69165119D01*
X55955921Y-69152414D01*
X55952642Y-69139325D01*
X55950662Y-69125977D01*
X55950000Y-69112500D01*
X55950000Y-68837500D01*
X55950662Y-68824023D01*
X55952642Y-68810675D01*
X55955921Y-68797586D01*
X55960467Y-68784881D01*
X55966236Y-68772683D01*
X55973173Y-68761109D01*
X55981211Y-68750271D01*
X55990273Y-68740273D01*
X56000271Y-68731211D01*
X56011109Y-68723173D01*
X56022683Y-68716236D01*
X56034881Y-68710467D01*
X56047586Y-68705921D01*
X56060675Y-68702642D01*
X56074023Y-68700662D01*
X56087500Y-68700000D01*
X57412500Y-68700000D01*
X57425977Y-68700662D01*
G37*
G04 #@! TD.AperFunction*
G04 #@! TA.AperFunction,SMDPad,CuDef*
G36*
X57425977Y-67430662D02*
G01*
X57439325Y-67432642D01*
X57452414Y-67435921D01*
X57465119Y-67440467D01*
X57477317Y-67446236D01*
X57488891Y-67453173D01*
X57499729Y-67461211D01*
X57509727Y-67470273D01*
X57518789Y-67480271D01*
X57526827Y-67491109D01*
X57533764Y-67502683D01*
X57539533Y-67514881D01*
X57544079Y-67527586D01*
X57547358Y-67540675D01*
X57549338Y-67554023D01*
X57550000Y-67567500D01*
X57550000Y-67842500D01*
X57549338Y-67855977D01*
X57547358Y-67869325D01*
X57544079Y-67882414D01*
X57539533Y-67895119D01*
X57533764Y-67907317D01*
X57526827Y-67918891D01*
X57518789Y-67929729D01*
X57509727Y-67939727D01*
X57499729Y-67948789D01*
X57488891Y-67956827D01*
X57477317Y-67963764D01*
X57465119Y-67969533D01*
X57452414Y-67974079D01*
X57439325Y-67977358D01*
X57425977Y-67979338D01*
X57412500Y-67980000D01*
X56087500Y-67980000D01*
X56074023Y-67979338D01*
X56060675Y-67977358D01*
X56047586Y-67974079D01*
X56034881Y-67969533D01*
X56022683Y-67963764D01*
X56011109Y-67956827D01*
X56000271Y-67948789D01*
X55990273Y-67939727D01*
X55981211Y-67929729D01*
X55973173Y-67918891D01*
X55966236Y-67907317D01*
X55960467Y-67895119D01*
X55955921Y-67882414D01*
X55952642Y-67869325D01*
X55950662Y-67855977D01*
X55950000Y-67842500D01*
X55950000Y-67567500D01*
X55950662Y-67554023D01*
X55952642Y-67540675D01*
X55955921Y-67527586D01*
X55960467Y-67514881D01*
X55966236Y-67502683D01*
X55973173Y-67491109D01*
X55981211Y-67480271D01*
X55990273Y-67470273D01*
X56000271Y-67461211D01*
X56011109Y-67453173D01*
X56022683Y-67446236D01*
X56034881Y-67440467D01*
X56047586Y-67435921D01*
X56060675Y-67432642D01*
X56074023Y-67430662D01*
X56087500Y-67430000D01*
X57412500Y-67430000D01*
X57425977Y-67430662D01*
G37*
G04 #@! TD.AperFunction*
G04 #@! TA.AperFunction,SMDPad,CuDef*
G36*
X57425977Y-66160662D02*
G01*
X57439325Y-66162642D01*
X57452414Y-66165921D01*
X57465119Y-66170467D01*
X57477317Y-66176236D01*
X57488891Y-66183173D01*
X57499729Y-66191211D01*
X57509727Y-66200273D01*
X57518789Y-66210271D01*
X57526827Y-66221109D01*
X57533764Y-66232683D01*
X57539533Y-66244881D01*
X57544079Y-66257586D01*
X57547358Y-66270675D01*
X57549338Y-66284023D01*
X57550000Y-66297500D01*
X57550000Y-66572500D01*
X57549338Y-66585977D01*
X57547358Y-66599325D01*
X57544079Y-66612414D01*
X57539533Y-66625119D01*
X57533764Y-66637317D01*
X57526827Y-66648891D01*
X57518789Y-66659729D01*
X57509727Y-66669727D01*
X57499729Y-66678789D01*
X57488891Y-66686827D01*
X57477317Y-66693764D01*
X57465119Y-66699533D01*
X57452414Y-66704079D01*
X57439325Y-66707358D01*
X57425977Y-66709338D01*
X57412500Y-66710000D01*
X56087500Y-66710000D01*
X56074023Y-66709338D01*
X56060675Y-66707358D01*
X56047586Y-66704079D01*
X56034881Y-66699533D01*
X56022683Y-66693764D01*
X56011109Y-66686827D01*
X56000271Y-66678789D01*
X55990273Y-66669727D01*
X55981211Y-66659729D01*
X55973173Y-66648891D01*
X55966236Y-66637317D01*
X55960467Y-66625119D01*
X55955921Y-66612414D01*
X55952642Y-66599325D01*
X55950662Y-66585977D01*
X55950000Y-66572500D01*
X55950000Y-66297500D01*
X55950662Y-66284023D01*
X55952642Y-66270675D01*
X55955921Y-66257586D01*
X55960467Y-66244881D01*
X55966236Y-66232683D01*
X55973173Y-66221109D01*
X55981211Y-66210271D01*
X55990273Y-66200273D01*
X56000271Y-66191211D01*
X56011109Y-66183173D01*
X56022683Y-66176236D01*
X56034881Y-66170467D01*
X56047586Y-66165921D01*
X56060675Y-66162642D01*
X56074023Y-66160662D01*
X56087500Y-66160000D01*
X57412500Y-66160000D01*
X57425977Y-66160662D01*
G37*
G04 #@! TD.AperFunction*
G04 #@! TA.AperFunction,SMDPad,CuDef*
G36*
X57425977Y-64890662D02*
G01*
X57439325Y-64892642D01*
X57452414Y-64895921D01*
X57465119Y-64900467D01*
X57477317Y-64906236D01*
X57488891Y-64913173D01*
X57499729Y-64921211D01*
X57509727Y-64930273D01*
X57518789Y-64940271D01*
X57526827Y-64951109D01*
X57533764Y-64962683D01*
X57539533Y-64974881D01*
X57544079Y-64987586D01*
X57547358Y-65000675D01*
X57549338Y-65014023D01*
X57550000Y-65027500D01*
X57550000Y-65302500D01*
X57549338Y-65315977D01*
X57547358Y-65329325D01*
X57544079Y-65342414D01*
X57539533Y-65355119D01*
X57533764Y-65367317D01*
X57526827Y-65378891D01*
X57518789Y-65389729D01*
X57509727Y-65399727D01*
X57499729Y-65408789D01*
X57488891Y-65416827D01*
X57477317Y-65423764D01*
X57465119Y-65429533D01*
X57452414Y-65434079D01*
X57439325Y-65437358D01*
X57425977Y-65439338D01*
X57412500Y-65440000D01*
X56087500Y-65440000D01*
X56074023Y-65439338D01*
X56060675Y-65437358D01*
X56047586Y-65434079D01*
X56034881Y-65429533D01*
X56022683Y-65423764D01*
X56011109Y-65416827D01*
X56000271Y-65408789D01*
X55990273Y-65399727D01*
X55981211Y-65389729D01*
X55973173Y-65378891D01*
X55966236Y-65367317D01*
X55960467Y-65355119D01*
X55955921Y-65342414D01*
X55952642Y-65329325D01*
X55950662Y-65315977D01*
X55950000Y-65302500D01*
X55950000Y-65027500D01*
X55950662Y-65014023D01*
X55952642Y-65000675D01*
X55955921Y-64987586D01*
X55960467Y-64974881D01*
X55966236Y-64962683D01*
X55973173Y-64951109D01*
X55981211Y-64940271D01*
X55990273Y-64930273D01*
X56000271Y-64921211D01*
X56011109Y-64913173D01*
X56022683Y-64906236D01*
X56034881Y-64900467D01*
X56047586Y-64895921D01*
X56060675Y-64892642D01*
X56074023Y-64890662D01*
X56087500Y-64890000D01*
X57412500Y-64890000D01*
X57425977Y-64890662D01*
G37*
G04 #@! TD.AperFunction*
G04 #@! TA.AperFunction,SMDPad,CuDef*
G36*
X57425977Y-63620662D02*
G01*
X57439325Y-63622642D01*
X57452414Y-63625921D01*
X57465119Y-63630467D01*
X57477317Y-63636236D01*
X57488891Y-63643173D01*
X57499729Y-63651211D01*
X57509727Y-63660273D01*
X57518789Y-63670271D01*
X57526827Y-63681109D01*
X57533764Y-63692683D01*
X57539533Y-63704881D01*
X57544079Y-63717586D01*
X57547358Y-63730675D01*
X57549338Y-63744023D01*
X57550000Y-63757500D01*
X57550000Y-64032500D01*
X57549338Y-64045977D01*
X57547358Y-64059325D01*
X57544079Y-64072414D01*
X57539533Y-64085119D01*
X57533764Y-64097317D01*
X57526827Y-64108891D01*
X57518789Y-64119729D01*
X57509727Y-64129727D01*
X57499729Y-64138789D01*
X57488891Y-64146827D01*
X57477317Y-64153764D01*
X57465119Y-64159533D01*
X57452414Y-64164079D01*
X57439325Y-64167358D01*
X57425977Y-64169338D01*
X57412500Y-64170000D01*
X56087500Y-64170000D01*
X56074023Y-64169338D01*
X56060675Y-64167358D01*
X56047586Y-64164079D01*
X56034881Y-64159533D01*
X56022683Y-64153764D01*
X56011109Y-64146827D01*
X56000271Y-64138789D01*
X55990273Y-64129727D01*
X55981211Y-64119729D01*
X55973173Y-64108891D01*
X55966236Y-64097317D01*
X55960467Y-64085119D01*
X55955921Y-64072414D01*
X55952642Y-64059325D01*
X55950662Y-64045977D01*
X55950000Y-64032500D01*
X55950000Y-63757500D01*
X55950662Y-63744023D01*
X55952642Y-63730675D01*
X55955921Y-63717586D01*
X55960467Y-63704881D01*
X55966236Y-63692683D01*
X55973173Y-63681109D01*
X55981211Y-63670271D01*
X55990273Y-63660273D01*
X56000271Y-63651211D01*
X56011109Y-63643173D01*
X56022683Y-63636236D01*
X56034881Y-63630467D01*
X56047586Y-63625921D01*
X56060675Y-63622642D01*
X56074023Y-63620662D01*
X56087500Y-63620000D01*
X57412500Y-63620000D01*
X57425977Y-63620662D01*
G37*
G04 #@! TD.AperFunction*
G04 #@! TA.AperFunction,SMDPad,CuDef*
G36*
X57425977Y-62350662D02*
G01*
X57439325Y-62352642D01*
X57452414Y-62355921D01*
X57465119Y-62360467D01*
X57477317Y-62366236D01*
X57488891Y-62373173D01*
X57499729Y-62381211D01*
X57509727Y-62390273D01*
X57518789Y-62400271D01*
X57526827Y-62411109D01*
X57533764Y-62422683D01*
X57539533Y-62434881D01*
X57544079Y-62447586D01*
X57547358Y-62460675D01*
X57549338Y-62474023D01*
X57550000Y-62487500D01*
X57550000Y-62762500D01*
X57549338Y-62775977D01*
X57547358Y-62789325D01*
X57544079Y-62802414D01*
X57539533Y-62815119D01*
X57533764Y-62827317D01*
X57526827Y-62838891D01*
X57518789Y-62849729D01*
X57509727Y-62859727D01*
X57499729Y-62868789D01*
X57488891Y-62876827D01*
X57477317Y-62883764D01*
X57465119Y-62889533D01*
X57452414Y-62894079D01*
X57439325Y-62897358D01*
X57425977Y-62899338D01*
X57412500Y-62900000D01*
X56087500Y-62900000D01*
X56074023Y-62899338D01*
X56060675Y-62897358D01*
X56047586Y-62894079D01*
X56034881Y-62889533D01*
X56022683Y-62883764D01*
X56011109Y-62876827D01*
X56000271Y-62868789D01*
X55990273Y-62859727D01*
X55981211Y-62849729D01*
X55973173Y-62838891D01*
X55966236Y-62827317D01*
X55960467Y-62815119D01*
X55955921Y-62802414D01*
X55952642Y-62789325D01*
X55950662Y-62775977D01*
X55950000Y-62762500D01*
X55950000Y-62487500D01*
X55950662Y-62474023D01*
X55952642Y-62460675D01*
X55955921Y-62447586D01*
X55960467Y-62434881D01*
X55966236Y-62422683D01*
X55973173Y-62411109D01*
X55981211Y-62400271D01*
X55990273Y-62390273D01*
X56000271Y-62381211D01*
X56011109Y-62373173D01*
X56022683Y-62366236D01*
X56034881Y-62360467D01*
X56047586Y-62355921D01*
X56060675Y-62352642D01*
X56074023Y-62350662D01*
X56087500Y-62350000D01*
X57412500Y-62350000D01*
X57425977Y-62350662D01*
G37*
G04 #@! TD.AperFunction*
G04 #@! TA.AperFunction,SMDPad,CuDef*
G36*
X57425977Y-61080662D02*
G01*
X57439325Y-61082642D01*
X57452414Y-61085921D01*
X57465119Y-61090467D01*
X57477317Y-61096236D01*
X57488891Y-61103173D01*
X57499729Y-61111211D01*
X57509727Y-61120273D01*
X57518789Y-61130271D01*
X57526827Y-61141109D01*
X57533764Y-61152683D01*
X57539533Y-61164881D01*
X57544079Y-61177586D01*
X57547358Y-61190675D01*
X57549338Y-61204023D01*
X57550000Y-61217500D01*
X57550000Y-61492500D01*
X57549338Y-61505977D01*
X57547358Y-61519325D01*
X57544079Y-61532414D01*
X57539533Y-61545119D01*
X57533764Y-61557317D01*
X57526827Y-61568891D01*
X57518789Y-61579729D01*
X57509727Y-61589727D01*
X57499729Y-61598789D01*
X57488891Y-61606827D01*
X57477317Y-61613764D01*
X57465119Y-61619533D01*
X57452414Y-61624079D01*
X57439325Y-61627358D01*
X57425977Y-61629338D01*
X57412500Y-61630000D01*
X56087500Y-61630000D01*
X56074023Y-61629338D01*
X56060675Y-61627358D01*
X56047586Y-61624079D01*
X56034881Y-61619533D01*
X56022683Y-61613764D01*
X56011109Y-61606827D01*
X56000271Y-61598789D01*
X55990273Y-61589727D01*
X55981211Y-61579729D01*
X55973173Y-61568891D01*
X55966236Y-61557317D01*
X55960467Y-61545119D01*
X55955921Y-61532414D01*
X55952642Y-61519325D01*
X55950662Y-61505977D01*
X55950000Y-61492500D01*
X55950000Y-61217500D01*
X55950662Y-61204023D01*
X55952642Y-61190675D01*
X55955921Y-61177586D01*
X55960467Y-61164881D01*
X55966236Y-61152683D01*
X55973173Y-61141109D01*
X55981211Y-61130271D01*
X55990273Y-61120273D01*
X56000271Y-61111211D01*
X56011109Y-61103173D01*
X56022683Y-61096236D01*
X56034881Y-61090467D01*
X56047586Y-61085921D01*
X56060675Y-61082642D01*
X56074023Y-61080662D01*
X56087500Y-61080000D01*
X57412500Y-61080000D01*
X57425977Y-61080662D01*
G37*
G04 #@! TD.AperFunction*
D17*
X130412500Y-18000000D03*
X133587500Y-18000000D03*
X66412500Y-18000000D03*
X69587500Y-18000000D03*
D16*
X178978000Y-12275000D03*
X174178000Y-24213000D03*
X172896000Y-12248000D03*
X181080000Y-14063000D03*
X169607000Y-16693000D03*
X170768000Y-14027000D03*
X176000000Y-11523000D03*
X169911000Y-20063000D03*
X171531000Y-22594000D03*
X182120000Y-20154000D03*
X182350000Y-16730000D03*
X177621000Y-24243000D03*
X180348000Y-22846000D03*
X154978000Y-12275000D03*
X150178000Y-24213000D03*
X148896000Y-12248000D03*
X157080000Y-14063000D03*
X145607000Y-16693000D03*
X146768000Y-14027000D03*
X152000000Y-11523000D03*
X145911000Y-20063000D03*
X147531000Y-22594000D03*
X158120000Y-20154000D03*
X158350000Y-16730000D03*
X153621000Y-24243000D03*
X156348000Y-22846000D03*
X114978000Y-12275000D03*
X110178000Y-24213000D03*
X108896000Y-12248000D03*
X117080000Y-14063000D03*
X105607000Y-16693000D03*
X106768000Y-14027000D03*
X112000000Y-11523000D03*
X105911000Y-20063000D03*
X107531000Y-22594000D03*
X118120000Y-20154000D03*
X118350000Y-16730000D03*
X113621000Y-24243000D03*
X116348000Y-22846000D03*
X90978000Y-12275000D03*
X86178000Y-24213000D03*
X84896000Y-12248000D03*
X93080000Y-14063000D03*
X81607000Y-16693000D03*
X82768000Y-14027000D03*
X88000000Y-11523000D03*
X81911000Y-20063000D03*
X83531000Y-22594000D03*
X94120000Y-20154000D03*
X94350000Y-16730000D03*
X89621000Y-24243000D03*
X92348000Y-22846000D03*
X50978000Y-12275000D03*
X46178000Y-24213000D03*
X44896000Y-12248000D03*
X53080000Y-14063000D03*
X41607000Y-16693000D03*
X42768000Y-14027000D03*
X48000000Y-11523000D03*
X41911000Y-20063000D03*
X43531000Y-22594000D03*
X54120000Y-20154000D03*
X54350000Y-16730000D03*
X49621000Y-24243000D03*
X52348000Y-22846000D03*
X26978000Y-12275000D03*
X22178000Y-24213000D03*
X20896000Y-12248000D03*
X29080000Y-14063000D03*
X17607000Y-16693000D03*
X18768000Y-14027000D03*
X24000000Y-11523000D03*
X17911000Y-20063000D03*
X19531000Y-22594000D03*
X30120000Y-20154000D03*
X30350000Y-16730000D03*
X25621000Y-24243000D03*
X28348000Y-22846000D03*
D18*
X115695000Y-64000000D03*
X118235000Y-64000000D03*
D19*
X120775000Y-64000000D03*
D18*
X101455000Y-64050000D03*
X103995000Y-64050000D03*
X106535000Y-64050000D03*
D19*
X109075000Y-64050000D03*
G04 #@! TA.AperFunction,SMDPad,CuDef*
D15*
G36*
X138880142Y-39676174D02*
G01*
X138903803Y-39679684D01*
X138927007Y-39685496D01*
X138949529Y-39693554D01*
X138971153Y-39703782D01*
X138991670Y-39716079D01*
X139010883Y-39730329D01*
X139028607Y-39746393D01*
X139044671Y-39764117D01*
X139058921Y-39783330D01*
X139071218Y-39803847D01*
X139081446Y-39825471D01*
X139089504Y-39847993D01*
X139095316Y-39871197D01*
X139098826Y-39894858D01*
X139100000Y-39918750D01*
X139100000Y-40406250D01*
X139098826Y-40430142D01*
X139095316Y-40453803D01*
X139089504Y-40477007D01*
X139081446Y-40499529D01*
X139071218Y-40521153D01*
X139058921Y-40541670D01*
X139044671Y-40560883D01*
X139028607Y-40578607D01*
X139010883Y-40594671D01*
X138991670Y-40608921D01*
X138971153Y-40621218D01*
X138949529Y-40631446D01*
X138927007Y-40639504D01*
X138903803Y-40645316D01*
X138880142Y-40648826D01*
X138856250Y-40650000D01*
X137943750Y-40650000D01*
X137919858Y-40648826D01*
X137896197Y-40645316D01*
X137872993Y-40639504D01*
X137850471Y-40631446D01*
X137828847Y-40621218D01*
X137808330Y-40608921D01*
X137789117Y-40594671D01*
X137771393Y-40578607D01*
X137755329Y-40560883D01*
X137741079Y-40541670D01*
X137728782Y-40521153D01*
X137718554Y-40499529D01*
X137710496Y-40477007D01*
X137704684Y-40453803D01*
X137701174Y-40430142D01*
X137700000Y-40406250D01*
X137700000Y-39918750D01*
X137701174Y-39894858D01*
X137704684Y-39871197D01*
X137710496Y-39847993D01*
X137718554Y-39825471D01*
X137728782Y-39803847D01*
X137741079Y-39783330D01*
X137755329Y-39764117D01*
X137771393Y-39746393D01*
X137789117Y-39730329D01*
X137808330Y-39716079D01*
X137828847Y-39703782D01*
X137850471Y-39693554D01*
X137872993Y-39685496D01*
X137896197Y-39679684D01*
X137919858Y-39676174D01*
X137943750Y-39675000D01*
X138856250Y-39675000D01*
X138880142Y-39676174D01*
G37*
G04 #@! TD.AperFunction*
G04 #@! TA.AperFunction,SMDPad,CuDef*
G36*
X138880142Y-41551174D02*
G01*
X138903803Y-41554684D01*
X138927007Y-41560496D01*
X138949529Y-41568554D01*
X138971153Y-41578782D01*
X138991670Y-41591079D01*
X139010883Y-41605329D01*
X139028607Y-41621393D01*
X139044671Y-41639117D01*
X139058921Y-41658330D01*
X139071218Y-41678847D01*
X139081446Y-41700471D01*
X139089504Y-41722993D01*
X139095316Y-41746197D01*
X139098826Y-41769858D01*
X139100000Y-41793750D01*
X139100000Y-42281250D01*
X139098826Y-42305142D01*
X139095316Y-42328803D01*
X139089504Y-42352007D01*
X139081446Y-42374529D01*
X139071218Y-42396153D01*
X139058921Y-42416670D01*
X139044671Y-42435883D01*
X139028607Y-42453607D01*
X139010883Y-42469671D01*
X138991670Y-42483921D01*
X138971153Y-42496218D01*
X138949529Y-42506446D01*
X138927007Y-42514504D01*
X138903803Y-42520316D01*
X138880142Y-42523826D01*
X138856250Y-42525000D01*
X137943750Y-42525000D01*
X137919858Y-42523826D01*
X137896197Y-42520316D01*
X137872993Y-42514504D01*
X137850471Y-42506446D01*
X137828847Y-42496218D01*
X137808330Y-42483921D01*
X137789117Y-42469671D01*
X137771393Y-42453607D01*
X137755329Y-42435883D01*
X137741079Y-42416670D01*
X137728782Y-42396153D01*
X137718554Y-42374529D01*
X137710496Y-42352007D01*
X137704684Y-42328803D01*
X137701174Y-42305142D01*
X137700000Y-42281250D01*
X137700000Y-41793750D01*
X137701174Y-41769858D01*
X137704684Y-41746197D01*
X137710496Y-41722993D01*
X137718554Y-41700471D01*
X137728782Y-41678847D01*
X137741079Y-41658330D01*
X137755329Y-41639117D01*
X137771393Y-41621393D01*
X137789117Y-41605329D01*
X137808330Y-41591079D01*
X137828847Y-41578782D01*
X137850471Y-41568554D01*
X137872993Y-41560496D01*
X137896197Y-41554684D01*
X137919858Y-41551174D01*
X137943750Y-41550000D01*
X138856250Y-41550000D01*
X138880142Y-41551174D01*
G37*
G04 #@! TD.AperFunction*
G04 #@! TA.AperFunction,SMDPad,CuDef*
G36*
X57480142Y-40751174D02*
G01*
X57503803Y-40754684D01*
X57527007Y-40760496D01*
X57549529Y-40768554D01*
X57571153Y-40778782D01*
X57591670Y-40791079D01*
X57610883Y-40805329D01*
X57628607Y-40821393D01*
X57644671Y-40839117D01*
X57658921Y-40858330D01*
X57671218Y-40878847D01*
X57681446Y-40900471D01*
X57689504Y-40922993D01*
X57695316Y-40946197D01*
X57698826Y-40969858D01*
X57700000Y-40993750D01*
X57700000Y-41481250D01*
X57698826Y-41505142D01*
X57695316Y-41528803D01*
X57689504Y-41552007D01*
X57681446Y-41574529D01*
X57671218Y-41596153D01*
X57658921Y-41616670D01*
X57644671Y-41635883D01*
X57628607Y-41653607D01*
X57610883Y-41669671D01*
X57591670Y-41683921D01*
X57571153Y-41696218D01*
X57549529Y-41706446D01*
X57527007Y-41714504D01*
X57503803Y-41720316D01*
X57480142Y-41723826D01*
X57456250Y-41725000D01*
X56543750Y-41725000D01*
X56519858Y-41723826D01*
X56496197Y-41720316D01*
X56472993Y-41714504D01*
X56450471Y-41706446D01*
X56428847Y-41696218D01*
X56408330Y-41683921D01*
X56389117Y-41669671D01*
X56371393Y-41653607D01*
X56355329Y-41635883D01*
X56341079Y-41616670D01*
X56328782Y-41596153D01*
X56318554Y-41574529D01*
X56310496Y-41552007D01*
X56304684Y-41528803D01*
X56301174Y-41505142D01*
X56300000Y-41481250D01*
X56300000Y-40993750D01*
X56301174Y-40969858D01*
X56304684Y-40946197D01*
X56310496Y-40922993D01*
X56318554Y-40900471D01*
X56328782Y-40878847D01*
X56341079Y-40858330D01*
X56355329Y-40839117D01*
X56371393Y-40821393D01*
X56389117Y-40805329D01*
X56408330Y-40791079D01*
X56428847Y-40778782D01*
X56450471Y-40768554D01*
X56472993Y-40760496D01*
X56496197Y-40754684D01*
X56519858Y-40751174D01*
X56543750Y-40750000D01*
X57456250Y-40750000D01*
X57480142Y-40751174D01*
G37*
G04 #@! TD.AperFunction*
G04 #@! TA.AperFunction,SMDPad,CuDef*
G36*
X57480142Y-38876174D02*
G01*
X57503803Y-38879684D01*
X57527007Y-38885496D01*
X57549529Y-38893554D01*
X57571153Y-38903782D01*
X57591670Y-38916079D01*
X57610883Y-38930329D01*
X57628607Y-38946393D01*
X57644671Y-38964117D01*
X57658921Y-38983330D01*
X57671218Y-39003847D01*
X57681446Y-39025471D01*
X57689504Y-39047993D01*
X57695316Y-39071197D01*
X57698826Y-39094858D01*
X57700000Y-39118750D01*
X57700000Y-39606250D01*
X57698826Y-39630142D01*
X57695316Y-39653803D01*
X57689504Y-39677007D01*
X57681446Y-39699529D01*
X57671218Y-39721153D01*
X57658921Y-39741670D01*
X57644671Y-39760883D01*
X57628607Y-39778607D01*
X57610883Y-39794671D01*
X57591670Y-39808921D01*
X57571153Y-39821218D01*
X57549529Y-39831446D01*
X57527007Y-39839504D01*
X57503803Y-39845316D01*
X57480142Y-39848826D01*
X57456250Y-39850000D01*
X56543750Y-39850000D01*
X56519858Y-39848826D01*
X56496197Y-39845316D01*
X56472993Y-39839504D01*
X56450471Y-39831446D01*
X56428847Y-39821218D01*
X56408330Y-39808921D01*
X56389117Y-39794671D01*
X56371393Y-39778607D01*
X56355329Y-39760883D01*
X56341079Y-39741670D01*
X56328782Y-39721153D01*
X56318554Y-39699529D01*
X56310496Y-39677007D01*
X56304684Y-39653803D01*
X56301174Y-39630142D01*
X56300000Y-39606250D01*
X56300000Y-39118750D01*
X56301174Y-39094858D01*
X56304684Y-39071197D01*
X56310496Y-39047993D01*
X56318554Y-39025471D01*
X56328782Y-39003847D01*
X56341079Y-38983330D01*
X56355329Y-38964117D01*
X56371393Y-38946393D01*
X56389117Y-38930329D01*
X56408330Y-38916079D01*
X56428847Y-38903782D01*
X56450471Y-38893554D01*
X56472993Y-38885496D01*
X56496197Y-38879684D01*
X56519858Y-38876174D01*
X56543750Y-38875000D01*
X57456250Y-38875000D01*
X57480142Y-38876174D01*
G37*
G04 #@! TD.AperFunction*
D23*
X71000000Y-71000000D03*
X129000000Y-71000000D03*
X129000000Y-48000000D03*
X71000000Y-48000000D03*
D18*
X124100000Y-46650000D03*
X124100000Y-49190000D03*
X121560000Y-46650000D03*
X121560000Y-49190000D03*
X119020000Y-46650000D03*
X119020000Y-49190000D03*
X116480000Y-46650000D03*
X116480000Y-49190000D03*
X113940000Y-46650000D03*
X113940000Y-49190000D03*
X111400000Y-46650000D03*
X111400000Y-49190000D03*
X108860000Y-46650000D03*
X108860000Y-49190000D03*
X106320000Y-46650000D03*
X106320000Y-49190000D03*
X103780000Y-46650000D03*
X103780000Y-49190000D03*
X101240000Y-46650000D03*
X101240000Y-49190000D03*
X98700000Y-46650000D03*
X98700000Y-49190000D03*
X96160000Y-46650000D03*
X96160000Y-49190000D03*
X93620000Y-46650000D03*
X93620000Y-49190000D03*
X91080000Y-46650000D03*
X91080000Y-49190000D03*
X88540000Y-46650000D03*
X88540000Y-49190000D03*
X86000000Y-46650000D03*
X86000000Y-49190000D03*
X83460000Y-46650000D03*
X83460000Y-49190000D03*
X80920000Y-46650000D03*
X80920000Y-49190000D03*
X78380000Y-46650000D03*
X78380000Y-49190000D03*
X75840000Y-46650000D03*
D19*
X75840000Y-49190000D03*
D10*
X181770000Y-5000000D03*
D11*
X171610000Y-5000000D03*
D10*
X157170000Y-5000000D03*
D11*
X147010000Y-5000000D03*
D10*
X53270000Y-5000000D03*
D11*
X43110000Y-5000000D03*
D10*
X117170000Y-5000000D03*
D11*
X107010000Y-5000000D03*
D10*
X136970000Y-5000000D03*
D11*
X126810000Y-5000000D03*
D10*
X72970000Y-5000000D03*
D11*
X62810000Y-5000000D03*
D10*
X28970000Y-5000000D03*
D11*
X18810000Y-5000000D03*
D24*
X173550000Y-16400000D03*
X173550000Y-19600000D03*
X178450000Y-16400000D03*
X178450000Y-19600000D03*
X149550000Y-16400000D03*
X149550000Y-19600000D03*
X154450000Y-16400000D03*
X154450000Y-19600000D03*
X109550000Y-16400000D03*
X109550000Y-19600000D03*
X114450000Y-16400000D03*
X114450000Y-19600000D03*
X85550000Y-16400000D03*
X85550000Y-19600000D03*
X90450000Y-16400000D03*
X90450000Y-19600000D03*
X45550000Y-16400000D03*
X45550000Y-19600000D03*
X50450000Y-16400000D03*
X50450000Y-19600000D03*
X21550000Y-16400000D03*
X21550000Y-19600000D03*
X26450000Y-16400000D03*
X26450000Y-19600000D03*
D25*
X66100000Y-61200000D03*
X148110000Y-16420000D03*
X171910000Y-16420000D03*
X83710000Y-16420000D03*
X107910000Y-16320000D03*
X44110000Y-16420000D03*
X20070539Y-16380539D03*
X54200000Y-70300000D03*
X115910000Y-19620000D03*
X155910000Y-19620000D03*
X180210000Y-19520000D03*
X51910000Y-19620000D03*
X28110000Y-19620000D03*
X91823999Y-19033999D03*
X54850000Y-45950000D03*
X87750000Y-58800000D03*
X179250000Y-43775000D03*
X51850000Y-38250000D03*
X23900000Y-21975000D03*
X83710000Y-18020000D03*
X52310000Y-17620000D03*
X107910000Y-17520000D03*
X92210000Y-17220000D03*
X130010000Y-38320000D03*
X67010000Y-36220000D03*
X97880000Y-36220000D03*
X100700000Y-37200000D03*
X70200000Y-37600000D03*
X103200000Y-32100000D03*
X69400000Y-35300000D03*
X131600000Y-42300000D03*
X106300000Y-42300000D03*
X68600000Y-42300000D03*
X128300000Y-42300000D03*
X63087500Y-41837500D03*
X140412500Y-42287500D03*
X96900000Y-39800000D03*
X103800000Y-39800000D03*
X94000000Y-38300000D03*
X104600000Y-37200000D03*
X91800000Y-53550000D03*
X72352500Y-53777500D03*
X90075000Y-51700000D03*
X70550000Y-52100000D03*
X54910000Y-38220000D03*
X54910000Y-29720000D03*
X68110000Y-24220000D03*
X63010000Y-30020000D03*
X88710000Y-30020000D03*
X70910000Y-30020000D03*
X122110000Y-25820000D03*
X125810000Y-38020000D03*
X144310000Y-28000000D03*
X144310000Y-38120000D03*
X133310000Y-37720000D03*
X63010000Y-37820000D03*
X190950000Y-20900000D03*
X87775000Y-60000000D03*
X159000000Y-45925000D03*
D26*
X70349499Y-27930501D02*
X70200000Y-28080000D01*
X70200000Y-21787500D02*
X70200000Y-28080000D01*
X69587500Y-21175000D02*
X69587500Y-18000000D01*
X70200000Y-21787500D02*
X69587500Y-21175000D01*
X124080000Y-27507500D02*
X133587500Y-18000000D01*
X124080000Y-30000000D02*
X124080000Y-27507500D01*
X66412500Y-11557500D02*
X72970000Y-5000000D01*
X66412500Y-18000000D02*
X66412500Y-11557500D01*
X21550000Y-19225922D02*
X30255922Y-10520000D01*
X21550000Y-19600000D02*
X21550000Y-19225922D01*
X30255922Y-10520000D02*
X46010000Y-10520000D01*
X49450000Y-16400000D02*
X50450000Y-16400000D01*
X46010000Y-12960000D02*
X49450000Y-16400000D01*
X46010000Y-10520000D02*
X46010000Y-12960000D01*
D27*
X21530539Y-16380539D02*
X21550000Y-16400000D01*
X20070539Y-16380539D02*
X21530539Y-16380539D01*
X45530000Y-16420000D02*
X45550000Y-16400000D01*
X44110000Y-16420000D02*
X45530000Y-16420000D01*
X109470000Y-16320000D02*
X109550000Y-16400000D01*
X107910000Y-16320000D02*
X109470000Y-16320000D01*
X85530000Y-16420000D02*
X85550000Y-16400000D01*
X83710000Y-16420000D02*
X85530000Y-16420000D01*
X173530000Y-16420000D02*
X173550000Y-16400000D01*
X171910000Y-16420000D02*
X173530000Y-16420000D01*
X149530000Y-16420000D02*
X149550000Y-16400000D01*
X148110000Y-16420000D02*
X149530000Y-16420000D01*
X63405000Y-61200000D02*
X63250000Y-61355000D01*
X66100000Y-61200000D02*
X63405000Y-61200000D01*
X80000000Y-62530000D02*
X80875000Y-62530000D01*
X67995685Y-62530000D02*
X80000000Y-62530000D01*
X66665685Y-61200000D02*
X67995685Y-62530000D01*
X66100000Y-61200000D02*
X66665685Y-61200000D01*
X20090000Y-16400000D02*
X20070539Y-16380539D01*
D28*
X67810000Y-39930000D02*
X67800000Y-39920000D01*
D26*
X50470000Y-19620000D02*
X50450000Y-19600000D01*
X51910000Y-19620000D02*
X50470000Y-19620000D01*
X91257998Y-19600000D02*
X91823999Y-19033999D01*
X90450000Y-19600000D02*
X91257998Y-19600000D01*
D28*
X180130000Y-19600000D02*
X180210000Y-19520000D01*
X178450000Y-19600000D02*
X180130000Y-19600000D01*
X154470000Y-19620000D02*
X154450000Y-19600000D01*
X155910000Y-19620000D02*
X154470000Y-19620000D01*
X114470000Y-19620000D02*
X114450000Y-19600000D01*
X115910000Y-19620000D02*
X114470000Y-19620000D01*
X26470000Y-19620000D02*
X26450000Y-19600000D01*
X28110000Y-19620000D02*
X26470000Y-19620000D01*
D27*
X91080000Y-39225000D02*
X91080000Y-46650000D01*
X95555000Y-34750000D02*
X91080000Y-39225000D01*
D26*
X66069990Y-42650010D02*
X67800000Y-40920000D01*
X60208160Y-42650010D02*
X66069990Y-42650010D01*
X138337500Y-40100000D02*
X138400000Y-40162500D01*
X54255000Y-70245000D02*
X54200000Y-70300000D01*
X56750000Y-70245000D02*
X54255000Y-70245000D01*
X135537499Y-43025001D02*
X138400000Y-40162500D01*
X125574999Y-46355999D02*
X128905997Y-43025001D01*
X125574999Y-47715001D02*
X125574999Y-46355999D01*
X128905997Y-43025001D02*
X135537499Y-43025001D01*
X124100000Y-49190000D02*
X125574999Y-47715001D01*
X130800000Y-41130998D02*
X130800000Y-39920000D01*
X128905997Y-43025001D02*
X130800000Y-41130998D01*
X67800000Y-40920000D02*
X67800000Y-40700000D01*
X67800000Y-40700000D02*
X67800000Y-39920000D01*
X67800000Y-42573002D02*
X67800000Y-40700000D01*
X69801997Y-44574999D02*
X67800000Y-42573002D01*
X78844999Y-44574999D02*
X69801997Y-44574999D01*
X80920000Y-46650000D02*
X78844999Y-44574999D01*
X58795650Y-41237500D02*
X57000000Y-41237500D01*
X60208160Y-42650010D02*
X58795650Y-41237500D01*
D27*
X54850000Y-43387500D02*
X57000000Y-41237500D01*
X54850000Y-45950000D02*
X54850000Y-43387500D01*
X87670000Y-58720000D02*
X87750000Y-58800000D01*
X86025000Y-58720000D02*
X87670000Y-58720000D01*
X179762500Y-44287500D02*
X179250000Y-43775000D01*
X181650000Y-44287500D02*
X179762500Y-44287500D01*
D29*
X177850000Y-68130000D02*
X177850000Y-52275000D01*
X175305000Y-70675000D02*
X177850000Y-68130000D01*
D26*
X23900000Y-19700000D02*
X23900000Y-21975000D01*
X26450000Y-17150000D02*
X23900000Y-19700000D01*
X26450000Y-16400000D02*
X26450000Y-17150000D01*
X57875010Y-62950010D02*
X57550000Y-62625000D01*
X57875010Y-64224078D02*
X57875010Y-62950010D01*
X57604078Y-64495010D02*
X57875010Y-64224078D01*
X55825942Y-64495010D02*
X57604078Y-64495010D01*
X51850000Y-60519068D02*
X55825942Y-64495010D01*
X57550000Y-62625000D02*
X56750000Y-62625000D01*
X51850000Y-38250000D02*
X51850000Y-60519068D01*
X45550000Y-19600000D02*
X46550000Y-19600000D01*
X48530000Y-17620000D02*
X52310000Y-17620000D01*
X46550000Y-19600000D02*
X48530000Y-17620000D01*
X90450000Y-17150000D02*
X90450000Y-16400000D01*
X89580000Y-18020000D02*
X90450000Y-17150000D01*
X83710000Y-18020000D02*
X89580000Y-18020000D01*
X90655001Y-18774999D02*
X92210000Y-17220000D01*
X85625001Y-18774999D02*
X90655001Y-18774999D01*
X85550000Y-18850000D02*
X85625001Y-18774999D01*
X85550000Y-19600000D02*
X85550000Y-18850000D01*
X114450000Y-17150000D02*
X114450000Y-16400000D01*
X114080000Y-17520000D02*
X114450000Y-17150000D01*
X107910000Y-17520000D02*
X114080000Y-17520000D01*
X151456998Y-16400000D02*
X154450000Y-16400000D01*
X147820999Y-12764001D02*
X151456998Y-16400000D01*
X116787997Y-12764001D02*
X147820999Y-12764001D01*
X115525001Y-14026997D02*
X116787997Y-12764001D01*
X115525001Y-17160001D02*
X115525001Y-14026997D01*
X114565002Y-18120000D02*
X115525001Y-17160001D01*
X109550000Y-18850000D02*
X110280000Y-18120000D01*
X110280000Y-18120000D02*
X114565002Y-18120000D01*
X109550000Y-19600000D02*
X109550000Y-18850000D01*
X175525078Y-16400000D02*
X178450000Y-16400000D01*
X150550000Y-19600000D02*
X152924999Y-17225001D01*
X152924999Y-17225001D02*
X155460001Y-17225001D01*
X149550000Y-19600000D02*
X150550000Y-19600000D01*
X171889079Y-12764001D02*
X175525078Y-16400000D01*
X156787997Y-12764001D02*
X171889079Y-12764001D01*
X156004999Y-13546999D02*
X156787997Y-12764001D01*
X156004999Y-16680003D02*
X156004999Y-13546999D01*
X155460001Y-17225001D02*
X156004999Y-16680003D01*
X130010000Y-39910000D02*
X130000000Y-39920000D01*
X130010000Y-38320000D02*
X130010000Y-39910000D01*
X67000000Y-36230000D02*
X67010000Y-36220000D01*
X67000000Y-39920000D02*
X67000000Y-36230000D01*
X67000000Y-39920000D02*
X67000000Y-38920000D01*
X98095000Y-36005000D02*
X97880000Y-36220000D01*
X98095000Y-34750000D02*
X98095000Y-36005000D01*
X70200000Y-40445000D02*
X70200000Y-39920000D01*
X70200000Y-39920000D02*
X70200000Y-37600000D01*
X100700000Y-34815000D02*
X100635000Y-34750000D01*
X100700000Y-37200000D02*
X100700000Y-34815000D01*
X69400000Y-40445000D02*
X69400000Y-39920000D01*
X129661999Y-37594999D02*
X131074999Y-37594999D01*
X128412008Y-38844990D02*
X129661999Y-37594999D01*
X131074999Y-37594999D02*
X132400000Y-38920000D01*
X119687776Y-38844990D02*
X128412008Y-38844990D01*
X114467776Y-33624990D02*
X119687776Y-38844990D01*
X132400000Y-38920000D02*
X132400000Y-39920000D01*
X103500010Y-33624990D02*
X114467776Y-33624990D01*
X103175000Y-33950000D02*
X103500010Y-33624990D01*
X103175000Y-34750000D02*
X103175000Y-33950000D01*
X69400000Y-39920000D02*
X69400000Y-35300000D01*
X103200000Y-34725000D02*
X103175000Y-34750000D01*
X103200000Y-32100000D02*
X103200000Y-34725000D01*
D30*
X138650000Y-42287500D02*
X138400000Y-42037500D01*
X142400000Y-42287500D02*
X140412500Y-42287500D01*
D26*
X66200000Y-40920000D02*
X66200000Y-39920000D01*
X65282500Y-41837500D02*
X66200000Y-40920000D01*
X60900000Y-41837500D02*
X63087500Y-41837500D01*
X131600000Y-42300000D02*
X131600000Y-39920000D01*
X105250000Y-41250000D02*
X106300000Y-42300000D01*
X104445000Y-41250000D02*
X105250000Y-41250000D01*
X68600000Y-42300000D02*
X68600000Y-39920000D01*
X69620000Y-42300000D02*
X68600000Y-42300000D01*
X71000000Y-40920000D02*
X69620000Y-42300000D01*
X71000000Y-39920000D02*
X71000000Y-40920000D01*
X129200000Y-41400000D02*
X129200000Y-39920000D01*
X128300000Y-42300000D02*
X129200000Y-41400000D01*
X132620000Y-42300000D02*
X131600000Y-42300000D01*
X134000000Y-40920000D02*
X132620000Y-42300000D01*
X134000000Y-39920000D02*
X134000000Y-40920000D01*
X58425000Y-39362500D02*
X60900000Y-41837500D01*
X57000000Y-39362500D02*
X58425000Y-39362500D01*
X63087500Y-41837500D02*
X65282500Y-41837500D01*
D30*
X140412500Y-42287500D02*
X138650000Y-42287500D01*
D29*
X170225000Y-52280000D02*
X170230000Y-52275000D01*
X170225000Y-70675000D02*
X170225000Y-52280000D01*
D26*
X116480000Y-62245000D02*
X118235000Y-64000000D01*
X116480000Y-49190000D02*
X116480000Y-62245000D01*
X115695000Y-62797919D02*
X115695000Y-64000000D01*
X115115001Y-62217920D02*
X115695000Y-62797919D01*
X115115001Y-47825001D02*
X115115001Y-62217920D01*
X113940000Y-46650000D02*
X115115001Y-47825001D01*
X102574990Y-35419990D02*
X101905000Y-34750000D01*
X102574990Y-45444990D02*
X102574990Y-35419990D01*
X103780000Y-46650000D02*
X102574990Y-45444990D01*
X96825000Y-39725000D02*
X96900000Y-39800000D01*
X96825000Y-34750000D02*
X96825000Y-39725000D01*
X103800000Y-42129068D02*
X103800000Y-39800000D01*
X104955001Y-43284069D02*
X103800000Y-42129068D01*
X104955001Y-47214001D02*
X104955001Y-43284069D01*
X103780000Y-48389002D02*
X104955001Y-47214001D01*
X103780000Y-49190000D02*
X103780000Y-48389002D01*
X99090000Y-35025000D02*
X99365000Y-34750000D01*
X98695010Y-35419990D02*
X99090000Y-35025000D01*
X98695010Y-42104078D02*
X98695010Y-35419990D01*
X97335001Y-43464087D02*
X98695010Y-42104078D01*
X97335001Y-47825001D02*
X97335001Y-43464087D01*
X98700000Y-49190000D02*
X97335001Y-47825001D01*
X96160000Y-49465000D02*
X96160000Y-49190000D01*
X91800000Y-53550000D02*
X96160000Y-49190000D01*
X57025000Y-61080000D02*
X56750000Y-61355000D01*
X57530010Y-60574990D02*
X57025000Y-61080000D01*
X65555010Y-60574990D02*
X57530010Y-60574990D01*
X75840000Y-50290000D02*
X72352500Y-53777500D01*
X75840000Y-49190000D02*
X75840000Y-50290000D01*
X104445000Y-37045000D02*
X104600000Y-37200000D01*
X104445000Y-34750000D02*
X104445000Y-37045000D01*
X94000000Y-41149088D02*
X94000000Y-38300000D01*
X94984999Y-42134087D02*
X94000000Y-41149088D01*
X94984999Y-48014999D02*
X94984999Y-42134087D01*
X96160000Y-49190000D02*
X94984999Y-48014999D01*
X72352500Y-53777500D02*
X65555010Y-60574990D01*
X77125000Y-56887500D02*
X73425000Y-56887500D01*
X73425000Y-54850000D02*
X72352500Y-53777500D01*
X73425000Y-56887500D02*
X73425000Y-54850000D01*
X109075000Y-62105000D02*
X109075000Y-64050000D01*
X96160000Y-49190000D02*
X109075000Y-62105000D01*
X89715001Y-47825001D02*
X88540000Y-46650000D01*
X89715001Y-50774316D02*
X89715001Y-47825001D01*
X90075000Y-51134315D02*
X89715001Y-50774316D01*
X90075000Y-51700000D02*
X90075000Y-51134315D01*
X55950000Y-63895000D02*
X56750000Y-63895000D01*
X55624990Y-63569990D02*
X55950000Y-63895000D01*
X55624990Y-61025922D02*
X55624990Y-63569990D01*
X64550912Y-52100000D02*
X55624990Y-61025922D01*
X70550000Y-52100000D02*
X64550912Y-52100000D01*
X84824999Y-45474999D02*
X86000000Y-46650000D01*
X82284999Y-46085999D02*
X82895999Y-45474999D01*
X82895999Y-47825001D02*
X82284999Y-47214001D01*
X83998591Y-47825001D02*
X82895999Y-47825001D01*
X84824999Y-48651409D02*
X83998591Y-47825001D01*
X82895999Y-45474999D02*
X84824999Y-45474999D01*
X82284999Y-47214001D02*
X82284999Y-46085999D01*
X84824999Y-49754001D02*
X84824999Y-48651409D01*
X103145001Y-63200001D02*
X103995000Y-64050000D01*
X103995000Y-64050000D02*
X94670011Y-54725011D01*
X89796008Y-54725010D02*
X84824999Y-49754001D01*
X94670011Y-54725011D02*
X89796008Y-54725010D01*
X84824999Y-48014999D02*
X83460000Y-46650000D01*
X86564001Y-48014999D02*
X84824999Y-48014999D01*
X87175001Y-48625999D02*
X86564001Y-48014999D01*
X87175001Y-49998003D02*
X87175001Y-48625999D01*
X96760001Y-54275001D02*
X91451999Y-54275001D01*
X91451999Y-54275001D02*
X87175001Y-49998003D01*
X106535000Y-64050000D02*
X96760001Y-54275001D01*
X73425000Y-60575000D02*
X73425000Y-59862500D01*
X77988180Y-60900010D02*
X73750010Y-60900010D01*
X73750010Y-60900010D02*
X73425000Y-60575000D01*
X78898190Y-59990000D02*
X77988180Y-60900010D01*
X80875000Y-59990000D02*
X78898190Y-59990000D01*
X82075010Y-50345010D02*
X80920000Y-49190000D01*
X82075010Y-59664990D02*
X82075010Y-50345010D01*
X81750000Y-59990000D02*
X82075010Y-59664990D01*
X80875000Y-59990000D02*
X81750000Y-59990000D01*
X79142500Y-58720000D02*
X80000000Y-58720000D01*
X80000000Y-58720000D02*
X80875000Y-58720000D01*
X78000000Y-59862500D02*
X79142500Y-58720000D01*
X77125000Y-59862500D02*
X78000000Y-59862500D01*
X78380000Y-56225000D02*
X80875000Y-58720000D01*
X78380000Y-49190000D02*
X78380000Y-56225000D01*
X31965000Y-34000000D02*
X22178000Y-24213000D01*
X61080000Y-34000000D02*
X31965000Y-34000000D01*
X31458754Y-14063000D02*
X29080000Y-14063000D01*
X47115754Y-29720000D02*
X31458754Y-14063000D01*
X54910000Y-29720000D02*
X47115754Y-29720000D01*
X60860000Y-38220000D02*
X61080000Y-38000000D01*
X54910000Y-38220000D02*
X60860000Y-38220000D01*
X16881999Y-17418001D02*
X17607000Y-16693000D01*
X31068574Y-36400000D02*
X16881999Y-22213425D01*
X61080000Y-36400000D02*
X31068574Y-36400000D01*
X16835999Y-17464001D02*
X17607000Y-16693000D01*
X16835999Y-20579001D02*
X16835999Y-17464001D01*
X16881999Y-20625001D02*
X16835999Y-20579001D01*
X16881999Y-22213425D02*
X16881999Y-20625001D01*
X31232164Y-37200000D02*
X16431989Y-22399825D01*
X61080000Y-37200000D02*
X31232164Y-37200000D01*
X17707340Y-14027000D02*
X18768000Y-14027000D01*
X16385989Y-15348351D02*
X17707340Y-14027000D01*
X16385989Y-20765401D02*
X16385989Y-15348351D01*
X16431989Y-20811401D02*
X16385989Y-20765401D01*
X16431989Y-22399825D02*
X16431989Y-20811401D01*
X17911000Y-22606016D02*
X17911000Y-20063000D01*
X30904984Y-35600000D02*
X17911000Y-22606016D01*
X61080000Y-35600000D02*
X30904984Y-35600000D01*
X19531000Y-23589606D02*
X19531000Y-22594000D01*
X30741394Y-34800000D02*
X19531000Y-23589606D01*
X61080000Y-34800000D02*
X30741394Y-34800000D01*
X41566000Y-31600000D02*
X30120000Y-20154000D01*
X61080000Y-31600000D02*
X41566000Y-31600000D01*
X44420000Y-30800000D02*
X30350000Y-16730000D01*
X61080000Y-30800000D02*
X44420000Y-30800000D01*
X34578000Y-33200000D02*
X25621000Y-24243000D01*
X61080000Y-33200000D02*
X34578000Y-33200000D01*
X37902000Y-32400000D02*
X28348000Y-22846000D01*
X61080000Y-32400000D02*
X37902000Y-32400000D01*
X47283001Y-25318001D02*
X46178000Y-24213000D01*
X64438001Y-25318001D02*
X47283001Y-25318001D01*
X66200000Y-27080000D02*
X64438001Y-25318001D01*
X66200000Y-28080000D02*
X66200000Y-27080000D01*
X62990000Y-30000000D02*
X63010000Y-30020000D01*
X61080000Y-30000000D02*
X62990000Y-30000000D01*
X57953000Y-14063000D02*
X53080000Y-14063000D01*
X68110000Y-24220000D02*
X57953000Y-14063000D01*
X40881999Y-17418001D02*
X41607000Y-16693000D01*
X40835999Y-17464001D02*
X41607000Y-16693000D01*
X40835999Y-22167425D02*
X40835999Y-17464001D01*
X45336605Y-26668031D02*
X40835999Y-22167425D01*
X63388031Y-26668031D02*
X45336605Y-26668031D01*
X63800000Y-27080000D02*
X63388031Y-26668031D01*
X63800000Y-28080000D02*
X63800000Y-27080000D01*
X40385989Y-15348351D02*
X41707340Y-14027000D01*
X40385989Y-22353825D02*
X40385989Y-15348351D01*
X41707340Y-14027000D02*
X42768000Y-14027000D01*
X46112164Y-28080000D02*
X40385989Y-22353825D01*
X63000000Y-28080000D02*
X46112164Y-28080000D01*
X41911000Y-22606016D02*
X41911000Y-20063000D01*
X63738021Y-26218021D02*
X45523005Y-26218021D01*
X64600000Y-27080000D02*
X63738021Y-26218021D01*
X45523005Y-26218021D02*
X41911000Y-22606016D01*
X64600000Y-28080000D02*
X64600000Y-27080000D01*
X43531000Y-23589606D02*
X43531000Y-22594000D01*
X45709405Y-25768011D02*
X43531000Y-23589606D01*
X64088011Y-25768011D02*
X45709405Y-25768011D01*
X65400000Y-27080000D02*
X64088011Y-25768011D01*
X65400000Y-28080000D02*
X65400000Y-27080000D01*
X61674000Y-20154000D02*
X54120000Y-20154000D01*
X68600000Y-27080000D02*
X61674000Y-20154000D01*
X68600000Y-28080000D02*
X68600000Y-27080000D01*
X59050000Y-16730000D02*
X54350000Y-16730000D01*
X69400000Y-27080000D02*
X59050000Y-16730000D01*
X69400000Y-28080000D02*
X69400000Y-27080000D01*
X64163000Y-24243000D02*
X49621000Y-24243000D01*
X67000000Y-27080000D02*
X64163000Y-24243000D01*
X67000000Y-28080000D02*
X67000000Y-27080000D01*
X63566000Y-22846000D02*
X52348000Y-22846000D01*
X67800000Y-27080000D02*
X63566000Y-22846000D01*
X67800000Y-28080000D02*
X67800000Y-27080000D01*
X77191000Y-33200000D02*
X86178000Y-24213000D01*
X72920000Y-33200000D02*
X77191000Y-33200000D01*
X71000000Y-29930000D02*
X70910000Y-30020000D01*
X71000000Y-28080000D02*
X71000000Y-29930000D01*
X94075606Y-14063000D02*
X93080000Y-14063000D01*
X95724019Y-15711413D02*
X94075606Y-14063000D01*
X95724019Y-23005981D02*
X95724019Y-15711413D01*
X88710000Y-30020000D02*
X95724019Y-23005981D01*
X80835999Y-17464001D02*
X81607000Y-16693000D01*
X80835999Y-23884001D02*
X80835999Y-17464001D01*
X73920000Y-30800000D02*
X80835999Y-23884001D01*
X72920000Y-30800000D02*
X73920000Y-30800000D01*
X81707340Y-14027000D02*
X82768000Y-14027000D01*
X72920000Y-22814340D02*
X81707340Y-14027000D01*
X72920000Y-30000000D02*
X72920000Y-22814340D01*
X81911000Y-23609000D02*
X81911000Y-20063000D01*
X73920000Y-31600000D02*
X81911000Y-23609000D01*
X72920000Y-31600000D02*
X73920000Y-31600000D01*
X83531000Y-23589606D02*
X83531000Y-22594000D01*
X74720606Y-32400000D02*
X83531000Y-23589606D01*
X72920000Y-32400000D02*
X74720606Y-32400000D01*
X81226016Y-35600000D02*
X72920000Y-35600000D01*
X94823999Y-22002017D02*
X81226016Y-35600000D01*
X94823999Y-20857999D02*
X94823999Y-22002017D01*
X94120000Y-20154000D02*
X94823999Y-20857999D01*
X95274009Y-17654009D02*
X94350000Y-16730000D01*
X95274009Y-22188417D02*
X95274009Y-17654009D01*
X81062426Y-36400000D02*
X95274009Y-22188417D01*
X72920000Y-36400000D02*
X81062426Y-36400000D01*
X79864000Y-34000000D02*
X89621000Y-24243000D01*
X72920000Y-34000000D02*
X79864000Y-34000000D01*
X92348000Y-23841606D02*
X92348000Y-22846000D01*
X81389606Y-34800000D02*
X92348000Y-23841606D01*
X72920000Y-34800000D02*
X81389606Y-34800000D01*
X110178000Y-24213000D02*
X119965000Y-34000000D01*
X123430000Y-34000000D02*
X124080000Y-34000000D01*
X119965000Y-34000000D02*
X123430000Y-34000000D01*
X125790000Y-38000000D02*
X125810000Y-38020000D01*
X124080000Y-38000000D02*
X125790000Y-38000000D01*
X117783999Y-14766999D02*
X117080000Y-14063000D01*
X117909921Y-14766999D02*
X117783999Y-14766999D01*
X122110000Y-18967078D02*
X117909921Y-14766999D01*
X122110000Y-25820000D02*
X122110000Y-18967078D01*
X101710000Y-19594394D02*
X118515606Y-36400000D01*
X123080000Y-36400000D02*
X124080000Y-36400000D01*
X120035001Y-36394999D02*
X123074999Y-36394999D01*
X120030000Y-36400000D02*
X120035001Y-36394999D01*
X123074999Y-36394999D02*
X123080000Y-36400000D01*
X118515606Y-36400000D02*
X120030000Y-36400000D01*
X101710000Y-19594394D02*
X101710000Y-18020000D01*
X103037000Y-16693000D02*
X105607000Y-16693000D01*
X101710000Y-18020000D02*
X103037000Y-16693000D01*
X124000000Y-37120000D02*
X124080000Y-37200000D01*
X105066590Y-14027000D02*
X106768000Y-14027000D01*
X101259991Y-17833599D02*
X105066590Y-14027000D01*
X101259990Y-19780794D02*
X101259991Y-17833599D01*
X118679196Y-37200000D02*
X101259990Y-19780794D01*
X124080000Y-37200000D02*
X118679196Y-37200000D01*
X105911000Y-22496922D02*
X119014078Y-35600000D01*
X105911000Y-20063000D02*
X105911000Y-22496922D01*
X119014078Y-35600000D02*
X124080000Y-35600000D01*
X108234999Y-23297999D02*
X107531000Y-22594000D01*
X108234999Y-23792921D02*
X108234999Y-23297999D01*
X119242078Y-34800000D02*
X108234999Y-23792921D01*
X124080000Y-34800000D02*
X119242078Y-34800000D01*
X118120000Y-26640000D02*
X118120000Y-20154000D01*
X123080000Y-31600000D02*
X118120000Y-26640000D01*
X124080000Y-31600000D02*
X123080000Y-31600000D01*
X124080000Y-30800000D02*
X123555000Y-30800000D01*
X124080000Y-30800000D02*
X123577169Y-30800000D01*
X119195001Y-17575001D02*
X118350000Y-16730000D01*
X119195001Y-26915001D02*
X119195001Y-17575001D01*
X123080000Y-30800000D02*
X119195001Y-26915001D01*
X124080000Y-30800000D02*
X123080000Y-30800000D01*
X122578000Y-33200000D02*
X113621000Y-24243000D01*
X123950000Y-33200000D02*
X122578000Y-33200000D01*
X116348000Y-25668000D02*
X116348000Y-22846000D01*
X123080000Y-32400000D02*
X116348000Y-25668000D01*
X124080000Y-32400000D02*
X123080000Y-32400000D01*
X130000000Y-28080000D02*
X130000000Y-27555000D01*
X130000000Y-27154998D02*
X132879998Y-24275000D01*
X130000000Y-27950000D02*
X130000000Y-27154998D01*
X133475000Y-24275000D02*
X150178000Y-24213000D01*
X132879998Y-24275000D02*
X133475000Y-24275000D01*
X158140660Y-14063000D02*
X157080000Y-14063000D01*
X159645011Y-15567351D02*
X158140660Y-14063000D01*
X159645011Y-22453825D02*
X159645011Y-15567351D01*
X152943826Y-29155010D02*
X159645011Y-22453825D01*
X126075010Y-29155010D02*
X152943826Y-29155010D01*
X126000000Y-29080000D02*
X126075010Y-29155010D01*
X126000000Y-28080000D02*
X126000000Y-29080000D01*
X127600000Y-28080000D02*
X127600000Y-27555000D01*
X138079998Y-16675000D02*
X138375000Y-16675000D01*
X127600000Y-27154998D02*
X138079998Y-16675000D01*
X127600000Y-27950000D02*
X127600000Y-27154998D01*
X138375000Y-16675000D02*
X145607000Y-16693000D01*
X138462000Y-16693000D02*
X138375000Y-16675000D01*
X126800000Y-28080000D02*
X126800000Y-27577169D01*
X139700000Y-14050000D02*
X140400000Y-14050000D01*
X126800000Y-26950000D02*
X139700000Y-14050000D01*
X126800000Y-27950000D02*
X126800000Y-26950000D01*
X140400000Y-14050000D02*
X146768000Y-14027000D01*
X140350169Y-14027000D02*
X140400000Y-14050000D01*
X128400000Y-28080000D02*
X128400000Y-27555000D01*
X135491998Y-20063000D02*
X136063000Y-20063000D01*
X128400000Y-27154998D02*
X135491998Y-20063000D01*
X128400000Y-27950000D02*
X128400000Y-27154998D01*
X136063000Y-20063000D02*
X145911000Y-20063000D01*
X135892000Y-20063000D02*
X136063000Y-20063000D01*
X133760998Y-22594000D02*
X147531000Y-22594000D01*
X129200000Y-28080000D02*
X129200000Y-27577169D01*
X129200000Y-27154998D02*
X133760998Y-22594000D01*
X129200000Y-27950000D02*
X129200000Y-27154998D01*
X158200000Y-22500000D02*
X158120000Y-22706016D01*
X158120000Y-20154000D02*
X158200000Y-22500000D01*
X132400000Y-27555000D02*
X132400000Y-28080000D01*
X154637995Y-26188021D02*
X133766979Y-26188021D01*
X158200000Y-22626016D02*
X154637995Y-26188021D01*
X158200000Y-22500000D02*
X158200000Y-22626016D01*
X133605000Y-26350000D02*
X133766979Y-26188021D01*
X133204998Y-26350000D02*
X133605000Y-26350000D01*
X132400000Y-27154998D02*
X133204998Y-26350000D01*
X132400000Y-27950000D02*
X132400000Y-27154998D01*
X133200000Y-27577169D02*
X133200000Y-28080000D01*
X133200000Y-27555000D02*
X133200000Y-28080000D01*
X154824396Y-26638030D02*
X134116970Y-26638030D01*
X159195001Y-22267425D02*
X154824396Y-26638030D01*
X159195001Y-18635661D02*
X159195001Y-22267425D01*
X158350000Y-17790660D02*
X159195001Y-18635661D01*
X158350000Y-16730000D02*
X158350000Y-17790660D01*
X133954990Y-26800010D02*
X134116970Y-26638030D01*
X133554988Y-26800010D02*
X133954990Y-26800010D01*
X133200000Y-27154998D02*
X133554988Y-26800010D01*
X133200000Y-27950000D02*
X133200000Y-27154998D01*
X130800000Y-27555000D02*
X130800000Y-28080000D01*
X152575999Y-25288001D02*
X153621000Y-24243000D01*
X132666997Y-25288001D02*
X152575999Y-25288001D01*
X130800000Y-27154998D02*
X132666997Y-25288001D01*
X130800000Y-27950000D02*
X130800000Y-27154998D01*
X131600000Y-28080000D02*
X131600000Y-27577169D01*
X131600000Y-27555000D02*
X131600000Y-28080000D01*
X154451595Y-25738011D02*
X133416989Y-25738011D01*
X156348000Y-23841606D02*
X154451595Y-25738011D01*
X156348000Y-22846000D02*
X156348000Y-23841606D01*
X133004962Y-25750036D02*
X133416997Y-25749783D01*
X131600000Y-27154998D02*
X133004962Y-25750036D01*
X131600000Y-27950000D02*
X131600000Y-27154998D01*
X165191000Y-33200000D02*
X135920000Y-33200000D01*
X174178000Y-24213000D02*
X165191000Y-33200000D01*
X134080000Y-28000000D02*
X134000000Y-28080000D01*
X144310000Y-28000000D02*
X134080000Y-28000000D01*
X183645011Y-15567351D02*
X182140660Y-14063000D01*
X182140660Y-14063000D02*
X181080000Y-14063000D01*
X167978836Y-38120000D02*
X183645011Y-22453825D01*
X183645011Y-22453825D02*
X183645011Y-15567351D01*
X144310000Y-38120000D02*
X167978836Y-38120000D01*
X155500000Y-30800000D02*
X135920000Y-30800000D01*
X169607000Y-16693000D02*
X155500000Y-30800000D01*
X135920000Y-30000000D02*
X154795000Y-30000000D01*
X169707340Y-14027000D02*
X154800000Y-28934340D01*
X170768000Y-14027000D02*
X169707340Y-14027000D01*
X154800000Y-29995000D02*
X154795000Y-30000000D01*
X154800000Y-28934340D02*
X154800000Y-29995000D01*
X181770000Y-5753000D02*
X181770000Y-5000000D01*
X155336410Y-31600000D02*
X135920000Y-31600000D01*
X166169411Y-20766999D02*
X155336410Y-31600000D01*
X169207001Y-20766999D02*
X166169411Y-20766999D01*
X169911000Y-20063000D02*
X169207001Y-20766999D01*
X161725000Y-32400000D02*
X135920000Y-32400000D01*
X171531000Y-22594000D02*
X161725000Y-32400000D01*
X182120000Y-22706016D02*
X182120000Y-20154000D01*
X169226016Y-35600000D02*
X182120000Y-22706016D01*
X135920000Y-35600000D02*
X169226016Y-35600000D01*
X183195001Y-17575001D02*
X182350000Y-16730000D01*
X183195001Y-20670001D02*
X183195001Y-17575001D01*
X183149001Y-22313425D02*
X183149001Y-20716001D01*
X169062426Y-36400000D02*
X183149001Y-22313425D01*
X183149001Y-20716001D02*
X183195001Y-20670001D01*
X135920000Y-36400000D02*
X169062426Y-36400000D01*
X167864000Y-34000000D02*
X135920000Y-34000000D01*
X177621000Y-24243000D02*
X167864000Y-34000000D01*
X169389606Y-34800000D02*
X135920000Y-34800000D01*
X180348000Y-23841606D02*
X169389606Y-34800000D01*
X180348000Y-22846000D02*
X180348000Y-23841606D01*
X63000000Y-37830000D02*
X63010000Y-37820000D01*
X63000000Y-39920000D02*
X63000000Y-37830000D01*
X133310000Y-39810000D02*
X133200000Y-39920000D01*
X133310000Y-37720000D02*
X133310000Y-39810000D01*
X134902500Y-39312500D02*
X133310000Y-37720000D01*
X142400000Y-39312500D02*
X134902500Y-39312500D01*
X88565000Y-61260000D02*
X88725000Y-61100000D01*
X86115000Y-61350000D02*
X86025000Y-61260000D01*
X88700000Y-61350000D02*
X86115000Y-61350000D01*
X86095000Y-62600000D02*
X86025000Y-62530000D01*
X87980000Y-62530000D02*
X88700000Y-63250000D01*
X86025000Y-62530000D02*
X87980000Y-62530000D01*
X86040000Y-59975000D02*
X86025000Y-59990000D01*
X166324999Y-45525001D02*
X190950000Y-20900000D01*
X159399999Y-45525001D02*
X166324999Y-45525001D01*
X159000000Y-45925000D02*
X159399999Y-45525001D01*
X87765000Y-59990000D02*
X87775000Y-60000000D01*
X86025000Y-59990000D02*
X87765000Y-59990000D01*
X181660000Y-47272500D02*
X181650000Y-47262500D01*
X181660000Y-52275000D02*
X181660000Y-47272500D01*
M02*
