M48
; DRILL file {KiCad 5.1.5+dfsg1-2build2} date Sun 19 Jul 2020 10:13:47 PM CDT
; FORMAT={-:-/ absolute / inch / decimal}
; #@! TF.CreationDate,2020-07-19T22:13:47-05:00
; #@! TF.GenerationSoftware,Kicad,Pcbnew,5.1.5+dfsg1-2build2
FMAT,2
INCH
T1C0.0157
T2C0.0197
T3C0.0315
T4C0.0394
T5C0.0400
T6C0.0591
T7C0.1083
%
G90
G05
T1
X0.7902Y-0.6449
X0.9409Y-0.8652
X1.1067Y-0.7724
X1.7366Y-0.6465
X2.0413Y-1.5059
X2.0437Y-0.7724
X2.0594Y-0.6937
X2.1339Y-2.7677
X2.1594Y-1.8091
X2.1618Y-1.1701
X2.1618Y-1.5047
X2.4807Y-1.1819
X2.4807Y-1.489
X2.4838Y-1.6471
X2.6024Y-2.4094
X2.6382Y-1.426
X2.6815Y-0.9535
X2.7008Y-1.6654
X2.7323Y-1.3898
X2.7638Y-1.4803
X2.7776Y-2.0512
X2.7917Y-1.1819
X2.8485Y-2.1172
X3.2957Y-0.6465
X3.2957Y-0.7094
X3.4547Y-2.315
X3.4557Y-2.3622
X3.4925Y-1.1819
X3.5463Y-2.0354
X3.6142Y-2.1083
X3.6151Y-0.7494
X3.6303Y-0.678
X3.7008Y-1.5079
X3.815Y-1.5669
X3.8535Y-1.426
X3.9646Y-1.4646
X4.063Y-1.2638
X4.0866Y-1.5669
X4.1181Y-1.4646
X4.185Y-1.6654
X4.2484Y-0.6425
X4.2484Y-0.6898
X4.5634Y-0.7724
X4.8075Y-1.0165
X4.9531Y-1.4969
X5.0512Y-1.6654
X5.1185Y-1.5087
X5.1811Y-1.6654
X5.2484Y-1.485
X5.5281Y-1.6649
X5.6815Y-1.1024
X5.6815Y-1.5008
X5.8311Y-0.6465
X6.1382Y-0.7724
X6.2598Y-1.8081
X6.7681Y-0.6465
X7.0571Y-1.7234
X7.0949Y-0.7685
X7.5177Y-0.8228
T2
X3.4921Y-2.4154
X3.4921Y-2.4902
T3
X5.6594Y-2.4872
X5.6594Y-2.625
X4.213Y-0.1969
X4.613Y-0.1969
X6.7563Y-0.1969
X7.1563Y-0.1969
X5.7878Y-0.1969
X6.1878Y-0.1969
X4.9925Y-0.1969
X5.3925Y-0.1969
X0.7406Y-0.1969
X1.1406Y-0.1969
X3.2646Y-0.1969
X3.6646Y-0.1969
X1.6972Y-0.1969
X2.0972Y-0.1969
X2.4728Y-0.1969
X2.8728Y-0.1969
X6.7018Y-1.7648
X6.8002Y-1.7648
T4
X4.5549Y-2.5197
X4.6549Y-2.5197
X4.7549Y-2.5197
X6.202Y-2.0581
X6.302Y-2.0581
X6.702Y-2.0581
X6.802Y-2.0581
X6.902Y-2.0581
X7.002Y-2.0581
X7.152Y-2.0581
X7.252Y-2.0581
X7.252Y-2.588
X2.9858Y-1.8366
X2.9858Y-1.9366
X3.0858Y-1.8366
X3.0858Y-1.9366
X3.1858Y-1.8366
X3.1858Y-1.9366
X3.2858Y-1.8366
X3.2858Y-1.9366
X3.3858Y-1.8366
X3.3858Y-1.9366
X3.4858Y-1.8366
X3.4858Y-1.9366
X3.5858Y-1.8366
X3.5858Y-1.9366
X3.6858Y-1.8366
X3.6858Y-1.9366
X3.7858Y-1.8366
X3.7858Y-1.9366
X3.8858Y-1.8366
X3.8858Y-1.9366
X3.9858Y-1.8366
X3.9858Y-1.9366
X4.0858Y-1.8366
X4.0858Y-1.9366
X4.1858Y-1.8366
X4.1858Y-1.9366
X4.2858Y-1.8366
X4.2858Y-1.9366
X4.3858Y-1.8366
X4.3858Y-1.9366
X4.4858Y-1.8366
X4.4858Y-1.9366
X4.5858Y-1.8366
X4.5858Y-1.9366
X4.6858Y-1.8366
X4.6858Y-1.9366
X4.7858Y-1.8366
X4.7858Y-1.9366
X4.8858Y-1.8366
X4.8858Y-1.9366
X0.1693Y-0.878
X0.2693Y-0.878
X0.3693Y-0.878
X3.9943Y-2.5217
X4.0943Y-2.5217
X4.1943Y-2.5217
X4.2943Y-2.5217
T5
X2.6147Y-0.7087
X2.7397Y-0.7087
X1.6381Y-0.6572
X1.65Y-0.7899
X1.6838Y-0.5522
X1.7138Y-0.8895
X1.7676Y-0.4822
X1.818Y-0.9533
X1.8898Y-0.4537
X1.9536Y-0.9544
X2.007Y-0.4833
X2.0609Y-0.8994
X2.0898Y-0.5537
X2.1307Y-0.7935
X2.1398Y-0.6587
X4.1578Y-0.6572
X4.1697Y-0.7899
X4.2035Y-0.5522
X4.2335Y-0.8895
X4.2872Y-0.4822
X4.3377Y-0.9533
X4.4094Y-0.4537
X4.4733Y-0.9544
X4.5267Y-0.4833
X4.5806Y-0.8994
X4.6094Y-0.5537
X4.6504Y-0.7935
X4.6594Y-0.6587
X6.6774Y-0.6572
X6.6894Y-0.7899
X6.7231Y-0.5522
X6.7532Y-0.8895
X6.8069Y-0.4822
X6.8574Y-0.9533
X6.9291Y-0.4537
X6.993Y-0.9544
X7.0464Y-0.4833
X7.1003Y-0.8994
X7.1291Y-0.5537
X7.1701Y-0.7935
X7.1791Y-0.6587
X0.6932Y-0.6572
X0.7052Y-0.7899
X0.7389Y-0.5522
X0.7689Y-0.8895
X0.8227Y-0.4822
X0.8731Y-0.9533
X0.9449Y-0.4537
X1.0087Y-0.9544
X1.0621Y-0.4833
X1.1161Y-0.8994
X1.1449Y-0.5537
X1.1858Y-0.7935
X1.1949Y-0.6587
X5.7326Y-0.6572
X5.7445Y-0.7899
X5.7783Y-0.5522
X5.8083Y-0.8895
X5.862Y-0.4822
X5.9125Y-0.9533
X5.9843Y-0.4537
X6.0481Y-0.9544
X6.1015Y-0.4833
X6.1554Y-0.8994
X6.1843Y-0.5537
X6.2252Y-0.7935
X6.2343Y-0.6587
X5.1344Y-0.7087
X5.2594Y-0.7087
X3.2129Y-0.6572
X3.2248Y-0.7899
X3.2586Y-0.5522
X3.2886Y-0.8895
X3.3424Y-0.4822
X3.3928Y-0.9533
X3.4646Y-0.4537
X3.5284Y-0.9544
X3.5818Y-0.4833
X3.6357Y-0.8994
X3.6646Y-0.5537
X3.7055Y-0.7935
X3.7146Y-0.6587
T6
X6.7018Y-2.7825
X6.9018Y-2.7825
T7
X2.7953Y-1.8898
X2.7953Y-2.7953
X5.0787Y-1.8898
X5.0787Y-2.7953
T0
M30
