G04 #@! TF.GenerationSoftware,KiCad,Pcbnew,5.1.5+dfsg1-2build2*
G04 #@! TF.CreationDate,2020-07-19T22:13:21-05:00*
G04 #@! TF.ProjectId,pi-nixie,70692d6e-6978-4696-952e-6b696361645f,rev?*
G04 #@! TF.SameCoordinates,Original*
G04 #@! TF.FileFunction,Legend,Top*
G04 #@! TF.FilePolarity,Positive*
%FSLAX46Y46*%
G04 Gerber Fmt 4.6, Leading zero omitted, Abs format (unit mm)*
G04 Created by KiCad (PCBNEW 5.1.5+dfsg1-2build2) date 2020-07-19 22:13:21*
%MOMM*%
%LPD*%
G04 APERTURE LIST*
%ADD10C,0.300000*%
%ADD11C,0.150000*%
%ADD12C,0.190000*%
%ADD13C,0.010000*%
%ADD14C,0.120000*%
%ADD15C,0.200000*%
G04 APERTURE END LIST*
D10*
X37675000Y-70275000D02*
X11675000Y-70275000D01*
X37675000Y-36275000D02*
X37675000Y-70275000D01*
X11675000Y-36275000D02*
X37675000Y-36275000D01*
X11675000Y-36275000D02*
X11675000Y-70275000D01*
D11*
X22015476Y-60257142D02*
X21967857Y-60304761D01*
X21825000Y-60352380D01*
X21729761Y-60352380D01*
X21586904Y-60304761D01*
X21491666Y-60209523D01*
X21444047Y-60114285D01*
X21396428Y-59923809D01*
X21396428Y-59780952D01*
X21444047Y-59590476D01*
X21491666Y-59495238D01*
X21586904Y-59400000D01*
X21729761Y-59352380D01*
X21825000Y-59352380D01*
X21967857Y-59400000D01*
X22015476Y-59447619D01*
X22396428Y-60066666D02*
X22872619Y-60066666D01*
X22301190Y-60352380D02*
X22634523Y-59352380D01*
X22967857Y-60352380D01*
X23301190Y-59352380D02*
X23301190Y-60161904D01*
X23348809Y-60257142D01*
X23396428Y-60304761D01*
X23491666Y-60352380D01*
X23682142Y-60352380D01*
X23777380Y-60304761D01*
X23825000Y-60257142D01*
X23872619Y-60161904D01*
X23872619Y-59352380D01*
X24205952Y-59352380D02*
X24777380Y-59352380D01*
X24491666Y-60352380D02*
X24491666Y-59352380D01*
X25110714Y-60352380D02*
X25110714Y-59352380D01*
X25777380Y-59352380D02*
X25967857Y-59352380D01*
X26063095Y-59400000D01*
X26158333Y-59495238D01*
X26205952Y-59685714D01*
X26205952Y-60019047D01*
X26158333Y-60209523D01*
X26063095Y-60304761D01*
X25967857Y-60352380D01*
X25777380Y-60352380D01*
X25682142Y-60304761D01*
X25586904Y-60209523D01*
X25539285Y-60019047D01*
X25539285Y-59685714D01*
X25586904Y-59495238D01*
X25682142Y-59400000D01*
X25777380Y-59352380D01*
X26634523Y-60352380D02*
X26634523Y-59352380D01*
X27205952Y-60352380D01*
X27205952Y-59352380D01*
X19277380Y-62002380D02*
X19277380Y-61002380D01*
X19277380Y-61478571D02*
X19848809Y-61478571D01*
X19848809Y-62002380D02*
X19848809Y-61002380D01*
X20325000Y-62002380D02*
X20325000Y-61002380D01*
X21325000Y-61050000D02*
X21229761Y-61002380D01*
X21086904Y-61002380D01*
X20944047Y-61050000D01*
X20848809Y-61145238D01*
X20801190Y-61240476D01*
X20753571Y-61430952D01*
X20753571Y-61573809D01*
X20801190Y-61764285D01*
X20848809Y-61859523D01*
X20944047Y-61954761D01*
X21086904Y-62002380D01*
X21182142Y-62002380D01*
X21325000Y-61954761D01*
X21372619Y-61907142D01*
X21372619Y-61573809D01*
X21182142Y-61573809D01*
X21801190Y-62002380D02*
X21801190Y-61002380D01*
X21801190Y-61478571D02*
X22372619Y-61478571D01*
X22372619Y-62002380D02*
X22372619Y-61002380D01*
X23467857Y-61002380D02*
X23801190Y-62002380D01*
X24134523Y-61002380D01*
X24658333Y-61002380D02*
X24848809Y-61002380D01*
X24944047Y-61050000D01*
X25039285Y-61145238D01*
X25086904Y-61335714D01*
X25086904Y-61669047D01*
X25039285Y-61859523D01*
X24944047Y-61954761D01*
X24848809Y-62002380D01*
X24658333Y-62002380D01*
X24563095Y-61954761D01*
X24467857Y-61859523D01*
X24420238Y-61669047D01*
X24420238Y-61335714D01*
X24467857Y-61145238D01*
X24563095Y-61050000D01*
X24658333Y-61002380D01*
X25991666Y-62002380D02*
X25515476Y-62002380D01*
X25515476Y-61002380D01*
X26182142Y-61002380D02*
X26753571Y-61002380D01*
X26467857Y-62002380D02*
X26467857Y-61002380D01*
X27039285Y-61716666D02*
X27515476Y-61716666D01*
X26944047Y-62002380D02*
X27277380Y-61002380D01*
X27610714Y-62002380D01*
X28467857Y-61050000D02*
X28372619Y-61002380D01*
X28229761Y-61002380D01*
X28086904Y-61050000D01*
X27991666Y-61145238D01*
X27944047Y-61240476D01*
X27896428Y-61430952D01*
X27896428Y-61573809D01*
X27944047Y-61764285D01*
X27991666Y-61859523D01*
X28086904Y-61954761D01*
X28229761Y-62002380D01*
X28325000Y-62002380D01*
X28467857Y-61954761D01*
X28515476Y-61907142D01*
X28515476Y-61573809D01*
X28325000Y-61573809D01*
X28944047Y-61478571D02*
X29277380Y-61478571D01*
X29420238Y-62002380D02*
X28944047Y-62002380D01*
X28944047Y-61002380D01*
X29420238Y-61002380D01*
X192647619Y-11552380D02*
X192314285Y-11076190D01*
X192076190Y-11552380D02*
X192076190Y-10552380D01*
X192457142Y-10552380D01*
X192552380Y-10600000D01*
X192600000Y-10647619D01*
X192647619Y-10742857D01*
X192647619Y-10885714D01*
X192600000Y-10980952D01*
X192552380Y-11028571D01*
X192457142Y-11076190D01*
X192076190Y-11076190D01*
X193076190Y-11028571D02*
X193409523Y-11028571D01*
X193552380Y-11552380D02*
X193076190Y-11552380D01*
X193076190Y-10552380D01*
X193552380Y-10552380D01*
X193838095Y-10552380D02*
X194171428Y-11552380D01*
X194504761Y-10552380D01*
X195933333Y-11028571D02*
X196076190Y-11076190D01*
X196123809Y-11123809D01*
X196171428Y-11219047D01*
X196171428Y-11361904D01*
X196123809Y-11457142D01*
X196076190Y-11504761D01*
X195980952Y-11552380D01*
X195600000Y-11552380D01*
X195600000Y-10552380D01*
X195933333Y-10552380D01*
X196028571Y-10600000D01*
X196076190Y-10647619D01*
X196123809Y-10742857D01*
X196123809Y-10838095D01*
X196076190Y-10933333D01*
X196028571Y-10980952D01*
X195933333Y-11028571D01*
X195600000Y-11028571D01*
D12*
X124050000Y-71350000D02*
X124002380Y-71445238D01*
X124002380Y-71588095D01*
X124050000Y-71730952D01*
X124145238Y-71826190D01*
X124240476Y-71873809D01*
X124430952Y-71921428D01*
X124573809Y-71921428D01*
X124764285Y-71873809D01*
X124859523Y-71826190D01*
X124954761Y-71730952D01*
X125002380Y-71588095D01*
X125002380Y-71492857D01*
X124954761Y-71350000D01*
X124907142Y-71302380D01*
X124573809Y-71302380D01*
X124573809Y-71492857D01*
X125002380Y-70873809D02*
X124002380Y-70873809D01*
X124002380Y-70492857D01*
X124050000Y-70397619D01*
X124097619Y-70350000D01*
X124192857Y-70302380D01*
X124335714Y-70302380D01*
X124430952Y-70350000D01*
X124478571Y-70397619D01*
X124526190Y-70492857D01*
X124526190Y-70873809D01*
X125002380Y-69873809D02*
X124002380Y-69873809D01*
X124002380Y-69207142D02*
X124002380Y-69016666D01*
X124050000Y-68921428D01*
X124145238Y-68826190D01*
X124335714Y-68778571D01*
X124669047Y-68778571D01*
X124859523Y-68826190D01*
X124954761Y-68921428D01*
X125002380Y-69016666D01*
X125002380Y-69207142D01*
X124954761Y-69302380D01*
X124859523Y-69397619D01*
X124669047Y-69445238D01*
X124335714Y-69445238D01*
X124145238Y-69397619D01*
X124050000Y-69302380D01*
X124002380Y-69207142D01*
X98452380Y-72779761D02*
X98452380Y-72208333D01*
X99452380Y-72494047D02*
X98452380Y-72494047D01*
X98928571Y-71875000D02*
X98928571Y-71541666D01*
X99452380Y-71398809D02*
X99452380Y-71875000D01*
X98452380Y-71875000D01*
X98452380Y-71398809D01*
X99452380Y-70398809D02*
X98976190Y-70732142D01*
X99452380Y-70970238D02*
X98452380Y-70970238D01*
X98452380Y-70589285D01*
X98500000Y-70494047D01*
X98547619Y-70446428D01*
X98642857Y-70398809D01*
X98785714Y-70398809D01*
X98880952Y-70446428D01*
X98928571Y-70494047D01*
X98976190Y-70589285D01*
X98976190Y-70970238D01*
X99452380Y-69970238D02*
X98452380Y-69970238D01*
X99166666Y-69636904D01*
X98452380Y-69303571D01*
X99452380Y-69303571D01*
X99452380Y-68827380D02*
X98452380Y-68827380D01*
X99452380Y-68351190D02*
X98452380Y-68351190D01*
X99452380Y-67779761D01*
X98452380Y-67779761D01*
X99166666Y-67351190D02*
X99166666Y-66875000D01*
X99452380Y-67446428D02*
X98452380Y-67113095D01*
X99452380Y-66779761D01*
X99452380Y-65970238D02*
X99452380Y-66446428D01*
X98452380Y-66446428D01*
D10*
X165682142Y-73492857D02*
X165682142Y-72350000D01*
X166253571Y-72921428D02*
X165110714Y-72921428D01*
X166253571Y-70850000D02*
X166253571Y-71707142D01*
X166253571Y-71278571D02*
X164753571Y-71278571D01*
X164967857Y-71421428D01*
X165110714Y-71564285D01*
X165182142Y-71707142D01*
X164896428Y-70278571D02*
X164825000Y-70207142D01*
X164753571Y-70064285D01*
X164753571Y-69707142D01*
X164825000Y-69564285D01*
X164896428Y-69492857D01*
X165039285Y-69421428D01*
X165182142Y-69421428D01*
X165396428Y-69492857D01*
X166253571Y-70350000D01*
X166253571Y-69421428D01*
X164753571Y-68992857D02*
X166253571Y-68492857D01*
X164753571Y-67992857D01*
X179600000Y-71667857D02*
X179528571Y-71810714D01*
X179528571Y-72025000D01*
X179600000Y-72239285D01*
X179742857Y-72382142D01*
X179885714Y-72453571D01*
X180171428Y-72525000D01*
X180385714Y-72525000D01*
X180671428Y-72453571D01*
X180814285Y-72382142D01*
X180957142Y-72239285D01*
X181028571Y-72025000D01*
X181028571Y-71882142D01*
X180957142Y-71667857D01*
X180885714Y-71596428D01*
X180385714Y-71596428D01*
X180385714Y-71882142D01*
X181028571Y-70953571D02*
X179528571Y-70953571D01*
X181028571Y-70096428D01*
X179528571Y-70096428D01*
X181028571Y-69382142D02*
X179528571Y-69382142D01*
X179528571Y-69025000D01*
X179600000Y-68810714D01*
X179742857Y-68667857D01*
X179885714Y-68596428D01*
X180171428Y-68525000D01*
X180385714Y-68525000D01*
X180671428Y-68596428D01*
X180814285Y-68667857D01*
X180957142Y-68810714D01*
X181028571Y-69025000D01*
X181028571Y-69382142D01*
X86642857Y-27603571D02*
X87500000Y-27603571D01*
X87071428Y-29103571D02*
X87071428Y-27603571D01*
X88285714Y-27603571D02*
X88571428Y-27603571D01*
X88714285Y-27675000D01*
X88857142Y-27817857D01*
X88928571Y-28103571D01*
X88928571Y-28603571D01*
X88857142Y-28889285D01*
X88714285Y-29032142D01*
X88571428Y-29103571D01*
X88285714Y-29103571D01*
X88142857Y-29032142D01*
X88000000Y-28889285D01*
X87928571Y-28603571D01*
X87928571Y-28103571D01*
X88000000Y-27817857D01*
X88142857Y-27675000D01*
X88285714Y-27603571D01*
X89571428Y-29103571D02*
X89571428Y-27603571D01*
X90071428Y-28675000D01*
X90571428Y-27603571D01*
X90571428Y-29103571D01*
X91214285Y-29032142D02*
X91428571Y-29103571D01*
X91785714Y-29103571D01*
X91928571Y-29032142D01*
X92000000Y-28960714D01*
X92071428Y-28817857D01*
X92071428Y-28675000D01*
X92000000Y-28532142D01*
X91928571Y-28460714D01*
X91785714Y-28389285D01*
X91500000Y-28317857D01*
X91357142Y-28246428D01*
X91285714Y-28175000D01*
X91214285Y-28032142D01*
X91214285Y-27889285D01*
X91285714Y-27746428D01*
X91357142Y-27675000D01*
X91500000Y-27603571D01*
X91857142Y-27603571D01*
X92071428Y-27675000D01*
X93857142Y-29103571D02*
X93857142Y-27603571D01*
X94714285Y-29103571D01*
X94714285Y-27603571D01*
X95428571Y-29103571D02*
X95428571Y-27603571D01*
X96000000Y-27603571D02*
X97000000Y-29103571D01*
X97000000Y-27603571D02*
X96000000Y-29103571D01*
X97571428Y-29103571D02*
X97571428Y-27603571D01*
X98285714Y-28317857D02*
X98785714Y-28317857D01*
X99000000Y-29103571D02*
X98285714Y-29103571D01*
X98285714Y-27603571D01*
X99000000Y-27603571D01*
X101642857Y-28960714D02*
X101571428Y-29032142D01*
X101357142Y-29103571D01*
X101214285Y-29103571D01*
X101000000Y-29032142D01*
X100857142Y-28889285D01*
X100785714Y-28746428D01*
X100714285Y-28460714D01*
X100714285Y-28246428D01*
X100785714Y-27960714D01*
X100857142Y-27817857D01*
X101000000Y-27675000D01*
X101214285Y-27603571D01*
X101357142Y-27603571D01*
X101571428Y-27675000D01*
X101642857Y-27746428D01*
X103000000Y-29103571D02*
X102285714Y-29103571D01*
X102285714Y-27603571D01*
X103785714Y-27603571D02*
X104071428Y-27603571D01*
X104214285Y-27675000D01*
X104357142Y-27817857D01*
X104428571Y-28103571D01*
X104428571Y-28603571D01*
X104357142Y-28889285D01*
X104214285Y-29032142D01*
X104071428Y-29103571D01*
X103785714Y-29103571D01*
X103642857Y-29032142D01*
X103500000Y-28889285D01*
X103428571Y-28603571D01*
X103428571Y-28103571D01*
X103500000Y-27817857D01*
X103642857Y-27675000D01*
X103785714Y-27603571D01*
X105928571Y-28960714D02*
X105857142Y-29032142D01*
X105642857Y-29103571D01*
X105500000Y-29103571D01*
X105285714Y-29032142D01*
X105142857Y-28889285D01*
X105071428Y-28746428D01*
X105000000Y-28460714D01*
X105000000Y-28246428D01*
X105071428Y-27960714D01*
X105142857Y-27817857D01*
X105285714Y-27675000D01*
X105500000Y-27603571D01*
X105642857Y-27603571D01*
X105857142Y-27675000D01*
X105928571Y-27746428D01*
X106571428Y-29103571D02*
X106571428Y-27603571D01*
X107428571Y-29103571D02*
X106785714Y-28246428D01*
X107428571Y-27603571D02*
X106571428Y-28460714D01*
X109214285Y-29103571D02*
X109214285Y-27603571D01*
X109714285Y-28675000D01*
X110214285Y-27603571D01*
X110214285Y-29103571D01*
X110928571Y-29103571D02*
X110928571Y-27603571D01*
X111785714Y-29103571D02*
X111142857Y-28246428D01*
X111785714Y-27603571D02*
X110928571Y-28460714D01*
X112357142Y-27746428D02*
X112428571Y-27675000D01*
X112571428Y-27603571D01*
X112928571Y-27603571D01*
X113071428Y-27675000D01*
X113142857Y-27746428D01*
X113214285Y-27889285D01*
X113214285Y-28032142D01*
X113142857Y-28246428D01*
X112285714Y-29103571D01*
X113214285Y-29103571D01*
X90500000Y-30653571D02*
X90785714Y-31653571D01*
X91071428Y-30939285D01*
X91357142Y-31653571D01*
X91642857Y-30653571D01*
X92071428Y-30653571D02*
X92357142Y-31653571D01*
X92642857Y-30939285D01*
X92928571Y-31653571D01*
X93214285Y-30653571D01*
X93642857Y-30653571D02*
X93928571Y-31653571D01*
X94214285Y-30939285D01*
X94500000Y-31653571D01*
X94785714Y-30653571D01*
X95357142Y-31510714D02*
X95428571Y-31582142D01*
X95357142Y-31653571D01*
X95285714Y-31582142D01*
X95357142Y-31510714D01*
X95357142Y-31653571D01*
X95857142Y-30653571D02*
X96428571Y-30653571D01*
X96071428Y-30153571D02*
X96071428Y-31439285D01*
X96142857Y-31582142D01*
X96285714Y-31653571D01*
X96428571Y-31653571D01*
X97142857Y-31653571D02*
X97000000Y-31582142D01*
X96928571Y-31510714D01*
X96857142Y-31367857D01*
X96857142Y-30939285D01*
X96928571Y-30796428D01*
X97000000Y-30725000D01*
X97142857Y-30653571D01*
X97357142Y-30653571D01*
X97500000Y-30725000D01*
X97571428Y-30796428D01*
X97642857Y-30939285D01*
X97642857Y-31367857D01*
X97571428Y-31510714D01*
X97500000Y-31582142D01*
X97357142Y-31653571D01*
X97142857Y-31653571D01*
X98285714Y-31653571D02*
X98285714Y-30653571D01*
X98285714Y-30796428D02*
X98357142Y-30725000D01*
X98500000Y-30653571D01*
X98714285Y-30653571D01*
X98857142Y-30725000D01*
X98928571Y-30867857D01*
X98928571Y-31653571D01*
X98928571Y-30867857D02*
X99000000Y-30725000D01*
X99142857Y-30653571D01*
X99357142Y-30653571D01*
X99500000Y-30725000D01*
X99571428Y-30867857D01*
X99571428Y-31653571D01*
X100214285Y-31582142D02*
X100357142Y-31653571D01*
X100642857Y-31653571D01*
X100785714Y-31582142D01*
X100857142Y-31439285D01*
X100857142Y-31367857D01*
X100785714Y-31225000D01*
X100642857Y-31153571D01*
X100428571Y-31153571D01*
X100285714Y-31082142D01*
X100214285Y-30939285D01*
X100214285Y-30867857D01*
X100285714Y-30725000D01*
X100428571Y-30653571D01*
X100642857Y-30653571D01*
X100785714Y-30725000D01*
X101285714Y-30653571D02*
X101857142Y-30653571D01*
X101500000Y-30153571D02*
X101500000Y-31439285D01*
X101571428Y-31582142D01*
X101714285Y-31653571D01*
X101857142Y-31653571D01*
X102928571Y-31582142D02*
X102785714Y-31653571D01*
X102500000Y-31653571D01*
X102357142Y-31582142D01*
X102285714Y-31439285D01*
X102285714Y-30867857D01*
X102357142Y-30725000D01*
X102500000Y-30653571D01*
X102785714Y-30653571D01*
X102928571Y-30725000D01*
X103000000Y-30867857D01*
X103000000Y-31010714D01*
X102285714Y-31153571D01*
X104214285Y-31582142D02*
X104071428Y-31653571D01*
X103785714Y-31653571D01*
X103642857Y-31582142D01*
X103571428Y-31439285D01*
X103571428Y-30867857D01*
X103642857Y-30725000D01*
X103785714Y-30653571D01*
X104071428Y-30653571D01*
X104214285Y-30725000D01*
X104285714Y-30867857D01*
X104285714Y-31010714D01*
X103571428Y-31153571D01*
X104928571Y-31653571D02*
X104928571Y-30653571D01*
X104928571Y-30939285D02*
X105000000Y-30796428D01*
X105071428Y-30725000D01*
X105214285Y-30653571D01*
X105357142Y-30653571D01*
X105857142Y-31510714D02*
X105928571Y-31582142D01*
X105857142Y-31653571D01*
X105785714Y-31582142D01*
X105857142Y-31510714D01*
X105857142Y-31653571D01*
X106571428Y-30653571D02*
X106571428Y-31653571D01*
X106571428Y-30796428D02*
X106642857Y-30725000D01*
X106785714Y-30653571D01*
X107000000Y-30653571D01*
X107142857Y-30725000D01*
X107214285Y-30867857D01*
X107214285Y-31653571D01*
X108500000Y-31582142D02*
X108357142Y-31653571D01*
X108071428Y-31653571D01*
X107928571Y-31582142D01*
X107857142Y-31439285D01*
X107857142Y-30867857D01*
X107928571Y-30725000D01*
X108071428Y-30653571D01*
X108357142Y-30653571D01*
X108500000Y-30725000D01*
X108571428Y-30867857D01*
X108571428Y-31010714D01*
X107857142Y-31153571D01*
X109000000Y-30653571D02*
X109571428Y-30653571D01*
X109214285Y-30153571D02*
X109214285Y-31439285D01*
X109285714Y-31582142D01*
X109428571Y-31653571D01*
X109571428Y-31653571D01*
X88178571Y-55053571D02*
X87678571Y-54339285D01*
X87321428Y-55053571D02*
X87321428Y-53553571D01*
X87892857Y-53553571D01*
X88035714Y-53625000D01*
X88107142Y-53696428D01*
X88178571Y-53839285D01*
X88178571Y-54053571D01*
X88107142Y-54196428D01*
X88035714Y-54267857D01*
X87892857Y-54339285D01*
X87321428Y-54339285D01*
X88750000Y-54625000D02*
X89464285Y-54625000D01*
X88607142Y-55053571D02*
X89107142Y-53553571D01*
X89607142Y-55053571D01*
X90035714Y-54982142D02*
X90250000Y-55053571D01*
X90607142Y-55053571D01*
X90750000Y-54982142D01*
X90821428Y-54910714D01*
X90892857Y-54767857D01*
X90892857Y-54625000D01*
X90821428Y-54482142D01*
X90750000Y-54410714D01*
X90607142Y-54339285D01*
X90321428Y-54267857D01*
X90178571Y-54196428D01*
X90107142Y-54125000D01*
X90035714Y-53982142D01*
X90035714Y-53839285D01*
X90107142Y-53696428D01*
X90178571Y-53625000D01*
X90321428Y-53553571D01*
X90678571Y-53553571D01*
X90892857Y-53625000D01*
X91535714Y-55053571D02*
X91535714Y-53553571D01*
X92107142Y-53553571D01*
X92250000Y-53625000D01*
X92321428Y-53696428D01*
X92392857Y-53839285D01*
X92392857Y-54053571D01*
X92321428Y-54196428D01*
X92250000Y-54267857D01*
X92107142Y-54339285D01*
X91535714Y-54339285D01*
X93535714Y-54267857D02*
X93750000Y-54339285D01*
X93821428Y-54410714D01*
X93892857Y-54553571D01*
X93892857Y-54767857D01*
X93821428Y-54910714D01*
X93750000Y-54982142D01*
X93607142Y-55053571D01*
X93035714Y-55053571D01*
X93035714Y-53553571D01*
X93535714Y-53553571D01*
X93678571Y-53625000D01*
X93750000Y-53696428D01*
X93821428Y-53839285D01*
X93821428Y-53982142D01*
X93750000Y-54125000D01*
X93678571Y-54196428D01*
X93535714Y-54267857D01*
X93035714Y-54267857D01*
X94535714Y-54267857D02*
X95035714Y-54267857D01*
X95250000Y-55053571D02*
X94535714Y-55053571D01*
X94535714Y-53553571D01*
X95250000Y-53553571D01*
X96750000Y-55053571D02*
X96250000Y-54339285D01*
X95892857Y-55053571D02*
X95892857Y-53553571D01*
X96464285Y-53553571D01*
X96607142Y-53625000D01*
X96678571Y-53696428D01*
X96750000Y-53839285D01*
X96750000Y-54053571D01*
X96678571Y-54196428D01*
X96607142Y-54267857D01*
X96464285Y-54339285D01*
X95892857Y-54339285D01*
X98250000Y-55053571D02*
X97750000Y-54339285D01*
X97392857Y-55053571D02*
X97392857Y-53553571D01*
X97964285Y-53553571D01*
X98107142Y-53625000D01*
X98178571Y-53696428D01*
X98250000Y-53839285D01*
X98250000Y-54053571D01*
X98178571Y-54196428D01*
X98107142Y-54267857D01*
X97964285Y-54339285D01*
X97392857Y-54339285D01*
X99178571Y-54339285D02*
X99178571Y-55053571D01*
X98678571Y-53553571D02*
X99178571Y-54339285D01*
X99678571Y-53553571D01*
X101321428Y-55053571D02*
X101321428Y-53553571D01*
X101892857Y-53553571D01*
X102035714Y-53625000D01*
X102107142Y-53696428D01*
X102178571Y-53839285D01*
X102178571Y-54053571D01*
X102107142Y-54196428D01*
X102035714Y-54267857D01*
X101892857Y-54339285D01*
X101321428Y-54339285D01*
X102821428Y-55053571D02*
X102821428Y-53553571D01*
X104535714Y-53553571D02*
X105535714Y-53553571D01*
X104535714Y-55053571D01*
X105535714Y-55053571D01*
X106107142Y-54267857D02*
X106607142Y-54267857D01*
X106821428Y-55053571D02*
X106107142Y-55053571D01*
X106107142Y-53553571D01*
X106821428Y-53553571D01*
X108321428Y-55053571D02*
X107821428Y-54339285D01*
X107464285Y-55053571D02*
X107464285Y-53553571D01*
X108035714Y-53553571D01*
X108178571Y-53625000D01*
X108250000Y-53696428D01*
X108321428Y-53839285D01*
X108321428Y-54053571D01*
X108250000Y-54196428D01*
X108178571Y-54267857D01*
X108035714Y-54339285D01*
X107464285Y-54339285D01*
X109250000Y-53553571D02*
X109535714Y-53553571D01*
X109678571Y-53625000D01*
X109821428Y-53767857D01*
X109892857Y-54053571D01*
X109892857Y-54553571D01*
X109821428Y-54839285D01*
X109678571Y-54982142D01*
X109535714Y-55053571D01*
X109250000Y-55053571D01*
X109107142Y-54982142D01*
X108964285Y-54839285D01*
X108892857Y-54553571D01*
X108892857Y-54053571D01*
X108964285Y-53767857D01*
X109107142Y-53625000D01*
X109250000Y-53553571D01*
X111535714Y-53553571D02*
X111892857Y-55053571D01*
X112178571Y-53982142D01*
X112464285Y-55053571D01*
X112821428Y-53553571D01*
X91035714Y-57603571D02*
X91035714Y-56103571D01*
X91535714Y-57175000D01*
X92035714Y-56103571D01*
X92035714Y-57603571D01*
X93035714Y-56103571D02*
X93321428Y-56103571D01*
X93464285Y-56175000D01*
X93607142Y-56317857D01*
X93678571Y-56603571D01*
X93678571Y-57103571D01*
X93607142Y-57389285D01*
X93464285Y-57532142D01*
X93321428Y-57603571D01*
X93035714Y-57603571D01*
X92892857Y-57532142D01*
X92750000Y-57389285D01*
X92678571Y-57103571D01*
X92678571Y-56603571D01*
X92750000Y-56317857D01*
X92892857Y-56175000D01*
X93035714Y-56103571D01*
X94321428Y-56103571D02*
X94321428Y-57317857D01*
X94392857Y-57460714D01*
X94464285Y-57532142D01*
X94607142Y-57603571D01*
X94892857Y-57603571D01*
X95035714Y-57532142D01*
X95107142Y-57460714D01*
X95178571Y-57317857D01*
X95178571Y-56103571D01*
X95892857Y-57603571D02*
X95892857Y-56103571D01*
X96750000Y-57603571D01*
X96750000Y-56103571D01*
X97250000Y-56103571D02*
X98107142Y-56103571D01*
X97678571Y-57603571D02*
X97678571Y-56103571D01*
X100035714Y-56103571D02*
X100321428Y-56103571D01*
X100464285Y-56175000D01*
X100607142Y-56317857D01*
X100678571Y-56603571D01*
X100678571Y-57103571D01*
X100607142Y-57389285D01*
X100464285Y-57532142D01*
X100321428Y-57603571D01*
X100035714Y-57603571D01*
X99892857Y-57532142D01*
X99750000Y-57389285D01*
X99678571Y-57103571D01*
X99678571Y-56603571D01*
X99750000Y-56317857D01*
X99892857Y-56175000D01*
X100035714Y-56103571D01*
X101321428Y-57603571D02*
X101321428Y-56103571D01*
X102178571Y-57603571D01*
X102178571Y-56103571D01*
X104892857Y-57603571D02*
X104392857Y-56889285D01*
X104035714Y-57603571D02*
X104035714Y-56103571D01*
X104607142Y-56103571D01*
X104750000Y-56175000D01*
X104821428Y-56246428D01*
X104892857Y-56389285D01*
X104892857Y-56603571D01*
X104821428Y-56746428D01*
X104750000Y-56817857D01*
X104607142Y-56889285D01*
X104035714Y-56889285D01*
X105535714Y-56817857D02*
X106035714Y-56817857D01*
X106250000Y-57603571D02*
X105535714Y-57603571D01*
X105535714Y-56103571D01*
X106250000Y-56103571D01*
X106821428Y-57175000D02*
X107535714Y-57175000D01*
X106678571Y-57603571D02*
X107178571Y-56103571D01*
X107678571Y-57603571D01*
X109035714Y-57603571D02*
X108535714Y-56889285D01*
X108178571Y-57603571D02*
X108178571Y-56103571D01*
X108750000Y-56103571D01*
X108892857Y-56175000D01*
X108964285Y-56246428D01*
X109035714Y-56389285D01*
X109035714Y-56603571D01*
X108964285Y-56746428D01*
X108892857Y-56817857D01*
X108750000Y-56889285D01*
X108178571Y-56889285D01*
D13*
G36*
X24808362Y-47418250D02*
G01*
X25966377Y-47418250D01*
X26061729Y-47498483D01*
X26101962Y-47533183D01*
X26133784Y-47566800D01*
X26155855Y-47604660D01*
X26166833Y-47652089D01*
X26165378Y-47714411D01*
X26150150Y-47796952D01*
X26119809Y-47905039D01*
X26073013Y-48043995D01*
X26008422Y-48219148D01*
X25924696Y-48435822D01*
X25820493Y-48699343D01*
X25694474Y-49015036D01*
X25655355Y-49112860D01*
X25544795Y-49389658D01*
X25441823Y-49648099D01*
X25348776Y-49882272D01*
X25267992Y-50086263D01*
X25201807Y-50254163D01*
X25152558Y-50380058D01*
X25122582Y-50458038D01*
X25114000Y-50482286D01*
X25144242Y-50486841D01*
X25228942Y-50490878D01*
X25359057Y-50494193D01*
X25525544Y-50496585D01*
X25719363Y-50497851D01*
X25815639Y-50498000D01*
X26076454Y-50499223D01*
X26281405Y-50503845D01*
X26438099Y-50513297D01*
X26554140Y-50529009D01*
X26637136Y-50552409D01*
X26694690Y-50584929D01*
X26734410Y-50627997D01*
X26760600Y-50675649D01*
X26775828Y-50708528D01*
X26787976Y-50739024D01*
X26794719Y-50770226D01*
X26793731Y-50805221D01*
X26782686Y-50847099D01*
X26759260Y-50898947D01*
X26721127Y-50963853D01*
X26665961Y-51044906D01*
X26591436Y-51145194D01*
X26495228Y-51267806D01*
X26375010Y-51415829D01*
X26228458Y-51592352D01*
X26053245Y-51800462D01*
X25847046Y-52043249D01*
X25607537Y-52323801D01*
X25332390Y-52645205D01*
X25019281Y-53010551D01*
X24880138Y-53172892D01*
X24601510Y-53497542D01*
X24333892Y-53808487D01*
X24080255Y-54102324D01*
X23843571Y-54375651D01*
X23626809Y-54625066D01*
X23432940Y-54847167D01*
X23264937Y-55038551D01*
X23125769Y-55195817D01*
X23018407Y-55315563D01*
X22945823Y-55394385D01*
X22910987Y-55428883D01*
X22909041Y-55430092D01*
X22777475Y-55447664D01*
X22639194Y-55406174D01*
X22630360Y-55401508D01*
X22529621Y-55317775D01*
X22483839Y-55203245D01*
X22480251Y-55143524D01*
X22492139Y-55096186D01*
X22525562Y-54996413D01*
X22578114Y-54850588D01*
X22647388Y-54665091D01*
X22730979Y-54446302D01*
X22826481Y-54200601D01*
X22931487Y-53934370D01*
X23016811Y-53720625D01*
X23551871Y-52387125D01*
X22797854Y-52371250D01*
X22547112Y-52365640D01*
X22351977Y-52359430D01*
X22204572Y-52350789D01*
X22097016Y-52337887D01*
X22021430Y-52318891D01*
X21969934Y-52291972D01*
X21934648Y-52255298D01*
X21907694Y-52207039D01*
X21887161Y-52159643D01*
X21863138Y-52081166D01*
X21866236Y-52003677D01*
X21888012Y-51921518D01*
X21906711Y-51865944D01*
X21944702Y-51756772D01*
X21951919Y-51736250D01*
X22614767Y-51736250D01*
X23342085Y-51736250D01*
X23601958Y-51737248D01*
X23806030Y-51741093D01*
X23961980Y-51749060D01*
X24077488Y-51762424D01*
X24160232Y-51782460D01*
X24217893Y-51810444D01*
X24258150Y-51847650D01*
X24287558Y-51893241D01*
X24308278Y-51945982D01*
X24315511Y-52009043D01*
X24307324Y-52090013D01*
X24281782Y-52196478D01*
X24236951Y-52336024D01*
X24170896Y-52516241D01*
X24081683Y-52744713D01*
X24050643Y-52822481D01*
X23976108Y-53011049D01*
X23913119Y-53175286D01*
X23864383Y-53307707D01*
X23832610Y-53400826D01*
X23820507Y-53447155D01*
X23823844Y-53449347D01*
X23852733Y-53416365D01*
X23918587Y-53340132D01*
X24017107Y-53225658D01*
X24143990Y-53077954D01*
X24294934Y-52902031D01*
X24465638Y-52702899D01*
X24651800Y-52485568D01*
X24823701Y-52284752D01*
X25018224Y-52057092D01*
X25199483Y-51844279D01*
X25363409Y-51651143D01*
X25505930Y-51482511D01*
X25622976Y-51343210D01*
X25710476Y-51238070D01*
X25764360Y-51171916D01*
X25780750Y-51149690D01*
X25750600Y-51144568D01*
X25666553Y-51140083D01*
X25538210Y-51136491D01*
X25375171Y-51134050D01*
X25187037Y-51133017D01*
X25158449Y-51133000D01*
X24536149Y-51133000D01*
X24428199Y-51025049D01*
X24362573Y-50944603D01*
X24324445Y-50868787D01*
X24320250Y-50844208D01*
X24331759Y-50800275D01*
X24364691Y-50703804D01*
X24416650Y-50561122D01*
X24485238Y-50378557D01*
X24568060Y-50162434D01*
X24662719Y-49919080D01*
X24766820Y-49654822D01*
X24847550Y-49451971D01*
X24957186Y-49177652D01*
X25059817Y-48920857D01*
X25152989Y-48687728D01*
X25234246Y-48484408D01*
X25301134Y-48317040D01*
X25351197Y-48191768D01*
X25381980Y-48114734D01*
X25390925Y-48092343D01*
X25384138Y-48079246D01*
X25347748Y-48069554D01*
X25275537Y-48062993D01*
X25161286Y-48059292D01*
X24998777Y-48058179D01*
X24781791Y-48059381D01*
X24665705Y-48060593D01*
X23924410Y-48069125D01*
X23269589Y-49902687D01*
X22614767Y-51736250D01*
X21951919Y-51736250D01*
X21999785Y-51600154D01*
X22069760Y-51402244D01*
X22152426Y-51169195D01*
X22245584Y-50907161D01*
X22347032Y-50622294D01*
X22454572Y-50320749D01*
X22566002Y-50008678D01*
X22679123Y-49692235D01*
X22791735Y-49377573D01*
X22901637Y-49070846D01*
X23006629Y-48778207D01*
X23104511Y-48505809D01*
X23193083Y-48259806D01*
X23270145Y-48046351D01*
X23333496Y-47871597D01*
X23380936Y-47741698D01*
X23410266Y-47662808D01*
X23416311Y-47647217D01*
X23439674Y-47590682D01*
X23464194Y-47544314D01*
X23496000Y-47507105D01*
X23541219Y-47478049D01*
X23605978Y-47456137D01*
X23696404Y-47440361D01*
X23818626Y-47429713D01*
X23978770Y-47423186D01*
X24182965Y-47419772D01*
X24437336Y-47418462D01*
X24748013Y-47418249D01*
X24808362Y-47418250D01*
G37*
X24808362Y-47418250D02*
X25966377Y-47418250D01*
X26061729Y-47498483D01*
X26101962Y-47533183D01*
X26133784Y-47566800D01*
X26155855Y-47604660D01*
X26166833Y-47652089D01*
X26165378Y-47714411D01*
X26150150Y-47796952D01*
X26119809Y-47905039D01*
X26073013Y-48043995D01*
X26008422Y-48219148D01*
X25924696Y-48435822D01*
X25820493Y-48699343D01*
X25694474Y-49015036D01*
X25655355Y-49112860D01*
X25544795Y-49389658D01*
X25441823Y-49648099D01*
X25348776Y-49882272D01*
X25267992Y-50086263D01*
X25201807Y-50254163D01*
X25152558Y-50380058D01*
X25122582Y-50458038D01*
X25114000Y-50482286D01*
X25144242Y-50486841D01*
X25228942Y-50490878D01*
X25359057Y-50494193D01*
X25525544Y-50496585D01*
X25719363Y-50497851D01*
X25815639Y-50498000D01*
X26076454Y-50499223D01*
X26281405Y-50503845D01*
X26438099Y-50513297D01*
X26554140Y-50529009D01*
X26637136Y-50552409D01*
X26694690Y-50584929D01*
X26734410Y-50627997D01*
X26760600Y-50675649D01*
X26775828Y-50708528D01*
X26787976Y-50739024D01*
X26794719Y-50770226D01*
X26793731Y-50805221D01*
X26782686Y-50847099D01*
X26759260Y-50898947D01*
X26721127Y-50963853D01*
X26665961Y-51044906D01*
X26591436Y-51145194D01*
X26495228Y-51267806D01*
X26375010Y-51415829D01*
X26228458Y-51592352D01*
X26053245Y-51800462D01*
X25847046Y-52043249D01*
X25607537Y-52323801D01*
X25332390Y-52645205D01*
X25019281Y-53010551D01*
X24880138Y-53172892D01*
X24601510Y-53497542D01*
X24333892Y-53808487D01*
X24080255Y-54102324D01*
X23843571Y-54375651D01*
X23626809Y-54625066D01*
X23432940Y-54847167D01*
X23264937Y-55038551D01*
X23125769Y-55195817D01*
X23018407Y-55315563D01*
X22945823Y-55394385D01*
X22910987Y-55428883D01*
X22909041Y-55430092D01*
X22777475Y-55447664D01*
X22639194Y-55406174D01*
X22630360Y-55401508D01*
X22529621Y-55317775D01*
X22483839Y-55203245D01*
X22480251Y-55143524D01*
X22492139Y-55096186D01*
X22525562Y-54996413D01*
X22578114Y-54850588D01*
X22647388Y-54665091D01*
X22730979Y-54446302D01*
X22826481Y-54200601D01*
X22931487Y-53934370D01*
X23016811Y-53720625D01*
X23551871Y-52387125D01*
X22797854Y-52371250D01*
X22547112Y-52365640D01*
X22351977Y-52359430D01*
X22204572Y-52350789D01*
X22097016Y-52337887D01*
X22021430Y-52318891D01*
X21969934Y-52291972D01*
X21934648Y-52255298D01*
X21907694Y-52207039D01*
X21887161Y-52159643D01*
X21863138Y-52081166D01*
X21866236Y-52003677D01*
X21888012Y-51921518D01*
X21906711Y-51865944D01*
X21944702Y-51756772D01*
X21951919Y-51736250D01*
X22614767Y-51736250D01*
X23342085Y-51736250D01*
X23601958Y-51737248D01*
X23806030Y-51741093D01*
X23961980Y-51749060D01*
X24077488Y-51762424D01*
X24160232Y-51782460D01*
X24217893Y-51810444D01*
X24258150Y-51847650D01*
X24287558Y-51893241D01*
X24308278Y-51945982D01*
X24315511Y-52009043D01*
X24307324Y-52090013D01*
X24281782Y-52196478D01*
X24236951Y-52336024D01*
X24170896Y-52516241D01*
X24081683Y-52744713D01*
X24050643Y-52822481D01*
X23976108Y-53011049D01*
X23913119Y-53175286D01*
X23864383Y-53307707D01*
X23832610Y-53400826D01*
X23820507Y-53447155D01*
X23823844Y-53449347D01*
X23852733Y-53416365D01*
X23918587Y-53340132D01*
X24017107Y-53225658D01*
X24143990Y-53077954D01*
X24294934Y-52902031D01*
X24465638Y-52702899D01*
X24651800Y-52485568D01*
X24823701Y-52284752D01*
X25018224Y-52057092D01*
X25199483Y-51844279D01*
X25363409Y-51651143D01*
X25505930Y-51482511D01*
X25622976Y-51343210D01*
X25710476Y-51238070D01*
X25764360Y-51171916D01*
X25780750Y-51149690D01*
X25750600Y-51144568D01*
X25666553Y-51140083D01*
X25538210Y-51136491D01*
X25375171Y-51134050D01*
X25187037Y-51133017D01*
X25158449Y-51133000D01*
X24536149Y-51133000D01*
X24428199Y-51025049D01*
X24362573Y-50944603D01*
X24324445Y-50868787D01*
X24320250Y-50844208D01*
X24331759Y-50800275D01*
X24364691Y-50703804D01*
X24416650Y-50561122D01*
X24485238Y-50378557D01*
X24568060Y-50162434D01*
X24662719Y-49919080D01*
X24766820Y-49654822D01*
X24847550Y-49451971D01*
X24957186Y-49177652D01*
X25059817Y-48920857D01*
X25152989Y-48687728D01*
X25234246Y-48484408D01*
X25301134Y-48317040D01*
X25351197Y-48191768D01*
X25381980Y-48114734D01*
X25390925Y-48092343D01*
X25384138Y-48079246D01*
X25347748Y-48069554D01*
X25275537Y-48062993D01*
X25161286Y-48059292D01*
X24998777Y-48058179D01*
X24781791Y-48059381D01*
X24665705Y-48060593D01*
X23924410Y-48069125D01*
X23269589Y-49902687D01*
X22614767Y-51736250D01*
X21951919Y-51736250D01*
X21999785Y-51600154D01*
X22069760Y-51402244D01*
X22152426Y-51169195D01*
X22245584Y-50907161D01*
X22347032Y-50622294D01*
X22454572Y-50320749D01*
X22566002Y-50008678D01*
X22679123Y-49692235D01*
X22791735Y-49377573D01*
X22901637Y-49070846D01*
X23006629Y-48778207D01*
X23104511Y-48505809D01*
X23193083Y-48259806D01*
X23270145Y-48046351D01*
X23333496Y-47871597D01*
X23380936Y-47741698D01*
X23410266Y-47662808D01*
X23416311Y-47647217D01*
X23439674Y-47590682D01*
X23464194Y-47544314D01*
X23496000Y-47507105D01*
X23541219Y-47478049D01*
X23605978Y-47456137D01*
X23696404Y-47440361D01*
X23818626Y-47429713D01*
X23978770Y-47423186D01*
X24182965Y-47419772D01*
X24437336Y-47418462D01*
X24748013Y-47418249D01*
X24808362Y-47418250D01*
G36*
X24591036Y-43126751D02*
G01*
X24839056Y-43200963D01*
X25069003Y-43316301D01*
X25264587Y-43465402D01*
X25349714Y-43556790D01*
X25376391Y-43598496D01*
X25431824Y-43692631D01*
X25514222Y-43835952D01*
X25621792Y-44025218D01*
X25752744Y-44257187D01*
X25905286Y-44528618D01*
X26077627Y-44836270D01*
X26267975Y-45176901D01*
X26474539Y-45547269D01*
X26695527Y-45944133D01*
X26929149Y-46364251D01*
X27173612Y-46804382D01*
X27427125Y-47261283D01*
X27687898Y-47731715D01*
X27954137Y-48212434D01*
X28224053Y-48700200D01*
X28495853Y-49191770D01*
X28767747Y-49683904D01*
X29037942Y-50173360D01*
X29304648Y-50656895D01*
X29566073Y-51131270D01*
X29820425Y-51593241D01*
X30065914Y-52039569D01*
X30300747Y-52467010D01*
X30523134Y-52872323D01*
X30731283Y-53252267D01*
X30923402Y-53603601D01*
X31097700Y-53923083D01*
X31252386Y-54207470D01*
X31385669Y-54453523D01*
X31495756Y-54657998D01*
X31580857Y-54817655D01*
X31639180Y-54929252D01*
X31668934Y-54989547D01*
X31671904Y-54996805D01*
X31712223Y-55174263D01*
X31726747Y-55382300D01*
X31714791Y-55593166D01*
X31690003Y-55728776D01*
X31602198Y-55956887D01*
X31461577Y-56172399D01*
X31278819Y-56363531D01*
X31064604Y-56518505D01*
X30900503Y-56599631D01*
X30717875Y-56673375D01*
X24383750Y-56679420D01*
X23625581Y-56680094D01*
X22928364Y-56680602D01*
X22289550Y-56680926D01*
X21706593Y-56681052D01*
X21176944Y-56680963D01*
X20698054Y-56680645D01*
X20267376Y-56680081D01*
X19882362Y-56679255D01*
X19540464Y-56678153D01*
X19239134Y-56676758D01*
X18975824Y-56675055D01*
X18747985Y-56673029D01*
X18553071Y-56670663D01*
X18388532Y-56667942D01*
X18251822Y-56664850D01*
X18140391Y-56661372D01*
X18051692Y-56657492D01*
X17983177Y-56653195D01*
X17932298Y-56648464D01*
X17896507Y-56643285D01*
X17879562Y-56639519D01*
X17624505Y-56539883D01*
X17402414Y-56392355D01*
X17217608Y-56205086D01*
X17074403Y-55986228D01*
X16977117Y-55743931D01*
X16930068Y-55486346D01*
X16930239Y-55480302D01*
X17561478Y-55480302D01*
X17578965Y-55584745D01*
X17620652Y-55688406D01*
X17720439Y-55837040D01*
X17853884Y-55954823D01*
X17991998Y-56021964D01*
X18032290Y-56024661D01*
X18132997Y-56027303D01*
X18291030Y-56029877D01*
X18503304Y-56032369D01*
X18766732Y-56034765D01*
X19078228Y-56037050D01*
X19434705Y-56039211D01*
X19833076Y-56041234D01*
X20270256Y-56043105D01*
X20743157Y-56044809D01*
X21248694Y-56046333D01*
X21783779Y-56047663D01*
X22345327Y-56048783D01*
X22930250Y-56049682D01*
X23535463Y-56050343D01*
X24157879Y-56050754D01*
X24336125Y-56050823D01*
X25077836Y-56051046D01*
X25758707Y-56051198D01*
X26381400Y-56051254D01*
X26948573Y-56051192D01*
X27462888Y-56050989D01*
X27927005Y-56050621D01*
X28343584Y-56050065D01*
X28715285Y-56049298D01*
X29044770Y-56048296D01*
X29334697Y-56047037D01*
X29587728Y-56045497D01*
X29806524Y-56043652D01*
X29993743Y-56041480D01*
X30152047Y-56038957D01*
X30284096Y-56036061D01*
X30392551Y-56032767D01*
X30480071Y-56029052D01*
X30549317Y-56024894D01*
X30602950Y-56020268D01*
X30643630Y-56015153D01*
X30674016Y-56009524D01*
X30696771Y-56003358D01*
X30714553Y-55996632D01*
X30718147Y-55995036D01*
X30877572Y-55890626D01*
X31001392Y-55745432D01*
X31081526Y-55573642D01*
X31109891Y-55389446D01*
X31104987Y-55315882D01*
X31080548Y-55218438D01*
X31035501Y-55099723D01*
X31002198Y-55029524D01*
X30957999Y-54946572D01*
X30886401Y-54814394D01*
X30789195Y-54636222D01*
X30668175Y-54415289D01*
X30525131Y-54154830D01*
X30361858Y-53858076D01*
X30180147Y-53528262D01*
X29981791Y-53168620D01*
X29768581Y-52782384D01*
X29542311Y-52372787D01*
X29304773Y-51943062D01*
X29057759Y-51496443D01*
X28803061Y-51036162D01*
X28542472Y-50565453D01*
X28277784Y-50087550D01*
X28010791Y-49605685D01*
X27743283Y-49123091D01*
X27477053Y-48643003D01*
X27213894Y-48168653D01*
X26955599Y-47703274D01*
X26703959Y-47250099D01*
X26460767Y-46812363D01*
X26227815Y-46393297D01*
X26006896Y-45996136D01*
X25799802Y-45624113D01*
X25608325Y-45280460D01*
X25434258Y-44968411D01*
X25279394Y-44691200D01*
X25145524Y-44452059D01*
X25034441Y-44254222D01*
X24947937Y-44100922D01*
X24887805Y-43995392D01*
X24855837Y-43940865D01*
X24851256Y-43933968D01*
X24710509Y-43824823D01*
X24538151Y-43758790D01*
X24349043Y-43735703D01*
X24158043Y-43755399D01*
X23980010Y-43817710D01*
X23829804Y-43922474D01*
X23807117Y-43945558D01*
X23783530Y-43982102D01*
X23730780Y-44071558D01*
X23650371Y-44211236D01*
X23543807Y-44398446D01*
X23412593Y-44630495D01*
X23258231Y-44904694D01*
X23082227Y-45218351D01*
X22886084Y-45568776D01*
X22671307Y-45953277D01*
X22439398Y-46369163D01*
X22191863Y-46813744D01*
X21930204Y-47284328D01*
X21655927Y-47778226D01*
X21370536Y-48292744D01*
X21075533Y-48825194D01*
X20772423Y-49372883D01*
X20650628Y-49593125D01*
X20289295Y-50246694D01*
X19957444Y-50847051D01*
X19653814Y-51396545D01*
X19377144Y-51897525D01*
X19126174Y-52352342D01*
X18899644Y-52763345D01*
X18696293Y-53132884D01*
X18514861Y-53463309D01*
X18354087Y-53756968D01*
X18212711Y-54016213D01*
X18089472Y-54243393D01*
X17983111Y-54440856D01*
X17892365Y-54610954D01*
X17815976Y-54756036D01*
X17752682Y-54878452D01*
X17701223Y-54980550D01*
X17660338Y-55064682D01*
X17628768Y-55133196D01*
X17605251Y-55188443D01*
X17588528Y-55232771D01*
X17577337Y-55268532D01*
X17570418Y-55298074D01*
X17566512Y-55323747D01*
X17564475Y-55346230D01*
X17561478Y-55480302D01*
X16930239Y-55480302D01*
X16937572Y-55221625D01*
X16997801Y-54974750D01*
X17020380Y-54926607D01*
X17072239Y-54825692D01*
X17151868Y-54674768D01*
X17257759Y-54476600D01*
X17388405Y-54233952D01*
X17542296Y-53949587D01*
X17717924Y-53626272D01*
X17913781Y-53266769D01*
X18128358Y-52873843D01*
X18360147Y-52450258D01*
X18607640Y-51998778D01*
X18869327Y-51522168D01*
X19143700Y-51023192D01*
X19429252Y-50504614D01*
X19724473Y-49969198D01*
X20027855Y-49419709D01*
X20133794Y-49228000D01*
X20496529Y-48571823D01*
X20829930Y-47968921D01*
X21135323Y-47416961D01*
X21414031Y-46913608D01*
X21667377Y-46456528D01*
X21896687Y-46043387D01*
X22103283Y-45671851D01*
X22288489Y-45339586D01*
X22453630Y-45044257D01*
X22600029Y-44783531D01*
X22729011Y-44555073D01*
X22841898Y-44356549D01*
X22940015Y-44185626D01*
X23024687Y-44039969D01*
X23097236Y-43917243D01*
X23158986Y-43815115D01*
X23211262Y-43731251D01*
X23255388Y-43663317D01*
X23292686Y-43608978D01*
X23324482Y-43565900D01*
X23352099Y-43531750D01*
X23376861Y-43504193D01*
X23385125Y-43495646D01*
X23593720Y-43316614D01*
X23815648Y-43194254D01*
X24062134Y-43123932D01*
X24341233Y-43101026D01*
X24591036Y-43126751D01*
G37*
X24591036Y-43126751D02*
X24839056Y-43200963D01*
X25069003Y-43316301D01*
X25264587Y-43465402D01*
X25349714Y-43556790D01*
X25376391Y-43598496D01*
X25431824Y-43692631D01*
X25514222Y-43835952D01*
X25621792Y-44025218D01*
X25752744Y-44257187D01*
X25905286Y-44528618D01*
X26077627Y-44836270D01*
X26267975Y-45176901D01*
X26474539Y-45547269D01*
X26695527Y-45944133D01*
X26929149Y-46364251D01*
X27173612Y-46804382D01*
X27427125Y-47261283D01*
X27687898Y-47731715D01*
X27954137Y-48212434D01*
X28224053Y-48700200D01*
X28495853Y-49191770D01*
X28767747Y-49683904D01*
X29037942Y-50173360D01*
X29304648Y-50656895D01*
X29566073Y-51131270D01*
X29820425Y-51593241D01*
X30065914Y-52039569D01*
X30300747Y-52467010D01*
X30523134Y-52872323D01*
X30731283Y-53252267D01*
X30923402Y-53603601D01*
X31097700Y-53923083D01*
X31252386Y-54207470D01*
X31385669Y-54453523D01*
X31495756Y-54657998D01*
X31580857Y-54817655D01*
X31639180Y-54929252D01*
X31668934Y-54989547D01*
X31671904Y-54996805D01*
X31712223Y-55174263D01*
X31726747Y-55382300D01*
X31714791Y-55593166D01*
X31690003Y-55728776D01*
X31602198Y-55956887D01*
X31461577Y-56172399D01*
X31278819Y-56363531D01*
X31064604Y-56518505D01*
X30900503Y-56599631D01*
X30717875Y-56673375D01*
X24383750Y-56679420D01*
X23625581Y-56680094D01*
X22928364Y-56680602D01*
X22289550Y-56680926D01*
X21706593Y-56681052D01*
X21176944Y-56680963D01*
X20698054Y-56680645D01*
X20267376Y-56680081D01*
X19882362Y-56679255D01*
X19540464Y-56678153D01*
X19239134Y-56676758D01*
X18975824Y-56675055D01*
X18747985Y-56673029D01*
X18553071Y-56670663D01*
X18388532Y-56667942D01*
X18251822Y-56664850D01*
X18140391Y-56661372D01*
X18051692Y-56657492D01*
X17983177Y-56653195D01*
X17932298Y-56648464D01*
X17896507Y-56643285D01*
X17879562Y-56639519D01*
X17624505Y-56539883D01*
X17402414Y-56392355D01*
X17217608Y-56205086D01*
X17074403Y-55986228D01*
X16977117Y-55743931D01*
X16930068Y-55486346D01*
X16930239Y-55480302D01*
X17561478Y-55480302D01*
X17578965Y-55584745D01*
X17620652Y-55688406D01*
X17720439Y-55837040D01*
X17853884Y-55954823D01*
X17991998Y-56021964D01*
X18032290Y-56024661D01*
X18132997Y-56027303D01*
X18291030Y-56029877D01*
X18503304Y-56032369D01*
X18766732Y-56034765D01*
X19078228Y-56037050D01*
X19434705Y-56039211D01*
X19833076Y-56041234D01*
X20270256Y-56043105D01*
X20743157Y-56044809D01*
X21248694Y-56046333D01*
X21783779Y-56047663D01*
X22345327Y-56048783D01*
X22930250Y-56049682D01*
X23535463Y-56050343D01*
X24157879Y-56050754D01*
X24336125Y-56050823D01*
X25077836Y-56051046D01*
X25758707Y-56051198D01*
X26381400Y-56051254D01*
X26948573Y-56051192D01*
X27462888Y-56050989D01*
X27927005Y-56050621D01*
X28343584Y-56050065D01*
X28715285Y-56049298D01*
X29044770Y-56048296D01*
X29334697Y-56047037D01*
X29587728Y-56045497D01*
X29806524Y-56043652D01*
X29993743Y-56041480D01*
X30152047Y-56038957D01*
X30284096Y-56036061D01*
X30392551Y-56032767D01*
X30480071Y-56029052D01*
X30549317Y-56024894D01*
X30602950Y-56020268D01*
X30643630Y-56015153D01*
X30674016Y-56009524D01*
X30696771Y-56003358D01*
X30714553Y-55996632D01*
X30718147Y-55995036D01*
X30877572Y-55890626D01*
X31001392Y-55745432D01*
X31081526Y-55573642D01*
X31109891Y-55389446D01*
X31104987Y-55315882D01*
X31080548Y-55218438D01*
X31035501Y-55099723D01*
X31002198Y-55029524D01*
X30957999Y-54946572D01*
X30886401Y-54814394D01*
X30789195Y-54636222D01*
X30668175Y-54415289D01*
X30525131Y-54154830D01*
X30361858Y-53858076D01*
X30180147Y-53528262D01*
X29981791Y-53168620D01*
X29768581Y-52782384D01*
X29542311Y-52372787D01*
X29304773Y-51943062D01*
X29057759Y-51496443D01*
X28803061Y-51036162D01*
X28542472Y-50565453D01*
X28277784Y-50087550D01*
X28010791Y-49605685D01*
X27743283Y-49123091D01*
X27477053Y-48643003D01*
X27213894Y-48168653D01*
X26955599Y-47703274D01*
X26703959Y-47250099D01*
X26460767Y-46812363D01*
X26227815Y-46393297D01*
X26006896Y-45996136D01*
X25799802Y-45624113D01*
X25608325Y-45280460D01*
X25434258Y-44968411D01*
X25279394Y-44691200D01*
X25145524Y-44452059D01*
X25034441Y-44254222D01*
X24947937Y-44100922D01*
X24887805Y-43995392D01*
X24855837Y-43940865D01*
X24851256Y-43933968D01*
X24710509Y-43824823D01*
X24538151Y-43758790D01*
X24349043Y-43735703D01*
X24158043Y-43755399D01*
X23980010Y-43817710D01*
X23829804Y-43922474D01*
X23807117Y-43945558D01*
X23783530Y-43982102D01*
X23730780Y-44071558D01*
X23650371Y-44211236D01*
X23543807Y-44398446D01*
X23412593Y-44630495D01*
X23258231Y-44904694D01*
X23082227Y-45218351D01*
X22886084Y-45568776D01*
X22671307Y-45953277D01*
X22439398Y-46369163D01*
X22191863Y-46813744D01*
X21930204Y-47284328D01*
X21655927Y-47778226D01*
X21370536Y-48292744D01*
X21075533Y-48825194D01*
X20772423Y-49372883D01*
X20650628Y-49593125D01*
X20289295Y-50246694D01*
X19957444Y-50847051D01*
X19653814Y-51396545D01*
X19377144Y-51897525D01*
X19126174Y-52352342D01*
X18899644Y-52763345D01*
X18696293Y-53132884D01*
X18514861Y-53463309D01*
X18354087Y-53756968D01*
X18212711Y-54016213D01*
X18089472Y-54243393D01*
X17983111Y-54440856D01*
X17892365Y-54610954D01*
X17815976Y-54756036D01*
X17752682Y-54878452D01*
X17701223Y-54980550D01*
X17660338Y-55064682D01*
X17628768Y-55133196D01*
X17605251Y-55188443D01*
X17588528Y-55232771D01*
X17577337Y-55268532D01*
X17570418Y-55298074D01*
X17566512Y-55323747D01*
X17564475Y-55346230D01*
X17561478Y-55480302D01*
X16930239Y-55480302D01*
X16937572Y-55221625D01*
X16997801Y-54974750D01*
X17020380Y-54926607D01*
X17072239Y-54825692D01*
X17151868Y-54674768D01*
X17257759Y-54476600D01*
X17388405Y-54233952D01*
X17542296Y-53949587D01*
X17717924Y-53626272D01*
X17913781Y-53266769D01*
X18128358Y-52873843D01*
X18360147Y-52450258D01*
X18607640Y-51998778D01*
X18869327Y-51522168D01*
X19143700Y-51023192D01*
X19429252Y-50504614D01*
X19724473Y-49969198D01*
X20027855Y-49419709D01*
X20133794Y-49228000D01*
X20496529Y-48571823D01*
X20829930Y-47968921D01*
X21135323Y-47416961D01*
X21414031Y-46913608D01*
X21667377Y-46456528D01*
X21896687Y-46043387D01*
X22103283Y-45671851D01*
X22288489Y-45339586D01*
X22453630Y-45044257D01*
X22600029Y-44783531D01*
X22729011Y-44555073D01*
X22841898Y-44356549D01*
X22940015Y-44185626D01*
X23024687Y-44039969D01*
X23097236Y-43917243D01*
X23158986Y-43815115D01*
X23211262Y-43731251D01*
X23255388Y-43663317D01*
X23292686Y-43608978D01*
X23324482Y-43565900D01*
X23352099Y-43531750D01*
X23376861Y-43504193D01*
X23385125Y-43495646D01*
X23593720Y-43316614D01*
X23815648Y-43194254D01*
X24062134Y-43123932D01*
X24341233Y-43101026D01*
X24591036Y-43126751D01*
D14*
X92040000Y-5000000D02*
X91270000Y-5000000D01*
X83960000Y-5000000D02*
X84730000Y-5000000D01*
X91270000Y-3630000D02*
X84730000Y-3630000D01*
X91270000Y-6370000D02*
X91270000Y-3630000D01*
X84730000Y-6370000D02*
X91270000Y-6370000D01*
X84730000Y-3630000D02*
X84730000Y-6370000D01*
D11*
X134600000Y-28825000D02*
X134600000Y-27550000D01*
X135175000Y-39175000D02*
X135175000Y-38500000D01*
X124825000Y-39175000D02*
X124825000Y-38500000D01*
X124825000Y-28825000D02*
X124825000Y-29500000D01*
X135175000Y-28825000D02*
X135175000Y-29500000D01*
X124825000Y-28825000D02*
X125500000Y-28825000D01*
X124825000Y-39175000D02*
X125500000Y-39175000D01*
X135175000Y-39175000D02*
X134500000Y-39175000D01*
X135175000Y-28825000D02*
X134600000Y-28825000D01*
X71600000Y-28825000D02*
X71600000Y-27550000D01*
X72175000Y-39175000D02*
X72175000Y-38500000D01*
X61825000Y-39175000D02*
X61825000Y-38500000D01*
X61825000Y-28825000D02*
X61825000Y-29500000D01*
X72175000Y-28825000D02*
X72175000Y-29500000D01*
X61825000Y-28825000D02*
X62500000Y-28825000D01*
X61825000Y-39175000D02*
X62500000Y-39175000D01*
X72175000Y-39175000D02*
X71500000Y-39175000D01*
X72175000Y-28825000D02*
X71600000Y-28825000D01*
D14*
X182560000Y-46377064D02*
X182560000Y-45172936D01*
X180740000Y-46377064D02*
X180740000Y-45172936D01*
X89600000Y-61350000D02*
X89400000Y-61350000D01*
X90500000Y-61950000D02*
X89600000Y-61350000D01*
X89600000Y-63250000D02*
X89400000Y-63250000D01*
X90500000Y-62650000D02*
X89600000Y-63250000D01*
X90500000Y-61100000D02*
X90500000Y-63500000D01*
X96900000Y-61100000D02*
X90500000Y-61100000D01*
X96900000Y-63500000D02*
X96900000Y-61100000D01*
X90500000Y-63500000D02*
X96900000Y-63500000D01*
X83450000Y-63185000D02*
X86900000Y-63185000D01*
X83450000Y-63185000D02*
X81500000Y-63185000D01*
X83450000Y-58065000D02*
X85400000Y-58065000D01*
X83450000Y-58065000D02*
X81500000Y-58065000D01*
X72515000Y-57772936D02*
X72515000Y-58977064D01*
X74335000Y-57772936D02*
X74335000Y-58977064D01*
X76215000Y-57772936D02*
X76215000Y-58977064D01*
X78035000Y-57772936D02*
X78035000Y-58977064D01*
X104980000Y-35615000D02*
X104980000Y-33950000D01*
X105260000Y-35615000D02*
X104980000Y-35615000D01*
X105260000Y-38000000D02*
X105260000Y-35615000D01*
X105260000Y-40385000D02*
X104980000Y-40385000D01*
X105260000Y-38000000D02*
X105260000Y-40385000D01*
X94740000Y-35615000D02*
X95020000Y-35615000D01*
X94740000Y-38000000D02*
X94740000Y-35615000D01*
X94740000Y-40385000D02*
X95020000Y-40385000D01*
X94740000Y-38000000D02*
X94740000Y-40385000D01*
X143310000Y-41402064D02*
X143310000Y-40197936D01*
X141490000Y-41402064D02*
X141490000Y-40197936D01*
X57615000Y-60820000D02*
X55950000Y-60820000D01*
X57615000Y-60540000D02*
X57615000Y-60820000D01*
X60000000Y-60540000D02*
X57615000Y-60540000D01*
X62385000Y-60540000D02*
X62385000Y-60820000D01*
X60000000Y-60540000D02*
X62385000Y-60540000D01*
X57615000Y-71060000D02*
X57615000Y-70780000D01*
X60000000Y-71060000D02*
X57615000Y-71060000D01*
X62385000Y-71060000D02*
X62385000Y-70780000D01*
X60000000Y-71060000D02*
X62385000Y-71060000D01*
D15*
X132800000Y-20100000D02*
X132300000Y-19700000D01*
X132800000Y-20100000D02*
X132300000Y-20500000D01*
X131000000Y-20100000D02*
X132800000Y-20100000D01*
X135810000Y-18000000D02*
G75*
G02X128190000Y-18000000I-3810000J0D01*
G01*
X134895600Y-18000000D02*
G75*
G03X134895600Y-18000000I-2895600J0D01*
G01*
X68800000Y-20100000D02*
X68300000Y-19700000D01*
X68800000Y-20100000D02*
X68300000Y-20500000D01*
X67000000Y-20100000D02*
X68800000Y-20100000D01*
X71810000Y-18000000D02*
G75*
G02X64190000Y-18000000I-3810000J0D01*
G01*
X70895600Y-18000000D02*
G75*
G03X70895600Y-18000000I-2895600J0D01*
G01*
X185055300Y-18000000D02*
G75*
G03X185055300Y-18000000I-9055300J0D01*
G01*
X168000000Y-18000000D02*
G75*
G03X184000000Y-18000000I8000000J0D01*
G01*
X161055300Y-18000000D02*
G75*
G03X161055300Y-18000000I-9055300J0D01*
G01*
X144000000Y-18000000D02*
G75*
G03X160000000Y-18000000I8000000J0D01*
G01*
X121055300Y-18000000D02*
G75*
G03X121055300Y-18000000I-9055300J0D01*
G01*
X104000000Y-18000000D02*
G75*
G03X120000000Y-18000000I8000000J0D01*
G01*
X97055300Y-18000000D02*
G75*
G03X97055300Y-18000000I-9055300J0D01*
G01*
X80000000Y-18000000D02*
G75*
G03X96000000Y-18000000I8000000J0D01*
G01*
X57055300Y-18000000D02*
G75*
G03X57055300Y-18000000I-9055300J0D01*
G01*
X40000000Y-18000000D02*
G75*
G03X56000000Y-18000000I8000000J0D01*
G01*
X33055300Y-18000000D02*
G75*
G03X33055300Y-18000000I-9055300J0D01*
G01*
X16000000Y-18000000D02*
G75*
G03X32000000Y-18000000I8000000J0D01*
G01*
D14*
X122045000Y-62730000D02*
X122045000Y-64000000D01*
X120775000Y-62730000D02*
X122045000Y-62730000D01*
X115315000Y-65042929D02*
X115315000Y-65440000D01*
X116075000Y-65042929D02*
X116075000Y-65440000D01*
X115315000Y-74100000D02*
X115315000Y-68100000D01*
X116075000Y-74100000D02*
X115315000Y-74100000D01*
X116075000Y-68100000D02*
X116075000Y-74100000D01*
X116965000Y-65440000D02*
X116965000Y-68100000D01*
X117855000Y-65042929D02*
X117855000Y-65440000D01*
X118615000Y-65042929D02*
X118615000Y-65440000D01*
X117855000Y-74100000D02*
X117855000Y-68100000D01*
X118615000Y-74100000D02*
X117855000Y-74100000D01*
X118615000Y-68100000D02*
X118615000Y-74100000D01*
X119505000Y-65440000D02*
X119505000Y-68100000D01*
X120395000Y-65110000D02*
X120395000Y-65440000D01*
X121155000Y-65110000D02*
X121155000Y-65440000D01*
X120495000Y-68100000D02*
X120495000Y-74100000D01*
X120615000Y-68100000D02*
X120615000Y-74100000D01*
X120735000Y-68100000D02*
X120735000Y-74100000D01*
X120855000Y-68100000D02*
X120855000Y-74100000D01*
X120975000Y-68100000D02*
X120975000Y-74100000D01*
X121095000Y-68100000D02*
X121095000Y-74100000D01*
X120395000Y-74100000D02*
X120395000Y-68100000D01*
X121155000Y-74100000D02*
X120395000Y-74100000D01*
X121155000Y-68100000D02*
X121155000Y-74100000D01*
X122105000Y-68100000D02*
X122105000Y-65440000D01*
X114365000Y-68100000D02*
X122105000Y-68100000D01*
X114365000Y-65440000D02*
X114365000Y-68100000D01*
X122105000Y-65440000D02*
X114365000Y-65440000D01*
X110345000Y-62780000D02*
X110345000Y-64050000D01*
X109075000Y-62780000D02*
X110345000Y-62780000D01*
X101075000Y-65092929D02*
X101075000Y-65490000D01*
X101835000Y-65092929D02*
X101835000Y-65490000D01*
X101075000Y-74150000D02*
X101075000Y-68150000D01*
X101835000Y-74150000D02*
X101075000Y-74150000D01*
X101835000Y-68150000D02*
X101835000Y-74150000D01*
X102725000Y-65490000D02*
X102725000Y-68150000D01*
X103615000Y-65092929D02*
X103615000Y-65490000D01*
X104375000Y-65092929D02*
X104375000Y-65490000D01*
X103615000Y-74150000D02*
X103615000Y-68150000D01*
X104375000Y-74150000D02*
X103615000Y-74150000D01*
X104375000Y-68150000D02*
X104375000Y-74150000D01*
X105265000Y-65490000D02*
X105265000Y-68150000D01*
X106155000Y-65092929D02*
X106155000Y-65490000D01*
X106915000Y-65092929D02*
X106915000Y-65490000D01*
X106155000Y-74150000D02*
X106155000Y-68150000D01*
X106915000Y-74150000D02*
X106155000Y-74150000D01*
X106915000Y-68150000D02*
X106915000Y-74150000D01*
X107805000Y-65490000D02*
X107805000Y-68150000D01*
X108695000Y-65160000D02*
X108695000Y-65490000D01*
X109455000Y-65160000D02*
X109455000Y-65490000D01*
X108795000Y-68150000D02*
X108795000Y-74150000D01*
X108915000Y-68150000D02*
X108915000Y-74150000D01*
X109035000Y-68150000D02*
X109035000Y-74150000D01*
X109155000Y-68150000D02*
X109155000Y-74150000D01*
X109275000Y-68150000D02*
X109275000Y-74150000D01*
X109395000Y-68150000D02*
X109395000Y-74150000D01*
X108695000Y-74150000D02*
X108695000Y-68150000D01*
X109455000Y-74150000D02*
X108695000Y-74150000D01*
X109455000Y-68150000D02*
X109455000Y-74150000D01*
X110405000Y-68150000D02*
X110405000Y-65490000D01*
X100125000Y-68150000D02*
X110405000Y-68150000D01*
X100125000Y-65490000D02*
X100125000Y-68150000D01*
X110405000Y-65490000D02*
X100125000Y-65490000D01*
X139110000Y-41358578D02*
X139110000Y-40841422D01*
X137690000Y-41358578D02*
X137690000Y-40841422D01*
X56290000Y-40041422D02*
X56290000Y-40558578D01*
X57710000Y-40041422D02*
X57710000Y-40558578D01*
D15*
X132500000Y-74500000D02*
X67500000Y-74500000D01*
X67500000Y-44500000D02*
X67500000Y-74500000D01*
X132500000Y-44500000D02*
X132500000Y-74500000D01*
X132500000Y-44500000D02*
X67500000Y-44500000D01*
D14*
X74510000Y-50520000D02*
X74510000Y-49190000D01*
X75840000Y-50520000D02*
X74510000Y-50520000D01*
X74510000Y-47920000D02*
X74510000Y-45320000D01*
X77110000Y-47920000D02*
X74510000Y-47920000D01*
X77110000Y-50520000D02*
X77110000Y-47920000D01*
X74510000Y-45320000D02*
X125430000Y-45320000D01*
X77110000Y-50520000D02*
X125430000Y-50520000D01*
X125430000Y-50520000D02*
X125430000Y-45320000D01*
X180730000Y-5000000D02*
X179960000Y-5000000D01*
X172650000Y-5000000D02*
X173420000Y-5000000D01*
X179960000Y-3630000D02*
X173420000Y-3630000D01*
X179960000Y-6370000D02*
X179960000Y-3630000D01*
X173420000Y-6370000D02*
X179960000Y-6370000D01*
X173420000Y-3630000D02*
X173420000Y-6370000D01*
X156130000Y-5000000D02*
X155360000Y-5000000D01*
X148050000Y-5000000D02*
X148820000Y-5000000D01*
X155360000Y-3630000D02*
X148820000Y-3630000D01*
X155360000Y-6370000D02*
X155360000Y-3630000D01*
X148820000Y-6370000D02*
X155360000Y-6370000D01*
X148820000Y-3630000D02*
X148820000Y-6370000D01*
X52230000Y-5000000D02*
X51460000Y-5000000D01*
X44150000Y-5000000D02*
X44920000Y-5000000D01*
X51460000Y-3630000D02*
X44920000Y-3630000D01*
X51460000Y-6370000D02*
X51460000Y-3630000D01*
X44920000Y-6370000D02*
X51460000Y-6370000D01*
X44920000Y-3630000D02*
X44920000Y-6370000D01*
X116130000Y-5000000D02*
X115360000Y-5000000D01*
X108050000Y-5000000D02*
X108820000Y-5000000D01*
X115360000Y-3630000D02*
X108820000Y-3630000D01*
X115360000Y-6370000D02*
X115360000Y-3630000D01*
X108820000Y-6370000D02*
X115360000Y-6370000D01*
X108820000Y-3630000D02*
X108820000Y-6370000D01*
X135930000Y-5000000D02*
X135160000Y-5000000D01*
X127850000Y-5000000D02*
X128620000Y-5000000D01*
X135160000Y-3630000D02*
X128620000Y-3630000D01*
X135160000Y-6370000D02*
X135160000Y-3630000D01*
X128620000Y-6370000D02*
X135160000Y-6370000D01*
X128620000Y-3630000D02*
X128620000Y-6370000D01*
X71930000Y-5000000D02*
X71160000Y-5000000D01*
X63850000Y-5000000D02*
X64620000Y-5000000D01*
X71160000Y-3630000D02*
X64620000Y-3630000D01*
X71160000Y-6370000D02*
X71160000Y-3630000D01*
X64620000Y-6370000D02*
X71160000Y-6370000D01*
X64620000Y-3630000D02*
X64620000Y-6370000D01*
X27930000Y-5000000D02*
X27160000Y-5000000D01*
X19850000Y-5000000D02*
X20620000Y-5000000D01*
X27160000Y-3630000D02*
X20620000Y-3630000D01*
X27160000Y-6370000D02*
X27160000Y-3630000D01*
X20620000Y-6370000D02*
X27160000Y-6370000D01*
X20620000Y-3630000D02*
X20620000Y-6370000D01*
X179650000Y-20750000D02*
X179650000Y-19600000D01*
X172350000Y-20750000D02*
X179650000Y-20750000D01*
X172350000Y-15250000D02*
X179650000Y-15250000D01*
X155650000Y-20750000D02*
X155650000Y-19600000D01*
X148350000Y-20750000D02*
X155650000Y-20750000D01*
X148350000Y-15250000D02*
X155650000Y-15250000D01*
X115650000Y-20750000D02*
X115650000Y-19600000D01*
X108350000Y-20750000D02*
X115650000Y-20750000D01*
X108350000Y-15250000D02*
X115650000Y-15250000D01*
X91650000Y-20750000D02*
X91650000Y-19600000D01*
X84350000Y-20750000D02*
X91650000Y-20750000D01*
X84350000Y-15250000D02*
X91650000Y-15250000D01*
X51650000Y-20750000D02*
X51650000Y-19600000D01*
X44350000Y-20750000D02*
X51650000Y-20750000D01*
X44350000Y-15250000D02*
X51650000Y-15250000D01*
X27650000Y-20750000D02*
X27650000Y-19600000D01*
X20350000Y-20750000D02*
X27650000Y-20750000D01*
X20350000Y-15250000D02*
X27650000Y-15250000D01*
D11*
X87833333Y-3082380D02*
X87500000Y-2606190D01*
X87261904Y-3082380D02*
X87261904Y-2082380D01*
X87642857Y-2082380D01*
X87738095Y-2130000D01*
X87785714Y-2177619D01*
X87833333Y-2272857D01*
X87833333Y-2415714D01*
X87785714Y-2510952D01*
X87738095Y-2558571D01*
X87642857Y-2606190D01*
X87261904Y-2606190D01*
X88690476Y-2415714D02*
X88690476Y-3082380D01*
X88452380Y-2034761D02*
X88214285Y-2749047D01*
X88833333Y-2749047D01*
X137252380Y-34761904D02*
X138061904Y-34761904D01*
X138157142Y-34714285D01*
X138204761Y-34666666D01*
X138252380Y-34571428D01*
X138252380Y-34380952D01*
X138204761Y-34285714D01*
X138157142Y-34238095D01*
X138061904Y-34190476D01*
X137252380Y-34190476D01*
X137347619Y-33761904D02*
X137300000Y-33714285D01*
X137252380Y-33619047D01*
X137252380Y-33380952D01*
X137300000Y-33285714D01*
X137347619Y-33238095D01*
X137442857Y-33190476D01*
X137538095Y-33190476D01*
X137680952Y-33238095D01*
X138252380Y-33809523D01*
X138252380Y-33190476D01*
X74252380Y-34761904D02*
X75061904Y-34761904D01*
X75157142Y-34714285D01*
X75204761Y-34666666D01*
X75252380Y-34571428D01*
X75252380Y-34380952D01*
X75204761Y-34285714D01*
X75157142Y-34238095D01*
X75061904Y-34190476D01*
X74252380Y-34190476D01*
X75252380Y-33190476D02*
X75252380Y-33761904D01*
X75252380Y-33476190D02*
X74252380Y-33476190D01*
X74395238Y-33571428D01*
X74490476Y-33666666D01*
X74538095Y-33761904D01*
X180282380Y-46417857D02*
X179806190Y-46751190D01*
X180282380Y-46989285D02*
X179282380Y-46989285D01*
X179282380Y-46608333D01*
X179330000Y-46513095D01*
X179377619Y-46465476D01*
X179472857Y-46417857D01*
X179615714Y-46417857D01*
X179710952Y-46465476D01*
X179758571Y-46513095D01*
X179806190Y-46608333D01*
X179806190Y-46989285D01*
X180282380Y-45465476D02*
X180282380Y-46036904D01*
X180282380Y-45751190D02*
X179282380Y-45751190D01*
X179425238Y-45846428D01*
X179520476Y-45941666D01*
X179568095Y-46036904D01*
X179282380Y-44846428D02*
X179282380Y-44751190D01*
X179330000Y-44655952D01*
X179377619Y-44608333D01*
X179472857Y-44560714D01*
X179663333Y-44513095D01*
X179901428Y-44513095D01*
X180091904Y-44560714D01*
X180187142Y-44608333D01*
X180234761Y-44655952D01*
X180282380Y-44751190D01*
X180282380Y-44846428D01*
X180234761Y-44941666D01*
X180187142Y-44989285D01*
X180091904Y-45036904D01*
X179901428Y-45084523D01*
X179663333Y-45084523D01*
X179472857Y-45036904D01*
X179377619Y-44989285D01*
X179330000Y-44941666D01*
X179282380Y-44846428D01*
X89848809Y-64796190D02*
X89848809Y-65272380D01*
X89515476Y-64272380D02*
X89848809Y-64796190D01*
X90182142Y-64272380D01*
X91039285Y-65272380D02*
X90467857Y-65272380D01*
X90753571Y-65272380D02*
X90753571Y-64272380D01*
X90658333Y-64415238D01*
X90563095Y-64510476D01*
X90467857Y-64558095D01*
X82640476Y-63477380D02*
X83307142Y-63477380D01*
X82640476Y-64477380D01*
X83307142Y-64477380D01*
X84116666Y-63810714D02*
X84116666Y-64477380D01*
X83878571Y-63429761D02*
X83640476Y-64144047D01*
X84259523Y-64144047D01*
X75697380Y-59017857D02*
X75221190Y-59351190D01*
X75697380Y-59589285D02*
X74697380Y-59589285D01*
X74697380Y-59208333D01*
X74745000Y-59113095D01*
X74792619Y-59065476D01*
X74887857Y-59017857D01*
X75030714Y-59017857D01*
X75125952Y-59065476D01*
X75173571Y-59113095D01*
X75221190Y-59208333D01*
X75221190Y-59589285D01*
X75697380Y-58065476D02*
X75697380Y-58636904D01*
X75697380Y-58351190D02*
X74697380Y-58351190D01*
X74840238Y-58446428D01*
X74935476Y-58541666D01*
X74983095Y-58636904D01*
X74697380Y-57160714D02*
X74697380Y-57636904D01*
X75173571Y-57684523D01*
X75125952Y-57636904D01*
X75078333Y-57541666D01*
X75078333Y-57303571D01*
X75125952Y-57208333D01*
X75173571Y-57160714D01*
X75268809Y-57113095D01*
X75506904Y-57113095D01*
X75602142Y-57160714D01*
X75649761Y-57208333D01*
X75697380Y-57303571D01*
X75697380Y-57541666D01*
X75649761Y-57636904D01*
X75602142Y-57684523D01*
X79397380Y-59017857D02*
X78921190Y-59351190D01*
X79397380Y-59589285D02*
X78397380Y-59589285D01*
X78397380Y-59208333D01*
X78445000Y-59113095D01*
X78492619Y-59065476D01*
X78587857Y-59017857D01*
X78730714Y-59017857D01*
X78825952Y-59065476D01*
X78873571Y-59113095D01*
X78921190Y-59208333D01*
X78921190Y-59589285D01*
X79397380Y-58065476D02*
X79397380Y-58636904D01*
X79397380Y-58351190D02*
X78397380Y-58351190D01*
X78540238Y-58446428D01*
X78635476Y-58541666D01*
X78683095Y-58636904D01*
X78730714Y-57208333D02*
X79397380Y-57208333D01*
X78349761Y-57446428D02*
X79064047Y-57684523D01*
X79064047Y-57065476D01*
X105552380Y-38809523D02*
X105552380Y-38142857D01*
X106552380Y-38809523D01*
X106552380Y-38142857D01*
X105647619Y-37809523D02*
X105600000Y-37761904D01*
X105552380Y-37666666D01*
X105552380Y-37428571D01*
X105600000Y-37333333D01*
X105647619Y-37285714D01*
X105742857Y-37238095D01*
X105838095Y-37238095D01*
X105980952Y-37285714D01*
X106552380Y-37857142D01*
X106552380Y-37238095D01*
X141032380Y-40966666D02*
X140556190Y-41300000D01*
X141032380Y-41538095D02*
X140032380Y-41538095D01*
X140032380Y-41157142D01*
X140080000Y-41061904D01*
X140127619Y-41014285D01*
X140222857Y-40966666D01*
X140365714Y-40966666D01*
X140460952Y-41014285D01*
X140508571Y-41061904D01*
X140556190Y-41157142D01*
X140556190Y-41538095D01*
X141032380Y-40490476D02*
X141032380Y-40300000D01*
X140984761Y-40204761D01*
X140937142Y-40157142D01*
X140794285Y-40061904D01*
X140603809Y-40014285D01*
X140222857Y-40014285D01*
X140127619Y-40061904D01*
X140080000Y-40109523D01*
X140032380Y-40204761D01*
X140032380Y-40395238D01*
X140080000Y-40490476D01*
X140127619Y-40538095D01*
X140222857Y-40585714D01*
X140460952Y-40585714D01*
X140556190Y-40538095D01*
X140603809Y-40490476D01*
X140651428Y-40395238D01*
X140651428Y-40204761D01*
X140603809Y-40109523D01*
X140556190Y-40061904D01*
X140460952Y-40014285D01*
X59190476Y-59152380D02*
X59857142Y-59152380D01*
X59190476Y-60152380D01*
X59857142Y-60152380D01*
X60142857Y-59152380D02*
X60761904Y-59152380D01*
X60428571Y-59533333D01*
X60571428Y-59533333D01*
X60666666Y-59580952D01*
X60714285Y-59628571D01*
X60761904Y-59723809D01*
X60761904Y-59961904D01*
X60714285Y-60057142D01*
X60666666Y-60104761D01*
X60571428Y-60152380D01*
X60285714Y-60152380D01*
X60190476Y-60104761D01*
X60142857Y-60057142D01*
X130785714Y-14452380D02*
X130785714Y-13452380D01*
X131357142Y-14452380D01*
X131357142Y-13452380D01*
X131833333Y-13928571D02*
X132166666Y-13928571D01*
X132309523Y-14452380D02*
X131833333Y-14452380D01*
X131833333Y-13452380D01*
X132309523Y-13452380D01*
X132690476Y-13547619D02*
X132738095Y-13500000D01*
X132833333Y-13452380D01*
X133071428Y-13452380D01*
X133166666Y-13500000D01*
X133214285Y-13547619D01*
X133261904Y-13642857D01*
X133261904Y-13738095D01*
X133214285Y-13880952D01*
X132642857Y-14452380D01*
X133261904Y-14452380D01*
X66785714Y-14452380D02*
X66785714Y-13452380D01*
X67357142Y-14452380D01*
X67357142Y-13452380D01*
X67833333Y-13928571D02*
X68166666Y-13928571D01*
X68309523Y-14452380D02*
X67833333Y-14452380D01*
X67833333Y-13452380D01*
X68309523Y-13452380D01*
X69261904Y-14452380D02*
X68690476Y-14452380D01*
X68976190Y-14452380D02*
X68976190Y-13452380D01*
X68880952Y-13595238D01*
X68785714Y-13690476D01*
X68690476Y-13738095D01*
X174838857Y-8189428D02*
X174838857Y-6665428D01*
X175709714Y-8189428D01*
X175709714Y-6665428D01*
X177088571Y-6665428D02*
X176798285Y-6665428D01*
X176653142Y-6738000D01*
X176580571Y-6810571D01*
X176435428Y-7028285D01*
X176362857Y-7318571D01*
X176362857Y-7899142D01*
X176435428Y-8044285D01*
X176508000Y-8116857D01*
X176653142Y-8189428D01*
X176943428Y-8189428D01*
X177088571Y-8116857D01*
X177161142Y-8044285D01*
X177233714Y-7899142D01*
X177233714Y-7536285D01*
X177161142Y-7391142D01*
X177088571Y-7318571D01*
X176943428Y-7246000D01*
X176653142Y-7246000D01*
X176508000Y-7318571D01*
X176435428Y-7391142D01*
X176362857Y-7536285D01*
X150838857Y-8189428D02*
X150838857Y-6665428D01*
X151709714Y-8189428D01*
X151709714Y-6665428D01*
X153161142Y-6665428D02*
X152435428Y-6665428D01*
X152362857Y-7391142D01*
X152435428Y-7318571D01*
X152580571Y-7246000D01*
X152943428Y-7246000D01*
X153088571Y-7318571D01*
X153161142Y-7391142D01*
X153233714Y-7536285D01*
X153233714Y-7899142D01*
X153161142Y-8044285D01*
X153088571Y-8116857D01*
X152943428Y-8189428D01*
X152580571Y-8189428D01*
X152435428Y-8116857D01*
X152362857Y-8044285D01*
X110838857Y-8189428D02*
X110838857Y-6665428D01*
X111709714Y-8189428D01*
X111709714Y-6665428D01*
X113088571Y-7173428D02*
X113088571Y-8189428D01*
X112725714Y-6592857D02*
X112362857Y-7681428D01*
X113306285Y-7681428D01*
X86838857Y-8189428D02*
X86838857Y-6665428D01*
X87709714Y-8189428D01*
X87709714Y-6665428D01*
X88290285Y-6665428D02*
X89233714Y-6665428D01*
X88725714Y-7246000D01*
X88943428Y-7246000D01*
X89088571Y-7318571D01*
X89161142Y-7391142D01*
X89233714Y-7536285D01*
X89233714Y-7899142D01*
X89161142Y-8044285D01*
X89088571Y-8116857D01*
X88943428Y-8189428D01*
X88508000Y-8189428D01*
X88362857Y-8116857D01*
X88290285Y-8044285D01*
X46838857Y-8189428D02*
X46838857Y-6665428D01*
X47709714Y-8189428D01*
X47709714Y-6665428D01*
X48362857Y-6810571D02*
X48435428Y-6738000D01*
X48580571Y-6665428D01*
X48943428Y-6665428D01*
X49088571Y-6738000D01*
X49161142Y-6810571D01*
X49233714Y-6955714D01*
X49233714Y-7100857D01*
X49161142Y-7318571D01*
X48290285Y-8189428D01*
X49233714Y-8189428D01*
X22838857Y-8189428D02*
X22838857Y-6665428D01*
X23709714Y-8189428D01*
X23709714Y-6665428D01*
X25233714Y-8189428D02*
X24362857Y-8189428D01*
X24798285Y-8189428D02*
X24798285Y-6665428D01*
X24653142Y-6883142D01*
X24508000Y-7028285D01*
X24362857Y-7100857D01*
X122497380Y-68718333D02*
X123211666Y-68718333D01*
X123354523Y-68765952D01*
X123449761Y-68861190D01*
X123497380Y-69004047D01*
X123497380Y-69099285D01*
X122830714Y-67813571D02*
X123497380Y-67813571D01*
X122449761Y-68051666D02*
X123164047Y-68289761D01*
X123164047Y-67670714D01*
X110797380Y-68768333D02*
X111511666Y-68768333D01*
X111654523Y-68815952D01*
X111749761Y-68911190D01*
X111797380Y-69054047D01*
X111797380Y-69149285D01*
X110797380Y-68387380D02*
X110797380Y-67768333D01*
X111178333Y-68101666D01*
X111178333Y-67958809D01*
X111225952Y-67863571D01*
X111273571Y-67815952D01*
X111368809Y-67768333D01*
X111606904Y-67768333D01*
X111702142Y-67815952D01*
X111749761Y-67863571D01*
X111797380Y-67958809D01*
X111797380Y-68244523D01*
X111749761Y-68339761D01*
X111702142Y-68387380D01*
X137107142Y-41742857D02*
X137154761Y-41790476D01*
X137202380Y-41933333D01*
X137202380Y-42028571D01*
X137154761Y-42171428D01*
X137059523Y-42266666D01*
X136964285Y-42314285D01*
X136773809Y-42361904D01*
X136630952Y-42361904D01*
X136440476Y-42314285D01*
X136345238Y-42266666D01*
X136250000Y-42171428D01*
X136202380Y-42028571D01*
X136202380Y-41933333D01*
X136250000Y-41790476D01*
X136297619Y-41742857D01*
X137202380Y-40790476D02*
X137202380Y-41361904D01*
X137202380Y-41076190D02*
X136202380Y-41076190D01*
X136345238Y-41171428D01*
X136440476Y-41266666D01*
X136488095Y-41361904D01*
X136202380Y-40457142D02*
X136202380Y-39838095D01*
X136583333Y-40171428D01*
X136583333Y-40028571D01*
X136630952Y-39933333D01*
X136678571Y-39885714D01*
X136773809Y-39838095D01*
X137011904Y-39838095D01*
X137107142Y-39885714D01*
X137154761Y-39933333D01*
X137202380Y-40028571D01*
X137202380Y-40314285D01*
X137154761Y-40409523D01*
X137107142Y-40457142D01*
X59007142Y-40942857D02*
X59054761Y-40990476D01*
X59102380Y-41133333D01*
X59102380Y-41228571D01*
X59054761Y-41371428D01*
X58959523Y-41466666D01*
X58864285Y-41514285D01*
X58673809Y-41561904D01*
X58530952Y-41561904D01*
X58340476Y-41514285D01*
X58245238Y-41466666D01*
X58150000Y-41371428D01*
X58102380Y-41228571D01*
X58102380Y-41133333D01*
X58150000Y-40990476D01*
X58197619Y-40942857D01*
X59102380Y-39990476D02*
X59102380Y-40561904D01*
X59102380Y-40276190D02*
X58102380Y-40276190D01*
X58245238Y-40371428D01*
X58340476Y-40466666D01*
X58388095Y-40561904D01*
X58197619Y-39609523D02*
X58150000Y-39561904D01*
X58102380Y-39466666D01*
X58102380Y-39228571D01*
X58150000Y-39133333D01*
X58197619Y-39085714D01*
X58292857Y-39038095D01*
X58388095Y-39038095D01*
X58530952Y-39085714D01*
X59102380Y-39657142D01*
X59102380Y-39038095D01*
X73062380Y-48253333D02*
X73776666Y-48253333D01*
X73919523Y-48300952D01*
X74014761Y-48396190D01*
X74062380Y-48539047D01*
X74062380Y-48634285D01*
X74062380Y-47253333D02*
X74062380Y-47824761D01*
X74062380Y-47539047D02*
X73062380Y-47539047D01*
X73205238Y-47634285D01*
X73300476Y-47729523D01*
X73348095Y-47824761D01*
X176523333Y-3082380D02*
X176190000Y-2606190D01*
X175951904Y-3082380D02*
X175951904Y-2082380D01*
X176332857Y-2082380D01*
X176428095Y-2130000D01*
X176475714Y-2177619D01*
X176523333Y-2272857D01*
X176523333Y-2415714D01*
X176475714Y-2510952D01*
X176428095Y-2558571D01*
X176332857Y-2606190D01*
X175951904Y-2606190D01*
X177094761Y-2510952D02*
X176999523Y-2463333D01*
X176951904Y-2415714D01*
X176904285Y-2320476D01*
X176904285Y-2272857D01*
X176951904Y-2177619D01*
X176999523Y-2130000D01*
X177094761Y-2082380D01*
X177285238Y-2082380D01*
X177380476Y-2130000D01*
X177428095Y-2177619D01*
X177475714Y-2272857D01*
X177475714Y-2320476D01*
X177428095Y-2415714D01*
X177380476Y-2463333D01*
X177285238Y-2510952D01*
X177094761Y-2510952D01*
X176999523Y-2558571D01*
X176951904Y-2606190D01*
X176904285Y-2701428D01*
X176904285Y-2891904D01*
X176951904Y-2987142D01*
X176999523Y-3034761D01*
X177094761Y-3082380D01*
X177285238Y-3082380D01*
X177380476Y-3034761D01*
X177428095Y-2987142D01*
X177475714Y-2891904D01*
X177475714Y-2701428D01*
X177428095Y-2606190D01*
X177380476Y-2558571D01*
X177285238Y-2510952D01*
X151923333Y-3082380D02*
X151590000Y-2606190D01*
X151351904Y-3082380D02*
X151351904Y-2082380D01*
X151732857Y-2082380D01*
X151828095Y-2130000D01*
X151875714Y-2177619D01*
X151923333Y-2272857D01*
X151923333Y-2415714D01*
X151875714Y-2510952D01*
X151828095Y-2558571D01*
X151732857Y-2606190D01*
X151351904Y-2606190D01*
X152256666Y-2082380D02*
X152923333Y-2082380D01*
X152494761Y-3082380D01*
X48023333Y-3082380D02*
X47690000Y-2606190D01*
X47451904Y-3082380D02*
X47451904Y-2082380D01*
X47832857Y-2082380D01*
X47928095Y-2130000D01*
X47975714Y-2177619D01*
X48023333Y-2272857D01*
X48023333Y-2415714D01*
X47975714Y-2510952D01*
X47928095Y-2558571D01*
X47832857Y-2606190D01*
X47451904Y-2606190D01*
X48404285Y-2177619D02*
X48451904Y-2130000D01*
X48547142Y-2082380D01*
X48785238Y-2082380D01*
X48880476Y-2130000D01*
X48928095Y-2177619D01*
X48975714Y-2272857D01*
X48975714Y-2368095D01*
X48928095Y-2510952D01*
X48356666Y-3082380D01*
X48975714Y-3082380D01*
X111923333Y-3082380D02*
X111590000Y-2606190D01*
X111351904Y-3082380D02*
X111351904Y-2082380D01*
X111732857Y-2082380D01*
X111828095Y-2130000D01*
X111875714Y-2177619D01*
X111923333Y-2272857D01*
X111923333Y-2415714D01*
X111875714Y-2510952D01*
X111828095Y-2558571D01*
X111732857Y-2606190D01*
X111351904Y-2606190D01*
X112828095Y-2082380D02*
X112351904Y-2082380D01*
X112304285Y-2558571D01*
X112351904Y-2510952D01*
X112447142Y-2463333D01*
X112685238Y-2463333D01*
X112780476Y-2510952D01*
X112828095Y-2558571D01*
X112875714Y-2653809D01*
X112875714Y-2891904D01*
X112828095Y-2987142D01*
X112780476Y-3034761D01*
X112685238Y-3082380D01*
X112447142Y-3082380D01*
X112351904Y-3034761D01*
X112304285Y-2987142D01*
X131723333Y-3082380D02*
X131390000Y-2606190D01*
X131151904Y-3082380D02*
X131151904Y-2082380D01*
X131532857Y-2082380D01*
X131628095Y-2130000D01*
X131675714Y-2177619D01*
X131723333Y-2272857D01*
X131723333Y-2415714D01*
X131675714Y-2510952D01*
X131628095Y-2558571D01*
X131532857Y-2606190D01*
X131151904Y-2606190D01*
X132580476Y-2082380D02*
X132390000Y-2082380D01*
X132294761Y-2130000D01*
X132247142Y-2177619D01*
X132151904Y-2320476D01*
X132104285Y-2510952D01*
X132104285Y-2891904D01*
X132151904Y-2987142D01*
X132199523Y-3034761D01*
X132294761Y-3082380D01*
X132485238Y-3082380D01*
X132580476Y-3034761D01*
X132628095Y-2987142D01*
X132675714Y-2891904D01*
X132675714Y-2653809D01*
X132628095Y-2558571D01*
X132580476Y-2510952D01*
X132485238Y-2463333D01*
X132294761Y-2463333D01*
X132199523Y-2510952D01*
X132151904Y-2558571D01*
X132104285Y-2653809D01*
X67723333Y-3082380D02*
X67390000Y-2606190D01*
X67151904Y-3082380D02*
X67151904Y-2082380D01*
X67532857Y-2082380D01*
X67628095Y-2130000D01*
X67675714Y-2177619D01*
X67723333Y-2272857D01*
X67723333Y-2415714D01*
X67675714Y-2510952D01*
X67628095Y-2558571D01*
X67532857Y-2606190D01*
X67151904Y-2606190D01*
X68056666Y-2082380D02*
X68675714Y-2082380D01*
X68342380Y-2463333D01*
X68485238Y-2463333D01*
X68580476Y-2510952D01*
X68628095Y-2558571D01*
X68675714Y-2653809D01*
X68675714Y-2891904D01*
X68628095Y-2987142D01*
X68580476Y-3034761D01*
X68485238Y-3082380D01*
X68199523Y-3082380D01*
X68104285Y-3034761D01*
X68056666Y-2987142D01*
X23723333Y-3082380D02*
X23390000Y-2606190D01*
X23151904Y-3082380D02*
X23151904Y-2082380D01*
X23532857Y-2082380D01*
X23628095Y-2130000D01*
X23675714Y-2177619D01*
X23723333Y-2272857D01*
X23723333Y-2415714D01*
X23675714Y-2510952D01*
X23628095Y-2558571D01*
X23532857Y-2606190D01*
X23151904Y-2606190D01*
X24675714Y-3082380D02*
X24104285Y-3082380D01*
X24390000Y-3082380D02*
X24390000Y-2082380D01*
X24294761Y-2225238D01*
X24199523Y-2320476D01*
X24104285Y-2368095D01*
X175236904Y-15052380D02*
X175236904Y-14052380D01*
X175475000Y-14052380D01*
X175617857Y-14100000D01*
X175713095Y-14195238D01*
X175760714Y-14290476D01*
X175808333Y-14480952D01*
X175808333Y-14623809D01*
X175760714Y-14814285D01*
X175713095Y-14909523D01*
X175617857Y-15004761D01*
X175475000Y-15052380D01*
X175236904Y-15052380D01*
X176665476Y-14052380D02*
X176475000Y-14052380D01*
X176379761Y-14100000D01*
X176332142Y-14147619D01*
X176236904Y-14290476D01*
X176189285Y-14480952D01*
X176189285Y-14861904D01*
X176236904Y-14957142D01*
X176284523Y-15004761D01*
X176379761Y-15052380D01*
X176570238Y-15052380D01*
X176665476Y-15004761D01*
X176713095Y-14957142D01*
X176760714Y-14861904D01*
X176760714Y-14623809D01*
X176713095Y-14528571D01*
X176665476Y-14480952D01*
X176570238Y-14433333D01*
X176379761Y-14433333D01*
X176284523Y-14480952D01*
X176236904Y-14528571D01*
X176189285Y-14623809D01*
X172135714Y-16852380D02*
X171564285Y-16852380D01*
X171850000Y-16852380D02*
X171850000Y-15852380D01*
X171754761Y-15995238D01*
X171659523Y-16090476D01*
X171564285Y-16138095D01*
X151261904Y-14952380D02*
X151261904Y-13952380D01*
X151500000Y-13952380D01*
X151642857Y-14000000D01*
X151738095Y-14095238D01*
X151785714Y-14190476D01*
X151833333Y-14380952D01*
X151833333Y-14523809D01*
X151785714Y-14714285D01*
X151738095Y-14809523D01*
X151642857Y-14904761D01*
X151500000Y-14952380D01*
X151261904Y-14952380D01*
X152738095Y-13952380D02*
X152261904Y-13952380D01*
X152214285Y-14428571D01*
X152261904Y-14380952D01*
X152357142Y-14333333D01*
X152595238Y-14333333D01*
X152690476Y-14380952D01*
X152738095Y-14428571D01*
X152785714Y-14523809D01*
X152785714Y-14761904D01*
X152738095Y-14857142D01*
X152690476Y-14904761D01*
X152595238Y-14952380D01*
X152357142Y-14952380D01*
X152261904Y-14904761D01*
X152214285Y-14857142D01*
X148135714Y-16852380D02*
X147564285Y-16852380D01*
X147850000Y-16852380D02*
X147850000Y-15852380D01*
X147754761Y-15995238D01*
X147659523Y-16090476D01*
X147564285Y-16138095D01*
X111261904Y-14952380D02*
X111261904Y-13952380D01*
X111500000Y-13952380D01*
X111642857Y-14000000D01*
X111738095Y-14095238D01*
X111785714Y-14190476D01*
X111833333Y-14380952D01*
X111833333Y-14523809D01*
X111785714Y-14714285D01*
X111738095Y-14809523D01*
X111642857Y-14904761D01*
X111500000Y-14952380D01*
X111261904Y-14952380D01*
X112690476Y-14285714D02*
X112690476Y-14952380D01*
X112452380Y-13904761D02*
X112214285Y-14619047D01*
X112833333Y-14619047D01*
X108135714Y-16852380D02*
X107564285Y-16852380D01*
X107850000Y-16852380D02*
X107850000Y-15852380D01*
X107754761Y-15995238D01*
X107659523Y-16090476D01*
X107564285Y-16138095D01*
X87261904Y-14952380D02*
X87261904Y-13952380D01*
X87500000Y-13952380D01*
X87642857Y-14000000D01*
X87738095Y-14095238D01*
X87785714Y-14190476D01*
X87833333Y-14380952D01*
X87833333Y-14523809D01*
X87785714Y-14714285D01*
X87738095Y-14809523D01*
X87642857Y-14904761D01*
X87500000Y-14952380D01*
X87261904Y-14952380D01*
X88166666Y-13952380D02*
X88785714Y-13952380D01*
X88452380Y-14333333D01*
X88595238Y-14333333D01*
X88690476Y-14380952D01*
X88738095Y-14428571D01*
X88785714Y-14523809D01*
X88785714Y-14761904D01*
X88738095Y-14857142D01*
X88690476Y-14904761D01*
X88595238Y-14952380D01*
X88309523Y-14952380D01*
X88214285Y-14904761D01*
X88166666Y-14857142D01*
X84135714Y-16852380D02*
X83564285Y-16852380D01*
X83850000Y-16852380D02*
X83850000Y-15852380D01*
X83754761Y-15995238D01*
X83659523Y-16090476D01*
X83564285Y-16138095D01*
X47261904Y-14952380D02*
X47261904Y-13952380D01*
X47500000Y-13952380D01*
X47642857Y-14000000D01*
X47738095Y-14095238D01*
X47785714Y-14190476D01*
X47833333Y-14380952D01*
X47833333Y-14523809D01*
X47785714Y-14714285D01*
X47738095Y-14809523D01*
X47642857Y-14904761D01*
X47500000Y-14952380D01*
X47261904Y-14952380D01*
X48214285Y-14047619D02*
X48261904Y-14000000D01*
X48357142Y-13952380D01*
X48595238Y-13952380D01*
X48690476Y-14000000D01*
X48738095Y-14047619D01*
X48785714Y-14142857D01*
X48785714Y-14238095D01*
X48738095Y-14380952D01*
X48166666Y-14952380D01*
X48785714Y-14952380D01*
X44135714Y-16852380D02*
X43564285Y-16852380D01*
X43850000Y-16852380D02*
X43850000Y-15852380D01*
X43754761Y-15995238D01*
X43659523Y-16090476D01*
X43564285Y-16138095D01*
X23261904Y-14952380D02*
X23261904Y-13952380D01*
X23500000Y-13952380D01*
X23642857Y-14000000D01*
X23738095Y-14095238D01*
X23785714Y-14190476D01*
X23833333Y-14380952D01*
X23833333Y-14523809D01*
X23785714Y-14714285D01*
X23738095Y-14809523D01*
X23642857Y-14904761D01*
X23500000Y-14952380D01*
X23261904Y-14952380D01*
X24785714Y-14952380D02*
X24214285Y-14952380D01*
X24500000Y-14952380D02*
X24500000Y-13952380D01*
X24404761Y-14095238D01*
X24309523Y-14190476D01*
X24214285Y-14238095D01*
X20135714Y-16852380D02*
X19564285Y-16852380D01*
X19850000Y-16852380D02*
X19850000Y-15852380D01*
X19754761Y-15995238D01*
X19659523Y-16090476D01*
X19564285Y-16138095D01*
M02*
